<?xml version="1.0" encoding="UTF-8" standalone="no"?><svg xmlns="http://www.w3.org/2000/svg" xmlns:xlink="http://www.w3.org/1999/xlink" clip-rule="evenodd" stroke-miterlimit="10" viewBox="0 0 1024 768"><desc>SVG generated by Keynote</desc><defs></defs><g transform="matrix(1.00, 0.00, -0.00, -1.00, 0.0, 768.0)"><path d="M 0.0 768.0 L 1024.0 768.0 L 1024.0 0.0 L 0.0 0.0 Z M 0.0 768.0 " fill="#000000"></path><text xml:space="preserve" font-family="UbuntuMono-Regular,Ubuntu Mono" font-size="60.0" fill="#FEFFFF" transform="matrix(1.00, 0.00, -0.00, -1.00, 332.0, 539.5)">p</text><text xml:space="preserve" font-family="UbuntuMono-Regular,Ubuntu Mono" font-size="60.0" fill="#FEFFFF" transform="matrix(1.00, 0.00, -0.00, -1.00, 362.0, 539.5)">r</text><text xml:space="preserve" font-family="UbuntuMono-Regular,Ubuntu Mono" font-size="60.0" fill="#FEFFFF" transform="matrix(1.00, 0.00, -0.00, -1.00, 392.0, 539.5)">e</text><text xml:space="preserve" font-family="UbuntuMono-Regular,Ubuntu Mono" font-size="60.0" fill="#FEFFFF" transform="matrix(1.00, 0.00, -0.00, -1.00, 422.0, 539.5)">z</text><text xml:space="preserve" font-family="UbuntuMono-Regular,Ubuntu Mono" font-size="60.0" fill="#FEFFFF" transform="matrix(1.00, 0.00, -0.00, -1.00, 452.0, 539.5)">L</text><text xml:space="preserve" font-family="UbuntuMono-Regular,Ubuntu Mono" font-size="60.0" fill="#FEFFFF" transform="matrix(1.00, 0.00, -0.00, -1.00, 482.0, 539.5)">a</text><text xml:space="preserve" font-family="UbuntuMono-Regular,Ubuntu Mono" font-size="60.0" fill="#FEFFFF" transform="matrix(1.00, 0.00, -0.00, -1.00, 512.0, 539.5)">y</text><text xml:space="preserve" font-family="UbuntuMono-Regular,Ubuntu Mono" font-size="60.0" fill="#FEFFFF" transform="matrix(1.00, 0.00, -0.00, -1.00, 542.0, 539.5)">e</text><text xml:space="preserve" font-family="UbuntuMono-Regular,Ubuntu Mono" font-size="60.0" fill="#FEFFFF" transform="matrix(1.00, 0.00, -0.00, -1.00, 572.0, 539.5)">r</text><text xml:space="preserve" font-family="UbuntuMono-Regular,Ubuntu Mono" font-size="60.0" fill="#FEFFFF" transform="matrix(1.00, 0.00, -0.00, -1.00, 602.0, 539.5)">.</text><text xml:space="preserve" font-family="UbuntuMono-Regular,Ubuntu Mono" font-size="60.0" fill="#FEFFFF" transform="matrix(1.00, 0.00, -0.00, -1.00, 632.0, 539.5)">j</text><text xml:space="preserve" font-family="UbuntuMono-Regular,Ubuntu Mono" font-size="60.0" fill="#FEFFFF" transform="matrix(1.00, 0.00, -0.00, -1.00, 662.0, 539.5)">s</text><image xlink:href="7C161931E9B1F8BB57022FFC89BECFD3.png" width="468.00" height="264.00" transform="matrix(1.00, 0.00, -0.00, -1.00, 278.0, 439.0)"></image><path d="M 0.0 0.0 L -98.4 -655.8 " fill="none" stroke="#FE0E01" stroke-width="7.00" stroke-linecap="round" stroke-linejoin="round" transform="matrix(-0.71, -0.71, -0.11, 0.11, 289.5, 397.0)"></path><path d="M 0.0 0.0 L -98.4 -655.8 " fill="none" stroke="#FE0E01" stroke-width="7.00" stroke-linecap="round" stroke-linejoin="round" transform="matrix(-0.71, -0.71, -0.11, 0.11, 289.5, 265.2)"></path></g></svg>