<?xml version="1.0" encoding="UTF-8" standalone="no"?><svg xmlns="http://www.w3.org/2000/svg" xmlns:xlink="http://www.w3.org/1999/xlink" clip-rule="evenodd" stroke-miterlimit="10" viewBox="0 0 1024 768"><desc>SVG generated by Keynote</desc><defs></defs><g transform="matrix(1.00, 0.00, -0.00, -1.00, 0.0, 768.0)"><path d="M 0.0 768.0 L 1024.0 768.0 L 1024.0 0.0 L 0.0 0.0 Z M 0.0 768.0 " fill="#F4F4F4"></path><text xml:space="preserve" font-family="Monaco,Monaco" font-size="67.2" fill="#000000" transform="matrix(1.00, 0.00, -0.00, -1.00, 270.0, 583.6)">l</text><text xml:space="preserve" font-family="Monaco,Monaco" font-size="67.2" fill="#000000" transform="matrix(1.00, 0.00, -0.00, -1.00, 310.4, 583.6)">i</text><text xml:space="preserve" font-family="Monaco,Monaco" font-size="67.2" fill="#000000" transform="matrix(1.00, 0.00, -0.00, -1.00, 350.7, 583.6)">b</text><text xml:space="preserve" font-family="Monaco,Monaco" font-size="67.2" fill="#000000" transform="matrix(1.00, 0.00, -0.00, -1.00, 391.0, 583.6)">e</text><text xml:space="preserve" font-family="Monaco,Monaco" font-size="67.2" fill="#000000" transform="matrix(1.00, 0.00, -0.00, -1.00, 431.4, 583.6)">r</text><text xml:space="preserve" font-family="Monaco,Monaco" font-size="67.2" fill="#000000" transform="matrix(1.00, 0.00, -0.00, -1.00, 471.7, 583.6)">d</text><text xml:space="preserve" font-family="Monaco,Monaco" font-size="67.2" fill="#000000" transform="matrix(1.00, 0.00, -0.00, -1.00, 512.0, 583.6)">a</text><text xml:space="preserve" font-family="Monaco,Monaco" font-size="67.2" fill="#000000" transform="matrix(1.00, 0.00, -0.00, -1.00, 552.4, 583.6)">d</text><text xml:space="preserve" font-family="Monaco,Monaco" font-size="67.2" fill="#000000" transform="matrix(1.00, 0.00, -0.00, -1.00, 592.7, 583.6)">e</text><text xml:space="preserve" font-family="Monaco,Monaco" font-size="67.2" fill="#000000" transform="matrix(1.00, 0.00, -0.00, -1.00, 633.0, 583.6)"> </text><text xml:space="preserve" font-family="Monaco,Monaco" font-size="67.2" fill="#000000" transform="matrix(1.00, 0.00, -0.00, -1.00, 673.4, 583.6)">d</text><text xml:space="preserve" font-family="Monaco,Monaco" font-size="67.2" fill="#000000" transform="matrix(1.00, 0.00, -0.00, -1.00, 713.7, 583.6)">e</text><text xml:space="preserve" font-family="Monaco,Monaco" font-size="67.2" fill="#000000" transform="matrix(1.00, 0.00, -0.00, -1.00, 754.0, 583.6)"> </text><text xml:space="preserve" font-family="Monaco,Monaco" font-size="67.2" fill="#000000" transform="matrix(1.00, 0.00, -0.00, -1.00, 249.9, 493.6)">i</text><text xml:space="preserve" font-family="Monaco,Monaco" font-size="67.2" fill="#000000" transform="matrix(1.00, 0.00, -0.00, -1.00, 290.2, 493.6)">m</text><text xml:space="preserve" font-family="Monaco,Monaco" font-size="67.2" fill="#000000" transform="matrix(1.00, 0.00, -0.00, -1.00, 330.5, 493.6)">p</text><text xml:space="preserve" font-family="Monaco,Monaco" font-size="67.2" fill="#000000" transform="matrix(1.00, 0.00, -0.00, -1.00, 370.9, 493.6)">l</text><text xml:space="preserve" font-family="Monaco,Monaco" font-size="67.2" fill="#000000" transform="matrix(1.00, 0.00, -0.00, -1.00, 411.2, 493.6)">e</text><text xml:space="preserve" font-family="Monaco,Monaco" font-size="67.2" fill="#000000" transform="matrix(1.00, 0.00, -0.00, -1.00, 451.5, 493.6)">m</text><text xml:space="preserve" font-family="Monaco,Monaco" font-size="67.2" fill="#000000" transform="matrix(1.00, 0.00, -0.00, -1.00, 491.9, 493.6)">e</text><text xml:space="preserve" font-family="Monaco,Monaco" font-size="67.2" fill="#000000" transform="matrix(1.00, 0.00, -0.00, -1.00, 532.2, 493.6)">n</text><text xml:space="preserve" font-family="Monaco,Monaco" font-size="67.2" fill="#000000" transform="matrix(1.00, 0.00, -0.00, -1.00, 572.5, 493.6)">t</text><text xml:space="preserve" font-family="Monaco,Monaco" font-size="67.2" fill="#000000" transform="matrix(1.00, 0.00, -0.00, -1.00, 612.9, 493.6)">a</text><text xml:space="preserve" font-family="Monaco,Monaco" font-size="67.2" fill="#000000" transform="matrix(1.00, 0.00, -0.00, -1.00, 653.2, 493.6)">รง</text><text xml:space="preserve" font-family="Monaco,Monaco" font-size="67.2" fill="#000000" transform="matrix(1.00, 0.00, -0.00, -1.00, 693.5, 493.6)">รฃ</text><text xml:space="preserve" font-family="Monaco,Monaco" font-size="67.2" fill="#000000" transform="matrix(1.00, 0.00, -0.00, -1.00, 733.9, 493.6)">o</text><text xml:space="preserve" font-family="Monaco,Monaco" font-size="67.2" fill="#000000" transform="matrix(1.00, 0.00, -0.00, -1.00, 451.5, 403.6)">=</text><text xml:space="preserve" font-family="Monaco,Monaco" font-size="67.2" fill="#000000" transform="matrix(1.00, 0.00, -0.00, -1.00, 491.8, 403.6)">=</text><text xml:space="preserve" font-family="Monaco,Monaco" font-size="67.2" fill="#000000" transform="matrix(1.00, 0.00, -0.00, -1.00, 532.2, 403.6)">=</text><text xml:space="preserve" font-family="Monaco,Monaco" font-size="67.2" fill="#000000" transform="matrix(1.00, 0.00, -0.00, -1.00, 108.7, 313.6)">u</text><text xml:space="preserve" font-family="Monaco,Monaco" font-size="67.2" fill="#000000" transform="matrix(1.00, 0.00, -0.00, -1.00, 149.1, 313.6)">s</text><text xml:space="preserve" font-family="Monaco,Monaco" font-size="67.2" fill="#000000" transform="matrix(1.00, 0.00, -0.00, -1.00, 189.4, 313.6)">e</text><text xml:space="preserve" font-family="Monaco,Monaco" font-size="67.2" fill="#000000" transform="matrix(1.00, 0.00, -0.00, -1.00, 229.7, 313.6)"> </text><text xml:space="preserve" font-family="Monaco,Monaco" font-size="67.2" fill="#000000" transform="matrix(1.00, 0.00, -0.00, -1.00, 270.1, 313.6)">q</text><text xml:space="preserve" font-family="Monaco,Monaco" font-size="67.2" fill="#000000" transform="matrix(1.00, 0.00, -0.00, -1.00, 310.4, 313.6)">u</text><text xml:space="preserve" font-family="Monaco,Monaco" font-size="67.2" fill="#000000" transform="matrix(1.00, 0.00, -0.00, -1.00, 350.7, 313.6)">a</text><text xml:space="preserve" font-family="Monaco,Monaco" font-size="67.2" fill="#000000" transform="matrix(1.00, 0.00, -0.00, -1.00, 391.1, 313.6)">n</text><text xml:space="preserve" font-family="Monaco,Monaco" font-size="67.2" fill="#000000" transform="matrix(1.00, 0.00, -0.00, -1.00, 431.4, 313.6)">t</text><text xml:space="preserve" font-family="Monaco,Monaco" font-size="67.2" fill="#000000" transform="matrix(1.00, 0.00, -0.00, -1.00, 471.7, 313.6)">o</text><text xml:space="preserve" font-family="Monaco,Monaco" font-size="67.2" fill="#000000" transform="matrix(1.00, 0.00, -0.00, -1.00, 512.1, 313.6)"> </text><text xml:space="preserve" font-family="Monaco,Monaco" font-size="67.2" fill="#000000" transform="matrix(1.00, 0.00, -0.00, -1.00, 552.4, 313.6)">q</text><text xml:space="preserve" font-family="Monaco,Monaco" font-size="67.2" fill="#000000" transform="matrix(1.00, 0.00, -0.00, -1.00, 592.7, 313.6)">u</text><text xml:space="preserve" font-family="Monaco,Monaco" font-size="67.2" fill="#000000" transform="matrix(1.00, 0.00, -0.00, -1.00, 633.1, 313.6)">i</text><text xml:space="preserve" font-family="Monaco,Monaco" font-size="67.2" fill="#000000" transform="matrix(1.00, 0.00, -0.00, -1.00, 673.4, 313.6)">s</text><text xml:space="preserve" font-family="Monaco,Monaco" font-size="67.2" fill="#000000" transform="matrix(1.00, 0.00, -0.00, -1.00, 713.7, 313.6)">e</text><text xml:space="preserve" font-family="Monaco,Monaco" font-size="67.2" fill="#000000" transform="matrix(1.00, 0.00, -0.00, -1.00, 754.1, 313.6)">r</text><text xml:space="preserve" font-family="Monaco,Monaco" font-size="67.2" fill="#000000" transform="matrix(1.00, 0.00, -0.00, -1.00, 794.4, 313.6)"> </text><text xml:space="preserve" font-family="Monaco,Monaco" font-size="67.2" fill="#000000" transform="matrix(1.00, 0.00, -0.00, -1.00, 834.7, 313.6)">o</text><text xml:space="preserve" font-family="Monaco,Monaco" font-size="67.2" fill="#000000" transform="matrix(1.00, 0.00, -0.00, -1.00, 875.1, 313.6)">s</text><text xml:space="preserve" font-family="Monaco,Monaco" font-size="67.2" fill="#000000" transform="matrix(1.00, 0.00, -0.00, -1.00, 915.4, 313.6)"> </text><text xml:space="preserve" font-family="Monaco,Monaco" font-size="67.2" fill="#000000" transform="matrix(1.00, 0.00, -0.00, -1.00, 108.7, 223.6)">f</text><text xml:space="preserve" font-family="Monaco,Monaco" font-size="67.2" fill="#000000" transform="matrix(1.00, 0.00, -0.00, -1.00, 149.1, 223.6)">r</text><text xml:space="preserve" font-family="Monaco,Monaco" font-size="67.2" fill="#000000" transform="matrix(1.00, 0.00, -0.00, -1.00, 189.4, 223.6)">a</text><text xml:space="preserve" font-family="Monaco,Monaco" font-size="67.2" fill="#000000" transform="matrix(1.00, 0.00, -0.00, -1.00, 229.7, 223.6)">m</text><text xml:space="preserve" font-family="Monaco,Monaco" font-size="67.2" fill="#000000" transform="matrix(1.00, 0.00, -0.00, -1.00, 270.1, 223.6)">e</text><text xml:space="preserve" font-family="Monaco,Monaco" font-size="67.2" fill="#000000" transform="matrix(1.00, 0.00, -0.00, -1.00, 310.4, 223.6)">w</text><text xml:space="preserve" font-family="Monaco,Monaco" font-size="67.2" fill="#000000" transform="matrix(1.00, 0.00, -0.00, -1.00, 350.7, 223.6)">o</text><text xml:space="preserve" font-family="Monaco,Monaco" font-size="67.2" fill="#000000" transform="matrix(1.00, 0.00, -0.00, -1.00, 391.1, 223.6)">r</text><text xml:space="preserve" font-family="Monaco,Monaco" font-size="67.2" fill="#000000" transform="matrix(1.00, 0.00, -0.00, -1.00, 431.4, 223.6)">k</text><text xml:space="preserve" font-family="Monaco,Monaco" font-size="67.2" fill="#000000" transform="matrix(1.00, 0.00, -0.00, -1.00, 471.7, 223.6)">s</text><text xml:space="preserve" font-family="Monaco,Monaco" font-size="67.2" fill="#000000" transform="matrix(1.00, 0.00, -0.00, -1.00, 512.1, 223.6)">,</text><text xml:space="preserve" font-family="Monaco,Monaco" font-size="67.2" fill="#000000" transform="matrix(1.00, 0.00, -0.00, -1.00, 552.4, 223.6)"> </text><text xml:space="preserve" font-family="Monaco,Monaco" font-size="67.2" fill="#000000" transform="matrix(1.00, 0.00, -0.00, -1.00, 592.7, 223.6)">d</text><text xml:space="preserve" font-family="Monaco,Monaco" font-size="67.2" fill="#000000" transform="matrix(1.00, 0.00, -0.00, -1.00, 633.1, 223.6)">a</text><text xml:space="preserve" font-family="Monaco,Monaco" font-size="67.2" fill="#000000" transform="matrix(1.00, 0.00, -0.00, -1.00, 673.4, 223.6)"> </text><text xml:space="preserve" font-family="Monaco,Monaco" font-size="67.2" fill="#000000" transform="matrix(1.00, 0.00, -0.00, -1.00, 713.7, 223.6)">f</text><text xml:space="preserve" font-family="Monaco,Monaco" font-size="67.2" fill="#000000" transform="matrix(1.00, 0.00, -0.00, -1.00, 754.1, 223.6)">o</text><text xml:space="preserve" font-family="Monaco,Monaco" font-size="67.2" fill="#000000" transform="matrix(1.00, 0.00, -0.00, -1.00, 794.4, 223.6)">r</text><text xml:space="preserve" font-family="Monaco,Monaco" font-size="67.2" fill="#000000" transform="matrix(1.00, 0.00, -0.00, -1.00, 834.7, 223.6)">m</text><text xml:space="preserve" font-family="Monaco,Monaco" font-size="67.2" fill="#000000" transform="matrix(1.00, 0.00, -0.00, -1.00, 875.1, 223.6)">a</text><text xml:space="preserve" font-family="Monaco,Monaco" font-size="67.2" fill="#000000" transform="matrix(1.00, 0.00, -0.00, -1.00, 915.4, 223.6)"> </text><text xml:space="preserve" font-family="Monaco,Monaco" font-size="67.2" fill="#000000" transform="matrix(1.00, 0.00, -0.00, -1.00, 310.4, 133.6)">q</text><text xml:space="preserve" font-family="Monaco,Monaco" font-size="67.2" fill="#000000" transform="matrix(1.00, 0.00, -0.00, -1.00, 350.7, 133.6)">u</text><text xml:space="preserve" font-family="Monaco,Monaco" font-size="67.2" fill="#000000" transform="matrix(1.00, 0.00, -0.00, -1.00, 391.0, 133.6)">e</text><text xml:space="preserve" font-family="Monaco,Monaco" font-size="67.2" fill="#000000" transform="matrix(1.00, 0.00, -0.00, -1.00, 431.4, 133.6)"> </text><text xml:space="preserve" font-family="Monaco,Monaco" font-size="67.2" fill="#000000" transform="matrix(1.00, 0.00, -0.00, -1.00, 471.7, 133.6)">q</text><text xml:space="preserve" font-family="Monaco,Monaco" font-size="67.2" fill="#000000" transform="matrix(1.00, 0.00, -0.00, -1.00, 512.0, 133.6)">u</text><text xml:space="preserve" font-family="Monaco,Monaco" font-size="67.2" fill="#000000" transform="matrix(1.00, 0.00, -0.00, -1.00, 552.4, 133.6)">i</text><text xml:space="preserve" font-family="Monaco,Monaco" font-size="67.2" fill="#000000" transform="matrix(1.00, 0.00, -0.00, -1.00, 592.7, 133.6)">s</text><text xml:space="preserve" font-family="Monaco,Monaco" font-size="67.2" fill="#000000" transform="matrix(1.00, 0.00, -0.00, -1.00, 633.0, 133.6)">e</text><text xml:space="preserve" font-family="Monaco,Monaco" font-size="67.2" fill="#000000" transform="matrix(1.00, 0.00, -0.00, -1.00, 673.4, 133.6)">r</text></g></svg>