<?xml version="1.0" encoding="UTF-8" standalone="no"?><svg xmlns="http://www.w3.org/2000/svg" xmlns:xlink="http://www.w3.org/1999/xlink" clip-rule="evenodd" stroke-miterlimit="10" viewBox="0 0 1024 768"><desc>SVG generated by Keynote</desc><defs><pattern id="DA9204ED-391C-48B0-82A2-EDE3A9A89713" patternUnits="userSpaceOnUse" width="256" height="256" viewBox="0 0 256 256"><image xlink:href="../../5867522E-6026-46E5-8AA5-52BA20D7C218/assets/AE076AE14B0AE672B700F7473AB7889A.png" width="256.00" height="256.00"></image></pattern><pattern id="96187BBC-1933-4813-ACBD-4914137B9363" patternUnits="userSpaceOnUse" width="256" height="256" viewBox="0 0 256 256"><image xlink:href="../../5867522E-6026-46E5-8AA5-52BA20D7C218/assets/AE076AE14B0AE672B700F7473AB7889A.png" width="256.00" height="256.00"></image></pattern></defs><g transform="matrix(1.00, 0.00, -0.00, -1.00, 0.0, 768.0)"><path d="M 0.0 768.0 L 1024.0 768.0 L 1024.0 0.0 L 0.0 0.0 Z M 0.0 768.0 " fill="#F4F4F4"></path><text xml:space="preserve" font-family="Monaco,Monaco" font-size="80.0" fill="#000000" transform="matrix(1.00, 0.00, -0.00, -1.00, 103.9, 564.4)">p</text><text xml:space="preserve" font-family="Monaco,Monaco" font-size="80.0" fill="#000000" transform="matrix(1.00, 0.00, -0.00, -1.00, 151.9, 564.4)">r</text><text xml:space="preserve" font-family="Monaco,Monaco" font-size="80.0" fill="#000000" transform="matrix(1.00, 0.00, -0.00, -1.00, 200.0, 564.4)">o</text><text xml:space="preserve" font-family="Monaco,Monaco" font-size="80.0" fill="#000000" transform="matrix(1.00, 0.00, -0.00, -1.00, 248.0, 564.4)">j</text><text xml:space="preserve" font-family="Monaco,Monaco" font-size="80.0" fill="#000000" transform="matrix(1.00, 0.00, -0.00, -1.00, 296.0, 564.4)">e</text><text xml:space="preserve" font-family="Monaco,Monaco" font-size="80.0" fill="#000000" transform="matrix(1.00, 0.00, -0.00, -1.00, 344.0, 564.4)">t</text><text xml:space="preserve" font-family="Monaco,Monaco" font-size="80.0" fill="#000000" transform="matrix(1.00, 0.00, -0.00, -1.00, 392.0, 564.4)">o</text><text xml:space="preserve" font-family="Monaco,Monaco" font-size="80.0" fill="#000000" transform="matrix(1.00, 0.00, -0.00, -1.00, 440.0, 564.4)">s</text><text xml:space="preserve" font-family="Monaco,Monaco" font-size="80.0" fill="#000000" transform="matrix(1.00, 0.00, -0.00, -1.00, 488.1, 564.4)"> </text><text xml:space="preserve" font-family="Monaco,Monaco" font-size="80.0" fill="#000000" transform="matrix(1.00, 0.00, -0.00, -1.00, 536.1, 564.4)">e</text><text xml:space="preserve" font-family="Monaco,Monaco" font-size="80.0" fill="#000000" transform="matrix(1.00, 0.00, -0.00, -1.00, 584.1, 564.4)">m</text><text xml:space="preserve" font-family="Monaco,Monaco" font-size="80.0" fill="#000000" transform="matrix(1.00, 0.00, -0.00, -1.00, 632.1, 564.4)"> </text><text xml:space="preserve" font-family="Monaco,Monaco" font-size="80.0" fill="#000000" transform="matrix(1.00, 0.00, -0.00, -1.00, 680.1, 564.4)">g</text><text xml:space="preserve" font-family="Monaco,Monaco" font-size="80.0" fill="#000000" transform="matrix(1.00, 0.00, -0.00, -1.00, 728.1, 564.4)">e</text><text xml:space="preserve" font-family="Monaco,Monaco" font-size="80.0" fill="#000000" transform="matrix(1.00, 0.00, -0.00, -1.00, 776.2, 564.4)">r</text><text xml:space="preserve" font-family="Monaco,Monaco" font-size="80.0" fill="#000000" transform="matrix(1.00, 0.00, -0.00, -1.00, 824.2, 564.4)">a</text><text xml:space="preserve" font-family="Monaco,Monaco" font-size="80.0" fill="#000000" transform="matrix(1.00, 0.00, -0.00, -1.00, 872.2, 564.4)">l</text><g><clipPath id="clip0x7fda2aceae50"><path d="M 181.0 475.0 L 843.0 475.0 L 843.0 305.0 L 181.0 305.0 Z M 180.5 475.2 "></path></clipPath><g clip-path="url(#clip0x7fda2aceae50)"><path d="M 181.0 305.0 L 843.0 305.0 L 843.0 475.0 L 181.0 475.0 Z M 181.0 305.0 " fill="url(#DA9204ED-391C-48B0-82A2-EDE3A9A89713)"></path></g></g><g><clipPath id="clip0x7fda2acece90"><path d="M 182.0 212.0 L 844.0 212.0 L 844.0 112.0 L 182.0 112.0 Z M 181.5 212.2 "></path></clipPath><g clip-path="url(#clip0x7fda2acece90)"><path d="M 182.0 112.0 L 844.0 112.0 L 844.0 212.0 L 182.0 212.0 Z M 182.0 112.0 " fill="url(#96187BBC-1933-4813-ACBD-4914137B9363)"></path></g></g><text xml:space="preserve" font-family="Monaco,Monaco" font-size="36.0" fill="#FEFFFF" transform="matrix(1.00, 0.00, -0.00, -1.00, 446.2, 376.8)">j</text><text xml:space="preserve" font-family="Monaco,Monaco" font-size="36.0" fill="#FEFFFF" transform="matrix(1.00, 0.00, -0.00, -1.00, 467.8, 376.8)">Q</text><text xml:space="preserve" font-family="Monaco,Monaco" font-size="36.0" fill="#FEFFFF" transform="matrix(1.00, 0.00, -0.00, -1.00, 489.4, 376.8)">u</text><text xml:space="preserve" font-family="Monaco,Monaco" font-size="36.0" fill="#FEFFFF" transform="matrix(1.00, 0.00, -0.00, -1.00, 511.0, 376.8)">e</text><text xml:space="preserve" font-family="Monaco,Monaco" font-size="36.0" fill="#FEFFFF" transform="matrix(1.00, 0.00, -0.00, -1.00, 532.6, 376.8)">r</text><text xml:space="preserve" font-family="Monaco,Monaco" font-size="36.0" fill="#FEFFFF" transform="matrix(1.00, 0.00, -0.00, -1.00, 554.2, 376.8)">y</text><text xml:space="preserve" font-family="Monaco,Monaco" font-size="36.0" fill="#FEFFFF" transform="matrix(1.00, 0.00, -0.00, -1.00, 478.6, 149.8)">D</text><text xml:space="preserve" font-family="Monaco,Monaco" font-size="36.0" fill="#FEFFFF" transform="matrix(1.00, 0.00, -0.00, -1.00, 500.2, 149.8)">O</text><text xml:space="preserve" font-family="Monaco,Monaco" font-size="36.0" fill="#FEFFFF" transform="matrix(1.00, 0.00, -0.00, -1.00, 521.8, 149.8)">M</text><text xml:space="preserve" font-family="MyriadPro-It,Myriad Pro" font-style="italic" font-size="24.0" fill="#FEFFFF" transform="matrix(1.00, 0.00, -0.00, -1.00, 247.3, 427.2)">$</text><text xml:space="preserve" font-family="MyriadPro-It,Myriad Pro" font-style="italic" font-size="24.0" fill="#FEFFFF" transform="matrix(1.00, 0.00, -0.00, -1.00, 259.1, 427.2)">(</text><text xml:space="preserve" font-family="MyriadPro-It,Myriad Pro" font-style="italic" font-size="24.0" fill="#FEFFFF" transform="matrix(1.00, 0.00, -0.00, -1.00, 265.9, 427.2)">…</text><text xml:space="preserve" font-family="MyriadPro-It,Myriad Pro" font-style="italic" font-size="24.0" fill="#FEFFFF" transform="matrix(1.00, 0.00, -0.00, -1.00, 289.9, 427.2)">)</text><text xml:space="preserve" font-family="MyriadPro-It,Myriad Pro" font-style="italic" font-size="24.0" fill="#FEFFFF" transform="matrix(1.00, 0.00, -0.00, -1.00, 289.3, 360.4)">$</text><text xml:space="preserve" font-family="MyriadPro-It,Myriad Pro" font-style="italic" font-size="24.0" fill="#FEFFFF" transform="matrix(1.00, 0.00, -0.00, -1.00, 301.1, 360.4)">(</text><text xml:space="preserve" font-family="MyriadPro-It,Myriad Pro" font-style="italic" font-size="24.0" fill="#FEFFFF" transform="matrix(1.00, 0.00, -0.00, -1.00, 307.9, 360.4)">…</text><text xml:space="preserve" font-family="MyriadPro-It,Myriad Pro" font-style="italic" font-size="24.0" fill="#FEFFFF" transform="matrix(1.00, 0.00, -0.00, -1.00, 331.9, 360.4)">)</text><text xml:space="preserve" font-family="MyriadPro-It,Myriad Pro" font-style="italic" font-size="24.0" fill="#FEFFFF" transform="matrix(1.00, 0.00, -0.00, -1.00, 379.3, 427.2)">$</text><text xml:space="preserve" font-family="MyriadPro-It,Myriad Pro" font-style="italic" font-size="24.0" fill="#FEFFFF" transform="matrix(1.00, 0.00, -0.00, -1.00, 391.1, 427.2)">(</text><text xml:space="preserve" font-family="MyriadPro-It,Myriad Pro" font-style="italic" font-size="24.0" fill="#FEFFFF" transform="matrix(1.00, 0.00, -0.00, -1.00, 397.9, 427.2)">…</text><text xml:space="preserve" font-family="MyriadPro-It,Myriad Pro" font-style="italic" font-size="24.0" fill="#FEFFFF" transform="matrix(1.00, 0.00, -0.00, -1.00, 421.9, 427.2)">)</text><text xml:space="preserve" font-family="MyriadPro-It,Myriad Pro" font-style="italic" font-size="24.0" fill="#FEFFFF" transform="matrix(1.00, 0.00, -0.00, -1.00, 614.3, 427.2)">$</text><text xml:space="preserve" font-family="MyriadPro-It,Myriad Pro" font-style="italic" font-size="24.0" fill="#FEFFFF" transform="matrix(1.00, 0.00, -0.00, -1.00, 626.1, 427.2)">(</text><text xml:space="preserve" font-family="MyriadPro-It,Myriad Pro" font-style="italic" font-size="24.0" fill="#FEFFFF" transform="matrix(1.00, 0.00, -0.00, -1.00, 632.9, 427.2)">…</text><text xml:space="preserve" font-family="MyriadPro-It,Myriad Pro" font-style="italic" font-size="24.0" fill="#FEFFFF" transform="matrix(1.00, 0.00, -0.00, -1.00, 656.9, 427.2)">)</text><text xml:space="preserve" font-family="MyriadPro-It,Myriad Pro" font-style="italic" font-size="24.0" fill="#FEFFFF" transform="matrix(1.00, 0.00, -0.00, -1.00, 523.3, 330.2)">$</text><text xml:space="preserve" font-family="MyriadPro-It,Myriad Pro" font-style="italic" font-size="24.0" fill="#FEFFFF" transform="matrix(1.00, 0.00, -0.00, -1.00, 535.1, 330.2)">(</text><text xml:space="preserve" font-family="MyriadPro-It,Myriad Pro" font-style="italic" font-size="24.0" fill="#FEFFFF" transform="matrix(1.00, 0.00, -0.00, -1.00, 541.9, 330.2)">…</text><text xml:space="preserve" font-family="MyriadPro-It,Myriad Pro" font-style="italic" font-size="24.0" fill="#FEFFFF" transform="matrix(1.00, 0.00, -0.00, -1.00, 565.9, 330.2)">)</text><text xml:space="preserve" font-family="MyriadPro-It,Myriad Pro" font-style="italic" font-size="24.0" fill="#FEFFFF" transform="matrix(1.00, 0.00, -0.00, -1.00, 720.3, 360.4)">$</text><text xml:space="preserve" font-family="MyriadPro-It,Myriad Pro" font-style="italic" font-size="24.0" fill="#FEFFFF" transform="matrix(1.00, 0.00, -0.00, -1.00, 732.1, 360.4)">(</text><text xml:space="preserve" font-family="MyriadPro-It,Myriad Pro" font-style="italic" font-size="24.0" fill="#FEFFFF" transform="matrix(1.00, 0.00, -0.00, -1.00, 738.9, 360.4)">…</text><text xml:space="preserve" font-family="MyriadPro-It,Myriad Pro" font-style="italic" font-size="24.0" fill="#FEFFFF" transform="matrix(1.00, 0.00, -0.00, -1.00, 762.9, 360.4)">)</text><path d="M 0.2 -0.1 L 43.4 -0.1 L 44.2 -0.1 " fill="none" stroke="#E7A432" stroke-width="2.00" transform="matrix(0.00, -1.00, -1.00, 0.00, 436.9, 285.2)"></path><path d="M 432.2 242.0 L 437.0 232.4 L 441.8 242.0 Z M 432.2 242.0 " fill="#E7A432"></path><text xml:space="preserve" font-family="Monaco,Monaco" font-size="24.0" fill="#000000" transform="matrix(1.00, 0.00, -0.00, -1.00, 234.8, 249.8)">m</text><text xml:space="preserve" font-family="Monaco,Monaco" font-size="24.0" fill="#000000" transform="matrix(1.00, 0.00, -0.00, -1.00, 249.2, 249.8)">a</text><text xml:space="preserve" font-family="Monaco,Monaco" font-size="24.0" fill="#000000" transform="matrix(1.00, 0.00, -0.00, -1.00, 263.6, 249.8)">n</text><text xml:space="preserve" font-family="Monaco,Monaco" font-size="24.0" fill="#000000" transform="matrix(1.00, 0.00, -0.00, -1.00, 278.0, 249.8)">i</text><text xml:space="preserve" font-family="Monaco,Monaco" font-size="24.0" fill="#000000" transform="matrix(1.00, 0.00, -0.00, -1.00, 292.4, 249.8)">p</text><text xml:space="preserve" font-family="Monaco,Monaco" font-size="24.0" fill="#000000" transform="matrix(1.00, 0.00, -0.00, -1.00, 306.8, 249.8)">u</text><text xml:space="preserve" font-family="Monaco,Monaco" font-size="24.0" fill="#000000" transform="matrix(1.00, 0.00, -0.00, -1.00, 321.2, 249.8)">l</text><text xml:space="preserve" font-family="Monaco,Monaco" font-size="24.0" fill="#000000" transform="matrix(1.00, 0.00, -0.00, -1.00, 335.6, 249.8)">a</text><text xml:space="preserve" font-family="Monaco,Monaco" font-size="24.0" fill="#000000" transform="matrix(1.00, 0.00, -0.00, -1.00, 350.0, 249.8)">ç</text><text xml:space="preserve" font-family="Monaco,Monaco" font-size="24.0" fill="#000000" transform="matrix(1.00, 0.00, -0.00, -1.00, 364.4, 249.8)">ã</text><text xml:space="preserve" font-family="Monaco,Monaco" font-size="24.0" fill="#000000" transform="matrix(1.00, 0.00, -0.00, -1.00, 378.8, 249.8)">o</text><path d="M -0.3 -0.1 L 41.4 -0.1 L 42.7 -0.1 " fill="none" stroke="#E7A432" stroke-width="2.00" transform="matrix(0.00, 1.00, 1.00, 0.00, 587.1, 232.3)"></path><path d="M 591.8 274.0 L 587.0 283.6 L 582.2 274.0 Z M 591.8 274.0 " fill="#E7A432"></path><text xml:space="preserve" font-family="Monaco,Monaco" font-size="24.0" fill="#000000" transform="matrix(1.00, 0.00, -0.00, -1.00, 681.2, 249.8)">c</text><text xml:space="preserve" font-family="Monaco,Monaco" font-size="24.0" fill="#000000" transform="matrix(1.00, 0.00, -0.00, -1.00, 695.6, 249.8)">a</text><text xml:space="preserve" font-family="Monaco,Monaco" font-size="24.0" fill="#000000" transform="matrix(1.00, 0.00, -0.00, -1.00, 710.0, 249.8)">o</text><text xml:space="preserve" font-family="Monaco,Monaco" font-size="24.0" fill="#000000" transform="matrix(1.00, 0.00, -0.00, -1.00, 724.4, 249.8)">s</text></g></svg>