<?xml version="1.0" encoding="UTF-8" standalone="no"?><svg xmlns="http://www.w3.org/2000/svg" xmlns:xlink="http://www.w3.org/1999/xlink" clip-rule="evenodd" stroke-miterlimit="10" viewBox="0 0 1024 768"><desc>SVG generated by Keynote</desc><defs></defs><g transform="matrix(1.00, 0.00, -0.00, -1.00, 0.0, 768.0)"><path d="M 0.0 768.0 L 1024.0 768.0 L 1024.0 0.0 L 0.0 0.0 Z M 0.0 768.0 " fill="#F4F4F4"></path><text xml:space="preserve" font-family="Monaco,Monaco" font-size="80.0" fill="#000000" transform="matrix(1.00, 0.00, -0.00, -1.00, 199.9, 567.8)">D</text><text xml:space="preserve" font-family="Monaco,Monaco" font-size="80.0" fill="#000000" transform="matrix(1.00, 0.00, -0.00, -1.00, 248.0, 567.8)">O</text><text xml:space="preserve" font-family="Monaco,Monaco" font-size="80.0" fill="#000000" transform="matrix(1.00, 0.00, -0.00, -1.00, 296.0, 567.8)">M</text><text xml:space="preserve" font-family="Monaco,Monaco" font-size="80.0" fill="#000000" transform="matrix(1.00, 0.00, -0.00, -1.00, 344.0, 567.8)"> </text><text xml:space="preserve" font-family="Monaco,Monaco" font-size="80.0" fill="#000000" transform="matrix(1.00, 0.00, -0.00, -1.00, 392.0, 567.8)">s</text><text xml:space="preserve" font-family="Monaco,Monaco" font-size="80.0" fill="#000000" transform="matrix(1.00, 0.00, -0.00, -1.00, 440.0, 567.8)">e</text><text xml:space="preserve" font-family="Monaco,Monaco" font-size="80.0" fill="#000000" transform="matrix(1.00, 0.00, -0.00, -1.00, 488.0, 567.8)">g</text><text xml:space="preserve" font-family="Monaco,Monaco" font-size="80.0" fill="#000000" transform="matrix(1.00, 0.00, -0.00, -1.00, 536.1, 567.8)">r</text><text xml:space="preserve" font-family="Monaco,Monaco" font-size="80.0" fill="#000000" transform="matrix(1.00, 0.00, -0.00, -1.00, 584.1, 567.8)">e</text><text xml:space="preserve" font-family="Monaco,Monaco" font-size="80.0" fill="#000000" transform="matrix(1.00, 0.00, -0.00, -1.00, 632.1, 567.8)">g</text><text xml:space="preserve" font-family="Monaco,Monaco" font-size="80.0" fill="#000000" transform="matrix(1.00, 0.00, -0.00, -1.00, 680.1, 567.8)">a</text><text xml:space="preserve" font-family="Monaco,Monaco" font-size="80.0" fill="#000000" transform="matrix(1.00, 0.00, -0.00, -1.00, 728.1, 567.8)">d</text><text xml:space="preserve" font-family="Monaco,Monaco" font-size="80.0" fill="#000000" transform="matrix(1.00, 0.00, -0.00, -1.00, 776.1, 567.8)">o</text><text xml:space="preserve" font-family="Monaco,Monaco" font-size="80.0" fill="#000000" transform="matrix(1.00, 0.00, -0.00, -1.00, 175.9, 353.8)">i</text><text xml:space="preserve" font-family="Monaco,Monaco" font-size="80.0" fill="#000000" transform="matrix(1.00, 0.00, -0.00, -1.00, 224.0, 353.8)">d</text><text xml:space="preserve" font-family="Monaco,Monaco" font-size="80.0" fill="#000000" transform="matrix(1.00, 0.00, -0.00, -1.00, 272.0, 353.8)">s</text><text xml:space="preserve" font-family="Monaco,Monaco" font-size="80.0" fill="#000000" transform="matrix(1.00, 0.00, -0.00, -1.00, 320.0, 353.8)">,</text><text xml:space="preserve" font-family="Monaco,Monaco" font-size="80.0" fill="#000000" transform="matrix(1.00, 0.00, -0.00, -1.00, 368.0, 353.8)"> </text><text xml:space="preserve" font-family="Monaco,Monaco" font-size="80.0" fill="#000000" transform="matrix(1.00, 0.00, -0.00, -1.00, 416.0, 353.8)">c</text><text xml:space="preserve" font-family="Monaco,Monaco" font-size="80.0" fill="#000000" transform="matrix(1.00, 0.00, -0.00, -1.00, 464.0, 353.8)">l</text><text xml:space="preserve" font-family="Monaco,Monaco" font-size="80.0" fill="#000000" transform="matrix(1.00, 0.00, -0.00, -1.00, 512.1, 353.8)">a</text><text xml:space="preserve" font-family="Monaco,Monaco" font-size="80.0" fill="#000000" transform="matrix(1.00, 0.00, -0.00, -1.00, 560.1, 353.8)">s</text><text xml:space="preserve" font-family="Monaco,Monaco" font-size="80.0" fill="#000000" transform="matrix(1.00, 0.00, -0.00, -1.00, 608.1, 353.8)">s</text><text xml:space="preserve" font-family="Monaco,Monaco" font-size="80.0" fill="#000000" transform="matrix(1.00, 0.00, -0.00, -1.00, 656.1, 353.8)">e</text><text xml:space="preserve" font-family="Monaco,Monaco" font-size="80.0" fill="#000000" transform="matrix(1.00, 0.00, -0.00, -1.00, 704.1, 353.8)">s</text><text xml:space="preserve" font-family="Monaco,Monaco" font-size="80.0" fill="#000000" transform="matrix(1.00, 0.00, -0.00, -1.00, 752.1, 353.8)"> </text><text xml:space="preserve" font-family="Monaco,Monaco" font-size="80.0" fill="#000000" transform="matrix(1.00, 0.00, -0.00, -1.00, 800.2, 353.8)">e</text><text xml:space="preserve" font-family="Monaco,Monaco" font-size="80.0" fill="#000000" transform="matrix(1.00, 0.00, -0.00, -1.00, 848.2, 353.8)"> </text><text xml:space="preserve" font-family="Monaco,Monaco" font-size="80.0" fill="#000000" transform="matrix(1.00, 0.00, -0.00, -1.00, 296.0, 246.8)">s</text><text xml:space="preserve" font-family="Monaco,Monaco" font-size="80.0" fill="#000000" transform="matrix(1.00, 0.00, -0.00, -1.00, 344.0, 246.8)">e</text><text xml:space="preserve" font-family="Monaco,Monaco" font-size="80.0" fill="#000000" transform="matrix(1.00, 0.00, -0.00, -1.00, 392.0, 246.8)">l</text><text xml:space="preserve" font-family="Monaco,Monaco" font-size="80.0" fill="#000000" transform="matrix(1.00, 0.00, -0.00, -1.00, 440.0, 246.8)">e</text><text xml:space="preserve" font-family="Monaco,Monaco" font-size="80.0" fill="#000000" transform="matrix(1.00, 0.00, -0.00, -1.00, 488.0, 246.8)">t</text><text xml:space="preserve" font-family="Monaco,Monaco" font-size="80.0" fill="#000000" transform="matrix(1.00, 0.00, -0.00, -1.00, 536.0, 246.8)">o</text><text xml:space="preserve" font-family="Monaco,Monaco" font-size="80.0" fill="#000000" transform="matrix(1.00, 0.00, -0.00, -1.00, 584.1, 246.8)">r</text><text xml:space="preserve" font-family="Monaco,Monaco" font-size="80.0" fill="#000000" transform="matrix(1.00, 0.00, -0.00, -1.00, 632.1, 246.8)">e</text><text xml:space="preserve" font-family="Monaco,Monaco" font-size="80.0" fill="#000000" transform="matrix(1.00, 0.00, -0.00, -1.00, 680.1, 246.8)">s</text><text xml:space="preserve" font-family="Monaco,Monaco" font-size="80.0" fill="#000000" transform="matrix(1.00, 0.00, -0.00, -1.00, 728.1, 246.8)"> </text><text xml:space="preserve" font-family="Monaco,Monaco" font-size="80.0" fill="#000000" transform="matrix(1.00, 0.00, -0.00, -1.00, 199.9, 139.8)">c</text><text xml:space="preserve" font-family="Monaco,Monaco" font-size="80.0" fill="#000000" transform="matrix(1.00, 0.00, -0.00, -1.00, 248.0, 139.8)">e</text><text xml:space="preserve" font-family="Monaco,Monaco" font-size="80.0" fill="#000000" transform="matrix(1.00, 0.00, -0.00, -1.00, 296.0, 139.8)">n</text><text xml:space="preserve" font-family="Monaco,Monaco" font-size="80.0" fill="#000000" transform="matrix(1.00, 0.00, -0.00, -1.00, 344.0, 139.8)">t</text><text xml:space="preserve" font-family="Monaco,Monaco" font-size="80.0" fill="#000000" transform="matrix(1.00, 0.00, -0.00, -1.00, 392.0, 139.8)">r</text><text xml:space="preserve" font-family="Monaco,Monaco" font-size="80.0" fill="#000000" transform="matrix(1.00, 0.00, -0.00, -1.00, 440.0, 139.8)">a</text><text xml:space="preserve" font-family="Monaco,Monaco" font-size="80.0" fill="#000000" transform="matrix(1.00, 0.00, -0.00, -1.00, 488.0, 139.8)">l</text><text xml:space="preserve" font-family="Monaco,Monaco" font-size="80.0" fill="#000000" transform="matrix(1.00, 0.00, -0.00, -1.00, 536.1, 139.8)">i</text><text xml:space="preserve" font-family="Monaco,Monaco" font-size="80.0" fill="#000000" transform="matrix(1.00, 0.00, -0.00, -1.00, 584.1, 139.8)">z</text><text xml:space="preserve" font-family="Monaco,Monaco" font-size="80.0" fill="#000000" transform="matrix(1.00, 0.00, -0.00, -1.00, 632.1, 139.8)">a</text><text xml:space="preserve" font-family="Monaco,Monaco" font-size="80.0" fill="#000000" transform="matrix(1.00, 0.00, -0.00, -1.00, 680.1, 139.8)">d</text><text xml:space="preserve" font-family="Monaco,Monaco" font-size="80.0" fill="#000000" transform="matrix(1.00, 0.00, -0.00, -1.00, 728.1, 139.8)">o</text><text xml:space="preserve" font-family="Monaco,Monaco" font-size="80.0" fill="#000000" transform="matrix(1.00, 0.00, -0.00, -1.00, 776.1, 139.8)">s</text></g></svg>