<?xml version="1.0" encoding="UTF-8" standalone="no"?><svg xmlns="http://www.w3.org/2000/svg" xmlns:xlink="http://www.w3.org/1999/xlink" clip-rule="evenodd" stroke-miterlimit="10" viewBox="0 0 1024 768"><desc>SVG generated by Keynote</desc><defs></defs><g transform="matrix(1.00, 0.00, -0.00, -1.00, 0.0, 768.0)"><path d="M 0.0 768.0 L 1024.0 768.0 L 1024.0 0.0 L 0.0 0.0 Z M 0.0 768.0 " fill="#F4F4F4"></path><text xml:space="preserve" font-family="Monaco,Monaco" font-size="72.0" fill="#000000" transform="matrix(1.00, 0.00, -0.00, -1.00, 296.0, 595.1)">é</text><text xml:space="preserve" font-family="Monaco,Monaco" font-size="72.0" fill="#000000" transform="matrix(1.00, 0.00, -0.00, -1.00, 339.2, 595.1)"> </text><text xml:space="preserve" font-family="Monaco,Monaco" font-size="72.0" fill="#000000" transform="matrix(1.00, 0.00, -0.00, -1.00, 382.4, 595.1)">i</text><text xml:space="preserve" font-family="Monaco,Monaco" font-size="72.0" fill="#000000" transform="matrix(1.00, 0.00, -0.00, -1.00, 425.6, 595.1)">s</text><text xml:space="preserve" font-family="Monaco,Monaco" font-size="72.0" fill="#000000" transform="matrix(1.00, 0.00, -0.00, -1.00, 468.8, 595.1)">s</text><text xml:space="preserve" font-family="Monaco,Monaco" font-size="72.0" fill="#000000" transform="matrix(1.00, 0.00, -0.00, -1.00, 512.0, 595.1)">o</text><text xml:space="preserve" font-family="Monaco,Monaco" font-size="72.0" fill="#000000" transform="matrix(1.00, 0.00, -0.00, -1.00, 555.3, 595.1)"> </text><text xml:space="preserve" font-family="Monaco,Monaco" font-size="72.0" fill="#000000" transform="matrix(1.00, 0.00, -0.00, -1.00, 598.5, 595.1)">a</text><text xml:space="preserve" font-family="Monaco,Monaco" font-size="72.0" fill="#000000" transform="matrix(1.00, 0.00, -0.00, -1.00, 641.7, 595.1)">í</text><text xml:space="preserve" font-family="Monaco,Monaco" font-size="72.0" fill="#000000" transform="matrix(1.00, 0.00, -0.00, -1.00, 684.9, 595.1)">!</text><text xml:space="preserve" font-family="Monaco,Monaco" font-size="42.0" fill="#000000" transform="matrix(1.00, 0.00, -0.00, -1.00, 310.4, 309.9)">L</text><text xml:space="preserve" font-family="Monaco,Monaco" font-size="42.0" fill="#000000" transform="matrix(1.00, 0.00, -0.00, -1.00, 335.6, 309.9)">u</text><text xml:space="preserve" font-family="Monaco,Monaco" font-size="42.0" fill="#000000" transform="matrix(1.00, 0.00, -0.00, -1.00, 360.8, 309.9)">c</text><text xml:space="preserve" font-family="Monaco,Monaco" font-size="42.0" fill="#000000" transform="matrix(1.00, 0.00, -0.00, -1.00, 386.0, 309.9)">i</text><text xml:space="preserve" font-family="Monaco,Monaco" font-size="42.0" fill="#000000" transform="matrix(1.00, 0.00, -0.00, -1.00, 411.2, 309.9)">a</text><text xml:space="preserve" font-family="Monaco,Monaco" font-size="42.0" fill="#000000" transform="matrix(1.00, 0.00, -0.00, -1.00, 436.4, 309.9)">n</text><text xml:space="preserve" font-family="Monaco,Monaco" font-size="42.0" fill="#000000" transform="matrix(1.00, 0.00, -0.00, -1.00, 461.6, 309.9)">o</text><text xml:space="preserve" font-family="Monaco,Monaco" font-size="42.0" fill="#000000" transform="matrix(1.00, 0.00, -0.00, -1.00, 486.8, 309.9)"> </text><text xml:space="preserve" font-family="Monaco,Monaco" font-size="42.0" fill="#000000" transform="matrix(1.00, 0.00, -0.00, -1.00, 512.0, 309.9)">R</text><text xml:space="preserve" font-family="Monaco,Monaco" font-size="42.0" fill="#000000" transform="matrix(1.00, 0.00, -0.00, -1.00, 537.2, 309.9)">a</text><text xml:space="preserve" font-family="Monaco,Monaco" font-size="42.0" fill="#000000" transform="matrix(1.00, 0.00, -0.00, -1.00, 562.5, 309.9)">t</text><text xml:space="preserve" font-family="Monaco,Monaco" font-size="42.0" fill="#000000" transform="matrix(1.00, 0.00, -0.00, -1.00, 587.7, 309.9)">a</text><text xml:space="preserve" font-family="Monaco,Monaco" font-size="42.0" fill="#000000" transform="matrix(1.00, 0.00, -0.00, -1.00, 612.9, 309.9)">m</text><text xml:space="preserve" font-family="Monaco,Monaco" font-size="42.0" fill="#000000" transform="matrix(1.00, 0.00, -0.00, -1.00, 638.1, 309.9)">e</text><text xml:space="preserve" font-family="Monaco,Monaco" font-size="42.0" fill="#000000" transform="matrix(1.00, 0.00, -0.00, -1.00, 663.3, 309.9)">r</text><text xml:space="preserve" font-family="Monaco,Monaco" font-size="42.0" fill="#000000" transform="matrix(1.00, 0.00, -0.00, -1.00, 688.5, 309.9)">o</text><text xml:space="preserve" font-family="Monaco,Monaco" font-size="42.0" fill="#000000" transform="matrix(1.00, 0.00, -0.00, -1.00, 260.0, 234.0)">l</text><text xml:space="preserve" font-family="Monaco,Monaco" font-size="42.0" fill="#000000" transform="matrix(1.00, 0.00, -0.00, -1.00, 285.2, 234.0)">u</text><text xml:space="preserve" font-family="Monaco,Monaco" font-size="42.0" fill="#000000" transform="matrix(1.00, 0.00, -0.00, -1.00, 310.4, 234.0)">c</text><text xml:space="preserve" font-family="Monaco,Monaco" font-size="42.0" fill="#000000" transform="matrix(1.00, 0.00, -0.00, -1.00, 335.6, 234.0)">i</text><text xml:space="preserve" font-family="Monaco,Monaco" font-size="42.0" fill="#000000" transform="matrix(1.00, 0.00, -0.00, -1.00, 360.8, 234.0)">a</text><text xml:space="preserve" font-family="Monaco,Monaco" font-size="42.0" fill="#000000" transform="matrix(1.00, 0.00, -0.00, -1.00, 386.0, 234.0)">n</text><text xml:space="preserve" font-family="Monaco,Monaco" font-size="42.0" fill="#000000" transform="matrix(1.00, 0.00, -0.00, -1.00, 411.2, 234.0)">o</text><text xml:space="preserve" font-family="Monaco,Monaco" font-size="42.0" fill="#000000" transform="matrix(1.00, 0.00, -0.00, -1.00, 436.4, 234.0)">@</text><text xml:space="preserve" font-family="Monaco,Monaco" font-size="42.0" fill="#000000" transform="matrix(1.00, 0.00, -0.00, -1.00, 461.6, 234.0)">r</text><text xml:space="preserve" font-family="Monaco,Monaco" font-size="42.0" fill="#000000" transform="matrix(1.00, 0.00, -0.00, -1.00, 486.8, 234.0)">a</text><text xml:space="preserve" font-family="Monaco,Monaco" font-size="42.0" fill="#000000" transform="matrix(1.00, 0.00, -0.00, -1.00, 512.0, 234.0)">t</text><text xml:space="preserve" font-family="Monaco,Monaco" font-size="42.0" fill="#000000" transform="matrix(1.00, 0.00, -0.00, -1.00, 537.3, 234.0)">a</text><text xml:space="preserve" font-family="Monaco,Monaco" font-size="42.0" fill="#000000" transform="matrix(1.00, 0.00, -0.00, -1.00, 562.5, 234.0)">m</text><text xml:space="preserve" font-family="Monaco,Monaco" font-size="42.0" fill="#000000" transform="matrix(1.00, 0.00, -0.00, -1.00, 587.7, 234.0)">e</text><text xml:space="preserve" font-family="Monaco,Monaco" font-size="42.0" fill="#000000" transform="matrix(1.00, 0.00, -0.00, -1.00, 612.9, 234.0)">r</text><text xml:space="preserve" font-family="Monaco,Monaco" font-size="42.0" fill="#000000" transform="matrix(1.00, 0.00, -0.00, -1.00, 638.1, 234.0)">o</text><text xml:space="preserve" font-family="Monaco,Monaco" font-size="42.0" fill="#000000" transform="matrix(1.00, 0.00, -0.00, -1.00, 663.3, 234.0)">.</text><text xml:space="preserve" font-family="Monaco,Monaco" font-size="42.0" fill="#000000" transform="matrix(1.00, 0.00, -0.00, -1.00, 688.5, 234.0)">c</text><text xml:space="preserve" font-family="Monaco,Monaco" font-size="42.0" fill="#000000" transform="matrix(1.00, 0.00, -0.00, -1.00, 713.7, 234.0)">o</text><text xml:space="preserve" font-family="Monaco,Monaco" font-size="42.0" fill="#000000" transform="matrix(1.00, 0.00, -0.00, -1.00, 738.9, 234.0)">m</text><g><clipPath id="clip0x7fda3099e100"><path d="M 259.0 229.8 L 764.0 229.8 L 764.0 235.0 L 259.0 235.0 Z M 259.0 229.8 "></path></clipPath><g clip-path="url(#clip0x7fda3099e100)"><path d="M 167.9 48.6 L 671.9 48.6 " fill="none" stroke="#000000" stroke-width="3.18" transform="matrix(1.00, 0.00, 0.00, -1.00, 92.1, 281.0)"></path></g></g><image xlink:href="../../C1B82DAB-6A0D-4C40-8494-A57FC3591F1B/assets/245C4716525E578BCA65FFAF99D94E54.png" width="1156.00" height="1228.00" transform="matrix(0.15, 0.00, -0.00, -0.15, 424.0, 558.0)"></image><text xml:space="preserve" font-family="Monaco,Monaco" font-size="32.0" fill="#000000" transform="matrix(1.00, 0.00, -0.00, -1.00, 59.8, 168.7)">f</text><text xml:space="preserve" font-family="Monaco,Monaco" font-size="32.0" fill="#000000" transform="matrix(1.00, 0.00, -0.00, -1.00, 79.0, 168.7)">b</text><text xml:space="preserve" font-family="Monaco,Monaco" font-size="32.0" fill="#000000" transform="matrix(1.00, 0.00, -0.00, -1.00, 98.2, 168.7)">:</text><text xml:space="preserve" font-family="Monaco,Monaco" font-size="32.0" fill="#000000" transform="matrix(1.00, 0.00, -0.00, -1.00, 117.4, 168.7)"> </text><text xml:space="preserve" font-family="Monaco,Monaco" font-size="32.0" fill="#000000" transform="matrix(1.00, 0.00, -0.00, -1.00, 136.6, 168.7)">l</text><text xml:space="preserve" font-family="Monaco,Monaco" font-size="32.0" fill="#000000" transform="matrix(1.00, 0.00, -0.00, -1.00, 155.8, 168.7)">u</text><text xml:space="preserve" font-family="Monaco,Monaco" font-size="32.0" fill="#000000" transform="matrix(1.00, 0.00, -0.00, -1.00, 175.0, 168.7)">c</text><text xml:space="preserve" font-family="Monaco,Monaco" font-size="32.0" fill="#000000" transform="matrix(1.00, 0.00, -0.00, -1.00, 194.2, 168.7)">i</text><text xml:space="preserve" font-family="Monaco,Monaco" font-size="32.0" fill="#000000" transform="matrix(1.00, 0.00, -0.00, -1.00, 213.4, 168.7)">a</text><text xml:space="preserve" font-family="Monaco,Monaco" font-size="32.0" fill="#000000" transform="matrix(1.00, 0.00, -0.00, -1.00, 232.6, 168.7)">n</text><text xml:space="preserve" font-family="Monaco,Monaco" font-size="32.0" fill="#000000" transform="matrix(1.00, 0.00, -0.00, -1.00, 251.8, 168.7)">o</text><text xml:space="preserve" font-family="Monaco,Monaco" font-size="32.0" fill="#000000" transform="matrix(1.00, 0.00, -0.00, -1.00, 271.0, 168.7)">r</text><text xml:space="preserve" font-family="Monaco,Monaco" font-size="32.0" fill="#000000" transform="matrix(1.00, 0.00, -0.00, -1.00, 290.2, 168.7)">a</text><text xml:space="preserve" font-family="Monaco,Monaco" font-size="32.0" fill="#000000" transform="matrix(1.00, 0.00, -0.00, -1.00, 309.4, 168.7)">t</text><text xml:space="preserve" font-family="Monaco,Monaco" font-size="32.0" fill="#000000" transform="matrix(1.00, 0.00, -0.00, -1.00, 328.7, 168.7)">a</text><text xml:space="preserve" font-family="Monaco,Monaco" font-size="32.0" fill="#000000" transform="matrix(1.00, 0.00, -0.00, -1.00, 347.9, 168.7)">m</text><text xml:space="preserve" font-family="Monaco,Monaco" font-size="32.0" fill="#000000" transform="matrix(1.00, 0.00, -0.00, -1.00, 367.1, 168.7)">e</text><text xml:space="preserve" font-family="Monaco,Monaco" font-size="32.0" fill="#000000" transform="matrix(1.00, 0.00, -0.00, -1.00, 386.3, 168.7)">r</text><text xml:space="preserve" font-family="Monaco,Monaco" font-size="32.0" fill="#000000" transform="matrix(1.00, 0.00, -0.00, -1.00, 405.5, 168.7)">o</text><text xml:space="preserve" font-family="Monaco,Monaco" font-size="32.0" fill="#000000" transform="matrix(1.00, 0.00, -0.00, -1.00, 484.2, 168.7)">t</text><text xml:space="preserve" font-family="Monaco,Monaco" font-size="32.0" fill="#000000" transform="matrix(1.00, 0.00, -0.00, -1.00, 503.4, 168.7)">w</text><text xml:space="preserve" font-family="Monaco,Monaco" font-size="32.0" fill="#000000" transform="matrix(1.00, 0.00, -0.00, -1.00, 522.6, 168.7)">i</text><text xml:space="preserve" font-family="Monaco,Monaco" font-size="32.0" fill="#000000" transform="matrix(1.00, 0.00, -0.00, -1.00, 541.8, 168.7)">t</text><text xml:space="preserve" font-family="Monaco,Monaco" font-size="32.0" fill="#000000" transform="matrix(1.00, 0.00, -0.00, -1.00, 561.0, 168.7)">t</text><text xml:space="preserve" font-family="Monaco,Monaco" font-size="32.0" fill="#000000" transform="matrix(1.00, 0.00, -0.00, -1.00, 580.2, 168.7)">e</text><text xml:space="preserve" font-family="Monaco,Monaco" font-size="32.0" fill="#000000" transform="matrix(1.00, 0.00, -0.00, -1.00, 599.4, 168.7)">r</text><text xml:space="preserve" font-family="Monaco,Monaco" font-size="32.0" fill="#000000" transform="matrix(1.00, 0.00, -0.00, -1.00, 618.6, 168.7)">:</text><text xml:space="preserve" font-family="Monaco,Monaco" font-size="32.0" fill="#000000" transform="matrix(1.00, 0.00, -0.00, -1.00, 637.8, 168.7)"> </text><text xml:space="preserve" font-family="Monaco,Monaco" font-size="32.0" fill="#000000" transform="matrix(1.00, 0.00, -0.00, -1.00, 657.0, 168.7)">@</text><text xml:space="preserve" font-family="Monaco,Monaco" font-size="32.0" fill="#000000" transform="matrix(1.00, 0.00, -0.00, -1.00, 676.2, 168.7)">l</text><text xml:space="preserve" font-family="Monaco,Monaco" font-size="32.0" fill="#000000" transform="matrix(1.00, 0.00, -0.00, -1.00, 695.4, 168.7)">u</text><text xml:space="preserve" font-family="Monaco,Monaco" font-size="32.0" fill="#000000" transform="matrix(1.00, 0.00, -0.00, -1.00, 714.6, 168.7)">c</text><text xml:space="preserve" font-family="Monaco,Monaco" font-size="32.0" fill="#000000" transform="matrix(1.00, 0.00, -0.00, -1.00, 733.8, 168.7)">i</text><text xml:space="preserve" font-family="Monaco,Monaco" font-size="32.0" fill="#000000" transform="matrix(1.00, 0.00, -0.00, -1.00, 753.0, 168.7)">a</text><text xml:space="preserve" font-family="Monaco,Monaco" font-size="32.0" fill="#000000" transform="matrix(1.00, 0.00, -0.00, -1.00, 772.3, 168.7)">n</text><text xml:space="preserve" font-family="Monaco,Monaco" font-size="32.0" fill="#000000" transform="matrix(1.00, 0.00, -0.00, -1.00, 791.5, 168.7)">o</text><text xml:space="preserve" font-family="Monaco,Monaco" font-size="32.0" fill="#000000" transform="matrix(1.00, 0.00, -0.00, -1.00, 810.7, 168.7)">r</text><text xml:space="preserve" font-family="Monaco,Monaco" font-size="32.0" fill="#000000" transform="matrix(1.00, 0.00, -0.00, -1.00, 829.9, 168.7)">a</text><text xml:space="preserve" font-family="Monaco,Monaco" font-size="32.0" fill="#000000" transform="matrix(1.00, 0.00, -0.00, -1.00, 849.1, 168.7)">t</text><text xml:space="preserve" font-family="Monaco,Monaco" font-size="32.0" fill="#000000" transform="matrix(1.00, 0.00, -0.00, -1.00, 868.3, 168.7)">a</text><text xml:space="preserve" font-family="Monaco,Monaco" font-size="32.0" fill="#000000" transform="matrix(1.00, 0.00, -0.00, -1.00, 887.5, 168.7)">m</text><text xml:space="preserve" font-family="Monaco,Monaco" font-size="32.0" fill="#000000" transform="matrix(1.00, 0.00, -0.00, -1.00, 906.7, 168.7)">e</text><text xml:space="preserve" font-family="Monaco,Monaco" font-size="32.0" fill="#000000" transform="matrix(1.00, 0.00, -0.00, -1.00, 925.9, 168.7)">r</text><text xml:space="preserve" font-family="Monaco,Monaco" font-size="32.0" fill="#000000" transform="matrix(1.00, 0.00, -0.00, -1.00, 945.1, 168.7)">o</text><image xlink:href="../../63FDE3F6-E1E4-4BEC-8BAE-FAEF5D63F8B5/assets/6B6A3207FF625922FB1BACF4B22FB15F.png" width="460.00" height="154.00" transform="matrix(0.72, 0.00, -0.00, -0.71, 347.0, 142.0)"></image></g></svg>