<?xml version="1.0" encoding="UTF-8" standalone="no"?><svg xmlns="http://www.w3.org/2000/svg" xmlns:xlink="http://www.w3.org/1999/xlink" clip-rule="evenodd" stroke-miterlimit="10" viewBox="0 0 1024 768"><desc>SVG generated by Keynote</desc><defs></defs><g transform="matrix(1.00, 0.00, -0.00, -1.00, 0.0, 768.0)"><path d="M 0.0 768.0 L 1024.0 768.0 L 1024.0 0.0 L 0.0 0.0 Z M 0.0 768.0 " fill="#000000"></path><text xml:space="preserve" font-family="UbuntuMono-Regular,Ubuntu Mono" font-size="60.0" fill="#FEFFFF" transform="matrix(1.00, 0.00, -0.00, -1.00, 332.0, 640.1)">p</text><text xml:space="preserve" font-family="UbuntuMono-Regular,Ubuntu Mono" font-size="60.0" fill="#FEFFFF" transform="matrix(1.00, 0.00, -0.00, -1.00, 362.0, 640.1)">r</text><text xml:space="preserve" font-family="UbuntuMono-Regular,Ubuntu Mono" font-size="60.0" fill="#FEFFFF" transform="matrix(1.00, 0.00, -0.00, -1.00, 392.0, 640.1)">e</text><text xml:space="preserve" font-family="UbuntuMono-Regular,Ubuntu Mono" font-size="60.0" fill="#FEFFFF" transform="matrix(1.00, 0.00, -0.00, -1.00, 422.0, 640.1)">z</text><text xml:space="preserve" font-family="UbuntuMono-Regular,Ubuntu Mono" font-size="60.0" fill="#FEFFFF" transform="matrix(1.00, 0.00, -0.00, -1.00, 452.0, 640.1)">L</text><text xml:space="preserve" font-family="UbuntuMono-Regular,Ubuntu Mono" font-size="60.0" fill="#FEFFFF" transform="matrix(1.00, 0.00, -0.00, -1.00, 482.0, 640.1)">a</text><text xml:space="preserve" font-family="UbuntuMono-Regular,Ubuntu Mono" font-size="60.0" fill="#FEFFFF" transform="matrix(1.00, 0.00, -0.00, -1.00, 512.0, 640.1)">y</text><text xml:space="preserve" font-family="UbuntuMono-Regular,Ubuntu Mono" font-size="60.0" fill="#FEFFFF" transform="matrix(1.00, 0.00, -0.00, -1.00, 542.0, 640.1)">e</text><text xml:space="preserve" font-family="UbuntuMono-Regular,Ubuntu Mono" font-size="60.0" fill="#FEFFFF" transform="matrix(1.00, 0.00, -0.00, -1.00, 572.0, 640.1)">r</text><text xml:space="preserve" font-family="UbuntuMono-Regular,Ubuntu Mono" font-size="60.0" fill="#FEFFFF" transform="matrix(1.00, 0.00, -0.00, -1.00, 602.0, 640.1)">.</text><text xml:space="preserve" font-family="UbuntuMono-Regular,Ubuntu Mono" font-size="60.0" fill="#FEFFFF" transform="matrix(1.00, 0.00, -0.00, -1.00, 632.0, 640.1)">j</text><text xml:space="preserve" font-family="UbuntuMono-Regular,Ubuntu Mono" font-size="60.0" fill="#FEFFFF" transform="matrix(1.00, 0.00, -0.00, -1.00, 662.0, 640.1)">s</text><image xlink:href="../../94405372-3FF1-4EEF-A085-F39F44A0C0F4/assets/234F6D75021D8CAABAAFCD09B052CFF7.png" width="1600.00" height="806.00" transform="matrix(0.64, 0.00, -0.00, -0.64, 0.0, 590.0)"></image></g></svg>