<?xml version="1.0" encoding="UTF-8" standalone="no"?><svg xmlns="http://www.w3.org/2000/svg" xmlns:xlink="http://www.w3.org/1999/xlink" clip-rule="evenodd" stroke-miterlimit="10" viewBox="0 0 1024 768"><desc>SVG generated by Keynote</desc><defs></defs><g transform="matrix(1.00, 0.00, -0.00, -1.00, 0.0, 768.0)"><path d="M 0.0 768.0 L 1024.0 768.0 L 1024.0 0.0 L 0.0 0.0 Z M 0.0 768.0 " fill="#F4F4F4"></path><text xml:space="preserve" font-family="Monaco,Monaco" font-size="50.4" fill="#000000" transform="matrix(1.00, 0.00, -0.00, -1.00, 164.2, 600.0)">o</text><text xml:space="preserve" font-family="Monaco,Monaco" font-size="50.4" fill="#000000" transform="matrix(1.00, 0.00, -0.00, -1.00, 194.4, 600.0)"> </text><text xml:space="preserve" font-family="Monaco,Monaco" font-size="50.4" fill="#000000" transform="matrix(1.00, 0.00, -0.00, -1.00, 224.7, 600.0)">d</text><text xml:space="preserve" font-family="Monaco,Monaco" font-size="50.4" fill="#000000" transform="matrix(1.00, 0.00, -0.00, -1.00, 254.9, 600.0)">e</text><text xml:space="preserve" font-family="Monaco,Monaco" font-size="50.4" fill="#000000" transform="matrix(1.00, 0.00, -0.00, -1.00, 285.2, 600.0)">s</text><text xml:space="preserve" font-family="Monaco,Monaco" font-size="50.4" fill="#000000" transform="matrix(1.00, 0.00, -0.00, -1.00, 315.4, 600.0)">â</text><text xml:space="preserve" font-family="Monaco,Monaco" font-size="50.4" fill="#000000" transform="matrix(1.00, 0.00, -0.00, -1.00, 345.7, 600.0)">n</text><text xml:space="preserve" font-family="Monaco,Monaco" font-size="50.4" fill="#000000" transform="matrix(1.00, 0.00, -0.00, -1.00, 375.9, 600.0)">i</text><text xml:space="preserve" font-family="Monaco,Monaco" font-size="50.4" fill="#000000" transform="matrix(1.00, 0.00, -0.00, -1.00, 406.2, 600.0)">m</text><text xml:space="preserve" font-family="Monaco,Monaco" font-size="50.4" fill="#000000" transform="matrix(1.00, 0.00, -0.00, -1.00, 436.4, 600.0)">o</text><text xml:space="preserve" font-family="Monaco,Monaco" font-size="50.4" fill="#000000" transform="matrix(1.00, 0.00, -0.00, -1.00, 466.7, 600.0)"> </text><text xml:space="preserve" font-family="Monaco,Monaco" font-size="50.4" fill="#000000" transform="matrix(1.00, 0.00, -0.00, -1.00, 496.9, 600.0)">d</text><text xml:space="preserve" font-family="Monaco,Monaco" font-size="50.4" fill="#000000" transform="matrix(1.00, 0.00, -0.00, -1.00, 527.2, 600.0)">e</text><text xml:space="preserve" font-family="Monaco,Monaco" font-size="50.4" fill="#000000" transform="matrix(1.00, 0.00, -0.00, -1.00, 557.4, 600.0)"> </text><text xml:space="preserve" font-family="Monaco,Monaco" font-size="50.4" fill="#000000" transform="matrix(1.00, 0.00, -0.00, -1.00, 587.7, 600.0)">t</text><text xml:space="preserve" font-family="Monaco,Monaco" font-size="50.4" fill="#000000" transform="matrix(1.00, 0.00, -0.00, -1.00, 617.9, 600.0)">r</text><text xml:space="preserve" font-family="Monaco,Monaco" font-size="50.4" fill="#000000" transform="matrix(1.00, 0.00, -0.00, -1.00, 648.2, 600.0)">a</text><text xml:space="preserve" font-family="Monaco,Monaco" font-size="50.4" fill="#000000" transform="matrix(1.00, 0.00, -0.00, -1.00, 678.4, 600.0)">b</text><text xml:space="preserve" font-family="Monaco,Monaco" font-size="50.4" fill="#000000" transform="matrix(1.00, 0.00, -0.00, -1.00, 708.7, 600.0)">a</text><text xml:space="preserve" font-family="Monaco,Monaco" font-size="50.4" fill="#000000" transform="matrix(1.00, 0.00, -0.00, -1.00, 738.9, 600.0)">l</text><text xml:space="preserve" font-family="Monaco,Monaco" font-size="50.4" fill="#000000" transform="matrix(1.00, 0.00, -0.00, -1.00, 769.2, 600.0)">h</text><text xml:space="preserve" font-family="Monaco,Monaco" font-size="50.4" fill="#000000" transform="matrix(1.00, 0.00, -0.00, -1.00, 799.4, 600.0)">a</text><text xml:space="preserve" font-family="Monaco,Monaco" font-size="50.4" fill="#000000" transform="matrix(1.00, 0.00, -0.00, -1.00, 829.7, 600.0)">r</text><text xml:space="preserve" font-family="Monaco,Monaco" font-size="50.4" fill="#000000" transform="matrix(1.00, 0.00, -0.00, -1.00, 859.9, 600.0)"> </text><text xml:space="preserve" font-family="Monaco,Monaco" font-size="50.4" fill="#000000" transform="matrix(1.00, 0.00, -0.00, -1.00, 118.8, 533.0)">c</text><text xml:space="preserve" font-family="Monaco,Monaco" font-size="50.4" fill="#000000" transform="matrix(1.00, 0.00, -0.00, -1.00, 149.1, 533.0)">o</text><text xml:space="preserve" font-family="Monaco,Monaco" font-size="50.4" fill="#000000" transform="matrix(1.00, 0.00, -0.00, -1.00, 179.3, 533.0)">m</text><text xml:space="preserve" font-family="Monaco,Monaco" font-size="50.4" fill="#000000" transform="matrix(1.00, 0.00, -0.00, -1.00, 209.6, 533.0)"> </text><text xml:space="preserve" font-family="Monaco,Monaco" font-size="50.4" fill="#000000" transform="matrix(1.00, 0.00, -0.00, -1.00, 239.8, 533.0)">J</text><text xml:space="preserve" font-family="Monaco,Monaco" font-size="50.4" fill="#000000" transform="matrix(1.00, 0.00, -0.00, -1.00, 270.1, 533.0)">S</text><text xml:space="preserve" font-family="Monaco,Monaco" font-size="50.4" fill="#000000" transform="matrix(1.00, 0.00, -0.00, -1.00, 300.3, 533.0)"> </text><text xml:space="preserve" font-family="Monaco,Monaco" font-size="50.4" fill="#000000" transform="matrix(1.00, 0.00, -0.00, -1.00, 330.6, 533.0)">n</text><text xml:space="preserve" font-family="Monaco,Monaco" font-size="50.4" fill="#000000" transform="matrix(1.00, 0.00, -0.00, -1.00, 360.8, 533.0)">o</text><text xml:space="preserve" font-family="Monaco,Monaco" font-size="50.4" fill="#000000" transform="matrix(1.00, 0.00, -0.00, -1.00, 391.1, 533.0)"> </text><text xml:space="preserve" font-family="Monaco,Monaco" font-size="50.4" fill="#000000" transform="matrix(1.00, 0.00, -0.00, -1.00, 421.3, 533.0)">f</text><text xml:space="preserve" font-family="Monaco,Monaco" font-size="50.4" fill="#000000" transform="matrix(1.00, 0.00, -0.00, -1.00, 451.6, 533.0)">r</text><text xml:space="preserve" font-family="Monaco,Monaco" font-size="50.4" fill="#000000" transform="matrix(1.00, 0.00, -0.00, -1.00, 481.8, 533.0)">o</text><text xml:space="preserve" font-family="Monaco,Monaco" font-size="50.4" fill="#000000" transform="matrix(1.00, 0.00, -0.00, -1.00, 512.1, 533.0)">n</text><text xml:space="preserve" font-family="Monaco,Monaco" font-size="50.4" fill="#000000" transform="matrix(1.00, 0.00, -0.00, -1.00, 542.3, 533.0)">t</text><text xml:space="preserve" font-family="Monaco,Monaco" font-size="50.4" fill="#000000" transform="matrix(1.00, 0.00, -0.00, -1.00, 572.6, 533.0)"> </text><text xml:space="preserve" font-family="Monaco,Monaco" font-size="50.4" fill="#000000" transform="matrix(1.00, 0.00, -0.00, -1.00, 602.8, 533.0)">n</text><text xml:space="preserve" font-family="Monaco,Monaco" font-size="50.4" fill="#000000" transform="matrix(1.00, 0.00, -0.00, -1.00, 633.1, 533.0)">ã</text><text xml:space="preserve" font-family="Monaco,Monaco" font-size="50.4" fill="#000000" transform="matrix(1.00, 0.00, -0.00, -1.00, 663.3, 533.0)">o</text><text xml:space="preserve" font-family="Monaco,Monaco" font-size="50.4" fill="#000000" transform="matrix(1.00, 0.00, -0.00, -1.00, 693.6, 533.0)"> </text><text xml:space="preserve" font-family="Monaco,Monaco" font-size="50.4" fill="#000000" transform="matrix(1.00, 0.00, -0.00, -1.00, 723.7, 533.0)">v</text><text xml:space="preserve" font-family="Monaco,Monaco" font-size="50.4" fill="#000000" transform="matrix(1.00, 0.00, -0.00, -1.00, 754.0, 533.0)">e</text><text xml:space="preserve" font-family="Monaco,Monaco" font-size="50.4" fill="#000000" transform="matrix(1.00, 0.00, -0.00, -1.00, 784.2, 533.0)">m</text><text xml:space="preserve" font-family="Monaco,Monaco" font-size="50.4" fill="#000000" transform="matrix(1.00, 0.00, -0.00, -1.00, 814.5, 533.0)"> </text><text xml:space="preserve" font-family="Monaco,Monaco" font-size="50.4" fill="#000000" transform="matrix(1.00, 0.00, -0.00, -1.00, 844.7, 533.0)">d</text><text xml:space="preserve" font-family="Monaco,Monaco" font-size="50.4" fill="#000000" transform="matrix(1.00, 0.00, -0.00, -1.00, 875.0, 533.0)">o</text><text xml:space="preserve" font-family="Monaco,Monaco" font-size="50.4" fill="#000000" transform="matrix(1.00, 0.00, -0.00, -1.00, 905.2, 533.0)"> </text><text xml:space="preserve" font-family="Monaco,Monaco" font-size="50.4" fill="#000000" transform="matrix(1.00, 0.00, -0.00, -1.00, 239.8, 466.0)">d</text><text xml:space="preserve" font-family="Monaco,Monaco" font-size="50.4" fill="#000000" transform="matrix(1.00, 0.00, -0.00, -1.00, 270.0, 466.0)">e</text><text xml:space="preserve" font-family="Monaco,Monaco" font-size="50.4" fill="#000000" transform="matrix(1.00, 0.00, -0.00, -1.00, 300.3, 466.0)">s</text><text xml:space="preserve" font-family="Monaco,Monaco" font-size="50.4" fill="#000000" transform="matrix(1.00, 0.00, -0.00, -1.00, 330.5, 466.0)">c</text><text xml:space="preserve" font-family="Monaco,Monaco" font-size="50.4" fill="#000000" transform="matrix(1.00, 0.00, -0.00, -1.00, 360.8, 466.0)">o</text><text xml:space="preserve" font-family="Monaco,Monaco" font-size="50.4" fill="#000000" transform="matrix(1.00, 0.00, -0.00, -1.00, 391.0, 466.0)">n</text><text xml:space="preserve" font-family="Monaco,Monaco" font-size="50.4" fill="#000000" transform="matrix(1.00, 0.00, -0.00, -1.00, 421.3, 466.0)">h</text><text xml:space="preserve" font-family="Monaco,Monaco" font-size="50.4" fill="#000000" transform="matrix(1.00, 0.00, -0.00, -1.00, 451.5, 466.0)">e</text><text xml:space="preserve" font-family="Monaco,Monaco" font-size="50.4" fill="#000000" transform="matrix(1.00, 0.00, -0.00, -1.00, 481.8, 466.0)">c</text><text xml:space="preserve" font-family="Monaco,Monaco" font-size="50.4" fill="#000000" transform="matrix(1.00, 0.00, -0.00, -1.00, 512.0, 466.0)">i</text><text xml:space="preserve" font-family="Monaco,Monaco" font-size="50.4" fill="#000000" transform="matrix(1.00, 0.00, -0.00, -1.00, 542.3, 466.0)">m</text><text xml:space="preserve" font-family="Monaco,Monaco" font-size="50.4" fill="#000000" transform="matrix(1.00, 0.00, -0.00, -1.00, 572.5, 466.0)">e</text><text xml:space="preserve" font-family="Monaco,Monaco" font-size="50.4" fill="#000000" transform="matrix(1.00, 0.00, -0.00, -1.00, 602.8, 466.0)">n</text><text xml:space="preserve" font-family="Monaco,Monaco" font-size="50.4" fill="#000000" transform="matrix(1.00, 0.00, -0.00, -1.00, 633.0, 466.0)">t</text><text xml:space="preserve" font-family="Monaco,Monaco" font-size="50.4" fill="#000000" transform="matrix(1.00, 0.00, -0.00, -1.00, 663.3, 466.0)">o</text><text xml:space="preserve" font-family="Monaco,Monaco" font-size="50.4" fill="#000000" transform="matrix(1.00, 0.00, -0.00, -1.00, 693.5, 466.0)"> </text><text xml:space="preserve" font-family="Monaco,Monaco" font-size="50.4" fill="#000000" transform="matrix(1.00, 0.00, -0.00, -1.00, 723.8, 466.0)">d</text><text xml:space="preserve" font-family="Monaco,Monaco" font-size="50.4" fill="#000000" transform="matrix(1.00, 0.00, -0.00, -1.00, 754.0, 466.0)">e</text><text xml:space="preserve" font-family="Monaco,Monaco" font-size="50.4" fill="#000000" transform="matrix(1.00, 0.00, -0.00, -1.00, 784.3, 466.0)"> </text><text xml:space="preserve" font-family="Monaco,Monaco" font-size="50.4" fill="#000000" transform="matrix(1.00, 0.00, -0.00, -1.00, 149.1, 399.0)">t</text><text xml:space="preserve" font-family="Monaco,Monaco" font-size="50.4" fill="#000000" transform="matrix(1.00, 0.00, -0.00, -1.00, 179.3, 399.0)">é</text><text xml:space="preserve" font-family="Monaco,Monaco" font-size="50.4" fill="#000000" transform="matrix(1.00, 0.00, -0.00, -1.00, 209.6, 399.0)">c</text><text xml:space="preserve" font-family="Monaco,Monaco" font-size="50.4" fill="#000000" transform="matrix(1.00, 0.00, -0.00, -1.00, 239.8, 399.0)">n</text><text xml:space="preserve" font-family="Monaco,Monaco" font-size="50.4" fill="#000000" transform="matrix(1.00, 0.00, -0.00, -1.00, 270.1, 399.0)">i</text><text xml:space="preserve" font-family="Monaco,Monaco" font-size="50.4" fill="#000000" transform="matrix(1.00, 0.00, -0.00, -1.00, 300.3, 399.0)">c</text><text xml:space="preserve" font-family="Monaco,Monaco" font-size="50.4" fill="#000000" transform="matrix(1.00, 0.00, -0.00, -1.00, 330.6, 399.0)">a</text><text xml:space="preserve" font-family="Monaco,Monaco" font-size="50.4" fill="#000000" transform="matrix(1.00, 0.00, -0.00, -1.00, 360.8, 399.0)">s</text><text xml:space="preserve" font-family="Monaco,Monaco" font-size="50.4" fill="#000000" transform="matrix(1.00, 0.00, -0.00, -1.00, 391.1, 399.0)"> </text><text xml:space="preserve" font-family="Monaco,Monaco" font-size="50.4" fill="#000000" transform="matrix(1.00, 0.00, -0.00, -1.00, 421.3, 399.0)">d</text><text xml:space="preserve" font-family="Monaco,Monaco" font-size="50.4" fill="#000000" transform="matrix(1.00, 0.00, -0.00, -1.00, 451.6, 399.0)">e</text><text xml:space="preserve" font-family="Monaco,Monaco" font-size="50.4" fill="#000000" transform="matrix(1.00, 0.00, -0.00, -1.00, 481.8, 399.0)"> </text><text xml:space="preserve" font-family="Monaco,Monaco" font-size="50.4" fill="#000000" transform="matrix(1.00, 0.00, -0.00, -1.00, 512.1, 399.0)">p</text><text xml:space="preserve" font-family="Monaco,Monaco" font-size="50.4" fill="#000000" transform="matrix(1.00, 0.00, -0.00, -1.00, 542.3, 399.0)">r</text><text xml:space="preserve" font-family="Monaco,Monaco" font-size="50.4" fill="#000000" transform="matrix(1.00, 0.00, -0.00, -1.00, 572.6, 399.0)">o</text><text xml:space="preserve" font-family="Monaco,Monaco" font-size="50.4" fill="#000000" transform="matrix(1.00, 0.00, -0.00, -1.00, 602.8, 399.0)">g</text><text xml:space="preserve" font-family="Monaco,Monaco" font-size="50.4" fill="#000000" transform="matrix(1.00, 0.00, -0.00, -1.00, 633.1, 399.0)">r</text><text xml:space="preserve" font-family="Monaco,Monaco" font-size="50.4" fill="#000000" transform="matrix(1.00, 0.00, -0.00, -1.00, 663.3, 399.0)">a</text><text xml:space="preserve" font-family="Monaco,Monaco" font-size="50.4" fill="#000000" transform="matrix(1.00, 0.00, -0.00, -1.00, 693.6, 399.0)">m</text><text xml:space="preserve" font-family="Monaco,Monaco" font-size="50.4" fill="#000000" transform="matrix(1.00, 0.00, -0.00, -1.00, 723.8, 399.0)">a</text><text xml:space="preserve" font-family="Monaco,Monaco" font-size="50.4" fill="#000000" transform="matrix(1.00, 0.00, -0.00, -1.00, 754.1, 399.0)">ç</text><text xml:space="preserve" font-family="Monaco,Monaco" font-size="50.4" fill="#000000" transform="matrix(1.00, 0.00, -0.00, -1.00, 784.3, 399.0)">ã</text><text xml:space="preserve" font-family="Monaco,Monaco" font-size="50.4" fill="#000000" transform="matrix(1.00, 0.00, -0.00, -1.00, 814.6, 399.0)">o</text><text xml:space="preserve" font-family="Monaco,Monaco" font-size="50.4" fill="#000000" transform="matrix(1.00, 0.00, -0.00, -1.00, 844.8, 399.0)">,</text><text xml:space="preserve" font-family="Monaco,Monaco" font-size="50.4" fill="#000000" transform="matrix(1.00, 0.00, -0.00, -1.00, 875.1, 399.0)"> </text><text xml:space="preserve" font-family="Monaco,Monaco" font-size="50.4" fill="#000000" transform="matrix(1.00, 0.00, -0.00, -1.00, 179.3, 332.0)">m</text><text xml:space="preserve" font-family="Monaco,Monaco" font-size="50.4" fill="#000000" transform="matrix(1.00, 0.00, -0.00, -1.00, 209.6, 332.0)">a</text><text xml:space="preserve" font-family="Monaco,Monaco" font-size="50.4" fill="#000000" transform="matrix(1.00, 0.00, -0.00, -1.00, 239.8, 332.0)">s</text><text xml:space="preserve" font-family="Monaco,Monaco" font-size="50.4" fill="#000000" transform="matrix(1.00, 0.00, -0.00, -1.00, 270.1, 332.0)"> </text><text xml:space="preserve" font-family="Monaco,Monaco" font-size="50.4" fill="#000000" transform="matrix(1.00, 0.00, -0.00, -1.00, 300.3, 332.0)">d</text><text xml:space="preserve" font-family="Monaco,Monaco" font-size="50.4" fill="#000000" transform="matrix(1.00, 0.00, -0.00, -1.00, 330.6, 332.0)">a</text><text xml:space="preserve" font-family="Monaco,Monaco" font-size="50.4" fill="#000000" transform="matrix(1.00, 0.00, -0.00, -1.00, 360.8, 332.0)"> </text><text xml:space="preserve" font-family="Monaco,Monaco" font-size="50.4" fill="#000000" transform="matrix(1.00, 0.00, -0.00, -1.00, 391.1, 332.0)">i</text><text xml:space="preserve" font-family="Monaco,Monaco" font-size="50.4" fill="#000000" transform="matrix(1.00, 0.00, -0.00, -1.00, 421.3, 332.0)">n</text><text xml:space="preserve" font-family="Monaco,Monaco" font-size="50.4" fill="#000000" transform="matrix(1.00, 0.00, -0.00, -1.00, 451.6, 332.0)">a</text><text xml:space="preserve" font-family="Monaco,Monaco" font-size="50.4" fill="#000000" transform="matrix(1.00, 0.00, -0.00, -1.00, 481.8, 332.0)">d</text><text xml:space="preserve" font-family="Monaco,Monaco" font-size="50.4" fill="#000000" transform="matrix(1.00, 0.00, -0.00, -1.00, 512.1, 332.0)">e</text><text xml:space="preserve" font-family="Monaco,Monaco" font-size="50.4" fill="#000000" transform="matrix(1.00, 0.00, -0.00, -1.00, 542.3, 332.0)">q</text><text xml:space="preserve" font-family="Monaco,Monaco" font-size="50.4" fill="#000000" transform="matrix(1.00, 0.00, -0.00, -1.00, 572.6, 332.0)">u</text><text xml:space="preserve" font-family="Monaco,Monaco" font-size="50.4" fill="#000000" transform="matrix(1.00, 0.00, -0.00, -1.00, 602.8, 332.0)">a</text><text xml:space="preserve" font-family="Monaco,Monaco" font-size="50.4" fill="#000000" transform="matrix(1.00, 0.00, -0.00, -1.00, 633.1, 332.0)">ç</text><text xml:space="preserve" font-family="Monaco,Monaco" font-size="50.4" fill="#000000" transform="matrix(1.00, 0.00, -0.00, -1.00, 663.3, 332.0)">ã</text><text xml:space="preserve" font-family="Monaco,Monaco" font-size="50.4" fill="#000000" transform="matrix(1.00, 0.00, -0.00, -1.00, 693.6, 332.0)">o</text><text xml:space="preserve" font-family="Monaco,Monaco" font-size="50.4" fill="#000000" transform="matrix(1.00, 0.00, -0.00, -1.00, 723.8, 332.0)"> </text><text xml:space="preserve" font-family="Monaco,Monaco" font-size="50.4" fill="#000000" transform="matrix(1.00, 0.00, -0.00, -1.00, 754.1, 332.0)">d</text><text xml:space="preserve" font-family="Monaco,Monaco" font-size="50.4" fill="#000000" transform="matrix(1.00, 0.00, -0.00, -1.00, 784.3, 332.0)">a</text><text xml:space="preserve" font-family="Monaco,Monaco" font-size="50.4" fill="#000000" transform="matrix(1.00, 0.00, -0.00, -1.00, 814.6, 332.0)">s</text><text xml:space="preserve" font-family="Monaco,Monaco" font-size="50.4" fill="#000000" transform="matrix(1.00, 0.00, -0.00, -1.00, 844.8, 332.0)"> </text><text xml:space="preserve" font-family="Monaco,Monaco" font-size="50.4" fill="#000000" transform="matrix(1.00, 0.00, -0.00, -1.00, 133.9, 265.0)">f</text><text xml:space="preserve" font-family="Monaco,Monaco" font-size="50.4" fill="#000000" transform="matrix(1.00, 0.00, -0.00, -1.00, 164.2, 265.0)">e</text><text xml:space="preserve" font-family="Monaco,Monaco" font-size="50.4" fill="#000000" transform="matrix(1.00, 0.00, -0.00, -1.00, 194.4, 265.0)">r</text><text xml:space="preserve" font-family="Monaco,Monaco" font-size="50.4" fill="#000000" transform="matrix(1.00, 0.00, -0.00, -1.00, 224.7, 265.0)">r</text><text xml:space="preserve" font-family="Monaco,Monaco" font-size="50.4" fill="#000000" transform="matrix(1.00, 0.00, -0.00, -1.00, 254.9, 265.0)">a</text><text xml:space="preserve" font-family="Monaco,Monaco" font-size="50.4" fill="#000000" transform="matrix(1.00, 0.00, -0.00, -1.00, 285.2, 265.0)">m</text><text xml:space="preserve" font-family="Monaco,Monaco" font-size="50.4" fill="#000000" transform="matrix(1.00, 0.00, -0.00, -1.00, 315.4, 265.0)">e</text><text xml:space="preserve" font-family="Monaco,Monaco" font-size="50.4" fill="#000000" transform="matrix(1.00, 0.00, -0.00, -1.00, 345.7, 265.0)">n</text><text xml:space="preserve" font-family="Monaco,Monaco" font-size="50.4" fill="#000000" transform="matrix(1.00, 0.00, -0.00, -1.00, 375.9, 265.0)">t</text><text xml:space="preserve" font-family="Monaco,Monaco" font-size="50.4" fill="#000000" transform="matrix(1.00, 0.00, -0.00, -1.00, 406.2, 265.0)">a</text><text xml:space="preserve" font-family="Monaco,Monaco" font-size="50.4" fill="#000000" transform="matrix(1.00, 0.00, -0.00, -1.00, 436.4, 265.0)">s</text><text xml:space="preserve" font-family="Monaco,Monaco" font-size="50.4" fill="#000000" transform="matrix(1.00, 0.00, -0.00, -1.00, 466.7, 265.0)"> </text><text xml:space="preserve" font-family="Monaco,Monaco" font-size="50.4" fill="#000000" transform="matrix(1.00, 0.00, -0.00, -1.00, 496.9, 265.0)">q</text><text xml:space="preserve" font-family="Monaco,Monaco" font-size="50.4" fill="#000000" transform="matrix(1.00, 0.00, -0.00, -1.00, 527.2, 265.0)">u</text><text xml:space="preserve" font-family="Monaco,Monaco" font-size="50.4" fill="#000000" transform="matrix(1.00, 0.00, -0.00, -1.00, 557.4, 265.0)">e</text><text xml:space="preserve" font-family="Monaco,Monaco" font-size="50.4" fill="#000000" transform="matrix(1.00, 0.00, -0.00, -1.00, 587.7, 265.0)"> </text><text xml:space="preserve" font-family="Monaco,Monaco" font-size="50.4" fill="#000000" transform="matrix(1.00, 0.00, -0.00, -1.00, 617.9, 265.0)">s</text><text xml:space="preserve" font-family="Monaco,Monaco" font-size="50.4" fill="#000000" transform="matrix(1.00, 0.00, -0.00, -1.00, 648.2, 265.0)">e</text><text xml:space="preserve" font-family="Monaco,Monaco" font-size="50.4" fill="#000000" transform="matrix(1.00, 0.00, -0.00, -1.00, 678.4, 265.0)"> </text><text xml:space="preserve" font-family="Monaco,Monaco" font-size="50.4" fill="#000000" transform="matrix(1.00, 0.00, -0.00, -1.00, 708.7, 265.0)">t</text><text xml:space="preserve" font-family="Monaco,Monaco" font-size="50.4" fill="#000000" transform="matrix(1.00, 0.00, -0.00, -1.00, 738.9, 265.0)">e</text><text xml:space="preserve" font-family="Monaco,Monaco" font-size="50.4" fill="#000000" transform="matrix(1.00, 0.00, -0.00, -1.00, 769.2, 265.0)">m</text><text xml:space="preserve" font-family="Monaco,Monaco" font-size="50.4" fill="#000000" transform="matrix(1.00, 0.00, -0.00, -1.00, 799.4, 265.0)"> </text><text xml:space="preserve" font-family="Monaco,Monaco" font-size="50.4" fill="#000000" transform="matrix(1.00, 0.00, -0.00, -1.00, 829.7, 265.0)">e</text><text xml:space="preserve" font-family="Monaco,Monaco" font-size="50.4" fill="#000000" transform="matrix(1.00, 0.00, -0.00, -1.00, 859.9, 265.0)">m</text><text xml:space="preserve" font-family="Monaco,Monaco" font-size="50.4" fill="#000000" transform="matrix(1.00, 0.00, -0.00, -1.00, 890.2, 265.0)"> </text><text xml:space="preserve" font-family="Monaco,Monaco" font-size="50.4" fill="#000000" transform="matrix(1.00, 0.00, -0.00, -1.00, 209.6, 198.0)">r</text><text xml:space="preserve" font-family="Monaco,Monaco" font-size="50.4" fill="#000000" transform="matrix(1.00, 0.00, -0.00, -1.00, 239.8, 198.0)">e</text><text xml:space="preserve" font-family="Monaco,Monaco" font-size="50.4" fill="#000000" transform="matrix(1.00, 0.00, -0.00, -1.00, 270.1, 198.0)">l</text><text xml:space="preserve" font-family="Monaco,Monaco" font-size="50.4" fill="#000000" transform="matrix(1.00, 0.00, -0.00, -1.00, 300.3, 198.0)">a</text><text xml:space="preserve" font-family="Monaco,Monaco" font-size="50.4" fill="#000000" transform="matrix(1.00, 0.00, -0.00, -1.00, 330.6, 198.0)">ç</text><text xml:space="preserve" font-family="Monaco,Monaco" font-size="50.4" fill="#000000" transform="matrix(1.00, 0.00, -0.00, -1.00, 360.8, 198.0)">ã</text><text xml:space="preserve" font-family="Monaco,Monaco" font-size="50.4" fill="#000000" transform="matrix(1.00, 0.00, -0.00, -1.00, 391.1, 198.0)">o</text><text xml:space="preserve" font-family="Monaco,Monaco" font-size="50.4" fill="#000000" transform="matrix(1.00, 0.00, -0.00, -1.00, 421.3, 198.0)"> </text><text xml:space="preserve" font-family="Monaco,Monaco" font-size="50.4" fill="#000000" transform="matrix(1.00, 0.00, -0.00, -1.00, 451.6, 198.0)">a</text><text xml:space="preserve" font-family="Monaco,Monaco" font-size="50.4" fill="#000000" transform="matrix(1.00, 0.00, -0.00, -1.00, 481.8, 198.0)">o</text><text xml:space="preserve" font-family="Monaco,Monaco" font-size="50.4" fill="#000000" transform="matrix(1.00, 0.00, -0.00, -1.00, 512.1, 198.0)">s</text><text xml:space="preserve" font-family="Monaco,Monaco" font-size="50.4" fill="#000000" transform="matrix(1.00, 0.00, -0.00, -1.00, 542.3, 198.0)"> </text><text xml:space="preserve" font-family="Monaco,Monaco" font-size="50.4" fill="#000000" transform="matrix(1.00, 0.00, -0.00, -1.00, 572.6, 198.0)">d</text><text xml:space="preserve" font-family="Monaco,Monaco" font-size="50.4" fill="#000000" transform="matrix(1.00, 0.00, -0.00, -1.00, 602.8, 198.0)">e</text><text xml:space="preserve" font-family="Monaco,Monaco" font-size="50.4" fill="#000000" transform="matrix(1.00, 0.00, -0.00, -1.00, 633.1, 198.0)">s</text><text xml:space="preserve" font-family="Monaco,Monaco" font-size="50.4" fill="#000000" transform="matrix(1.00, 0.00, -0.00, -1.00, 663.3, 198.0)">a</text><text xml:space="preserve" font-family="Monaco,Monaco" font-size="50.4" fill="#000000" transform="matrix(1.00, 0.00, -0.00, -1.00, 693.6, 198.0)">f</text><text xml:space="preserve" font-family="Monaco,Monaco" font-size="50.4" fill="#000000" transform="matrix(1.00, 0.00, -0.00, -1.00, 723.8, 198.0)">i</text><text xml:space="preserve" font-family="Monaco,Monaco" font-size="50.4" fill="#000000" transform="matrix(1.00, 0.00, -0.00, -1.00, 754.1, 198.0)">o</text><text xml:space="preserve" font-family="Monaco,Monaco" font-size="50.4" fill="#000000" transform="matrix(1.00, 0.00, -0.00, -1.00, 784.3, 198.0)">s</text><text xml:space="preserve" font-family="Monaco,Monaco" font-size="50.4" fill="#000000" transform="matrix(1.00, 0.00, -0.00, -1.00, 814.6, 198.0)"> </text><text xml:space="preserve" font-family="Monaco,Monaco" font-size="50.4" fill="#000000" transform="matrix(1.00, 0.00, -0.00, -1.00, 375.9, 131.0)">p</text><text xml:space="preserve" font-family="Monaco,Monaco" font-size="50.4" fill="#000000" transform="matrix(1.00, 0.00, -0.00, -1.00, 406.1, 131.0)">r</text><text xml:space="preserve" font-family="Monaco,Monaco" font-size="50.4" fill="#000000" transform="matrix(1.00, 0.00, -0.00, -1.00, 436.4, 131.0)">o</text><text xml:space="preserve" font-family="Monaco,Monaco" font-size="50.4" fill="#000000" transform="matrix(1.00, 0.00, -0.00, -1.00, 466.6, 131.0)">p</text><text xml:space="preserve" font-family="Monaco,Monaco" font-size="50.4" fill="#000000" transform="matrix(1.00, 0.00, -0.00, -1.00, 496.9, 131.0)">o</text><text xml:space="preserve" font-family="Monaco,Monaco" font-size="50.4" fill="#000000" transform="matrix(1.00, 0.00, -0.00, -1.00, 527.1, 131.0)">s</text><text xml:space="preserve" font-family="Monaco,Monaco" font-size="50.4" fill="#000000" transform="matrix(1.00, 0.00, -0.00, -1.00, 557.4, 131.0)">t</text><text xml:space="preserve" font-family="Monaco,Monaco" font-size="50.4" fill="#000000" transform="matrix(1.00, 0.00, -0.00, -1.00, 587.6, 131.0)">o</text><text xml:space="preserve" font-family="Monaco,Monaco" font-size="50.4" fill="#000000" transform="matrix(1.00, 0.00, -0.00, -1.00, 617.9, 131.0)">s</text></g></svg>