<?xml version="1.0" encoding="UTF-8" standalone="no"?><svg xmlns="http://www.w3.org/2000/svg" xmlns:xlink="http://www.w3.org/1999/xlink" clip-rule="evenodd" stroke-miterlimit="10" viewBox="0 0 1024 768"><desc>SVG generated by Keynote</desc><defs></defs><g transform="matrix(1.00, 0.00, -0.00, -1.00, 0.0, 768.0)"><path d="M 0.0 768.0 L 1024.0 768.0 L 1024.0 0.0 L 0.0 0.0 Z M 0.0 768.0 " fill="#F4F4F4"></path><text xml:space="preserve" font-family="Monaco,Monaco" font-size="66.0" fill="#000000" transform="matrix(1.00, 0.00, -0.00, -1.00, 195.1, 547.8)">q</text><text xml:space="preserve" font-family="Monaco,Monaco" font-size="66.0" fill="#000000" transform="matrix(1.00, 0.00, -0.00, -1.00, 234.8, 547.8)">u</text><text xml:space="preserve" font-family="Monaco,Monaco" font-size="66.0" fill="#000000" transform="matrix(1.00, 0.00, -0.00, -1.00, 274.4, 547.8)">e</text><text xml:space="preserve" font-family="Monaco,Monaco" font-size="66.0" fill="#000000" transform="matrix(1.00, 0.00, -0.00, -1.00, 314.0, 547.8)">r</text><text xml:space="preserve" font-family="Monaco,Monaco" font-size="66.0" fill="#000000" transform="matrix(1.00, 0.00, -0.00, -1.00, 353.6, 547.8)"> </text><text xml:space="preserve" font-family="Monaco,Monaco" font-size="66.0" fill="#000000" transform="matrix(1.00, 0.00, -0.00, -1.00, 393.2, 547.8)">s</text><text xml:space="preserve" font-family="Monaco,Monaco" font-size="66.0" fill="#000000" transform="matrix(1.00, 0.00, -0.00, -1.00, 432.8, 547.8)">a</text><text xml:space="preserve" font-family="Monaco,Monaco" font-size="66.0" fill="#000000" transform="matrix(1.00, 0.00, -0.00, -1.00, 472.4, 547.8)">b</text><text xml:space="preserve" font-family="Monaco,Monaco" font-size="66.0" fill="#000000" transform="matrix(1.00, 0.00, -0.00, -1.00, 512.1, 547.8)">e</text><text xml:space="preserve" font-family="Monaco,Monaco" font-size="66.0" fill="#000000" transform="matrix(1.00, 0.00, -0.00, -1.00, 551.7, 547.8)">r</text><text xml:space="preserve" font-family="Monaco,Monaco" font-size="66.0" fill="#000000" transform="matrix(1.00, 0.00, -0.00, -1.00, 591.3, 547.8)"> </text><text xml:space="preserve" font-family="Monaco,Monaco" font-size="66.0" fill="#000000" transform="matrix(1.00, 0.00, -0.00, -1.00, 630.9, 547.8)">m</text><text xml:space="preserve" font-family="Monaco,Monaco" font-size="66.0" fill="#000000" transform="matrix(1.00, 0.00, -0.00, -1.00, 670.5, 547.8)">a</text><text xml:space="preserve" font-family="Monaco,Monaco" font-size="66.0" fill="#000000" transform="matrix(1.00, 0.00, -0.00, -1.00, 710.1, 547.8)">i</text><text xml:space="preserve" font-family="Monaco,Monaco" font-size="66.0" fill="#000000" transform="matrix(1.00, 0.00, -0.00, -1.00, 749.7, 547.8)">s</text><text xml:space="preserve" font-family="Monaco,Monaco" font-size="66.0" fill="#000000" transform="matrix(1.00, 0.00, -0.00, -1.00, 789.3, 547.8)">?</text><text xml:space="preserve" font-family="Monaco,Monaco" font-size="36.0" fill="#000000" transform="matrix(1.00, 0.00, -0.00, -1.00, 187.9, 444.9)">h</text><text xml:space="preserve" font-family="Monaco,Monaco" font-size="36.0" fill="#000000" transform="matrix(1.00, 0.00, -0.00, -1.00, 209.6, 444.9)">t</text><text xml:space="preserve" font-family="Monaco,Monaco" font-size="36.0" fill="#000000" transform="matrix(1.00, 0.00, -0.00, -1.00, 231.2, 444.9)">t</text><text xml:space="preserve" font-family="Monaco,Monaco" font-size="36.0" fill="#000000" transform="matrix(1.00, 0.00, -0.00, -1.00, 252.8, 444.9)">p</text><text xml:space="preserve" font-family="Monaco,Monaco" font-size="36.0" fill="#000000" transform="matrix(1.00, 0.00, -0.00, -1.00, 274.4, 444.9)">:</text><text xml:space="preserve" font-family="Monaco,Monaco" font-size="36.0" fill="#000000" transform="matrix(1.00, 0.00, -0.00, -1.00, 296.0, 444.9)">/</text><text xml:space="preserve" font-family="Monaco,Monaco" font-size="36.0" fill="#000000" transform="matrix(1.00, 0.00, -0.00, -1.00, 317.6, 444.9)">/</text><text xml:space="preserve" font-family="Monaco,Monaco" font-size="36.0" fill="#000000" transform="matrix(1.00, 0.00, -0.00, -1.00, 339.2, 444.9)">m</text><text xml:space="preserve" font-family="Monaco,Monaco" font-size="36.0" fill="#000000" transform="matrix(1.00, 0.00, -0.00, -1.00, 360.8, 444.9)">a</text><text xml:space="preserve" font-family="Monaco,Monaco" font-size="36.0" fill="#000000" transform="matrix(1.00, 0.00, -0.00, -1.00, 382.4, 444.9)">r</text><text xml:space="preserve" font-family="Monaco,Monaco" font-size="36.0" fill="#000000" transform="matrix(1.00, 0.00, -0.00, -1.00, 404.0, 444.9)">t</text><text xml:space="preserve" font-family="Monaco,Monaco" font-size="36.0" fill="#000000" transform="matrix(1.00, 0.00, -0.00, -1.00, 425.6, 444.9)">i</text><text xml:space="preserve" font-family="Monaco,Monaco" font-size="36.0" fill="#000000" transform="matrix(1.00, 0.00, -0.00, -1.00, 447.2, 444.9)">n</text><text xml:space="preserve" font-family="Monaco,Monaco" font-size="36.0" fill="#000000" transform="matrix(1.00, 0.00, -0.00, -1.00, 468.8, 444.9)">f</text><text xml:space="preserve" font-family="Monaco,Monaco" font-size="36.0" fill="#000000" transform="matrix(1.00, 0.00, -0.00, -1.00, 490.4, 444.9)">o</text><text xml:space="preserve" font-family="Monaco,Monaco" font-size="36.0" fill="#000000" transform="matrix(1.00, 0.00, -0.00, -1.00, 512.1, 444.9)">w</text><text xml:space="preserve" font-family="Monaco,Monaco" font-size="36.0" fill="#000000" transform="matrix(1.00, 0.00, -0.00, -1.00, 533.7, 444.9)">l</text><text xml:space="preserve" font-family="Monaco,Monaco" font-size="36.0" fill="#000000" transform="matrix(1.00, 0.00, -0.00, -1.00, 555.3, 444.9)">e</text><text xml:space="preserve" font-family="Monaco,Monaco" font-size="36.0" fill="#000000" transform="matrix(1.00, 0.00, -0.00, -1.00, 576.9, 444.9)">r</text><text xml:space="preserve" font-family="Monaco,Monaco" font-size="36.0" fill="#000000" transform="matrix(1.00, 0.00, -0.00, -1.00, 598.5, 444.9)">.</text><text xml:space="preserve" font-family="Monaco,Monaco" font-size="36.0" fill="#000000" transform="matrix(1.00, 0.00, -0.00, -1.00, 620.1, 444.9)">c</text><text xml:space="preserve" font-family="Monaco,Monaco" font-size="36.0" fill="#000000" transform="matrix(1.00, 0.00, -0.00, -1.00, 641.7, 444.9)">o</text><text xml:space="preserve" font-family="Monaco,Monaco" font-size="36.0" fill="#000000" transform="matrix(1.00, 0.00, -0.00, -1.00, 663.3, 444.9)">m</text><text xml:space="preserve" font-family="Monaco,Monaco" font-size="36.0" fill="#000000" transform="matrix(1.00, 0.00, -0.00, -1.00, 684.9, 444.9)">/</text><text xml:space="preserve" font-family="Monaco,Monaco" font-size="36.0" fill="#000000" transform="matrix(1.00, 0.00, -0.00, -1.00, 706.5, 444.9)">b</text><text xml:space="preserve" font-family="Monaco,Monaco" font-size="36.0" fill="#000000" transform="matrix(1.00, 0.00, -0.00, -1.00, 728.1, 444.9)">l</text><text xml:space="preserve" font-family="Monaco,Monaco" font-size="36.0" fill="#000000" transform="matrix(1.00, 0.00, -0.00, -1.00, 749.7, 444.9)">i</text><text xml:space="preserve" font-family="Monaco,Monaco" font-size="36.0" fill="#000000" transform="matrix(1.00, 0.00, -0.00, -1.00, 771.3, 444.9)">k</text><text xml:space="preserve" font-family="Monaco,Monaco" font-size="36.0" fill="#000000" transform="matrix(1.00, 0.00, -0.00, -1.00, 792.9, 444.9)">i</text><text xml:space="preserve" font-family="Monaco,Monaco" font-size="36.0" fill="#000000" transform="matrix(1.00, 0.00, -0.00, -1.00, 814.6, 444.9)">/</text><g><clipPath id="clip0x7fda309aa3b0"><path d="M 186.9 441.2 L 836.1 441.2 L 836.1 446.0 L 186.9 446.0 Z M 186.9 441.2 "></path></clipPath><g clip-path="url(#clip0x7fda309aa3b0)"><path d="M 120.7 41.3 L 768.9 41.3 " fill="none" stroke="#000000" stroke-width="2.72" transform="matrix(1.00, 0.00, 0.00, -1.00, 67.2, 484.9)"></path></g></g><text xml:space="preserve" font-family="Monaco,Monaco" font-size="36.0" fill="#000000" transform="matrix(1.00, 0.00, -0.00, -1.00, 317.6, 396.9)">S</text><text xml:space="preserve" font-family="Monaco,Monaco" font-size="36.0" fill="#000000" transform="matrix(1.00, 0.00, -0.00, -1.00, 339.2, 396.9)">e</text><text xml:space="preserve" font-family="Monaco,Monaco" font-size="36.0" fill="#000000" transform="matrix(1.00, 0.00, -0.00, -1.00, 360.8, 396.9)">g</text><text xml:space="preserve" font-family="Monaco,Monaco" font-size="36.0" fill="#000000" transform="matrix(1.00, 0.00, -0.00, -1.00, 382.4, 396.9)">r</text><text xml:space="preserve" font-family="Monaco,Monaco" font-size="36.0" fill="#000000" transform="matrix(1.00, 0.00, -0.00, -1.00, 404.0, 396.9)">e</text><text xml:space="preserve" font-family="Monaco,Monaco" font-size="36.0" fill="#000000" transform="matrix(1.00, 0.00, -0.00, -1.00, 425.6, 396.9)">g</text><text xml:space="preserve" font-family="Monaco,Monaco" font-size="36.0" fill="#000000" transform="matrix(1.00, 0.00, -0.00, -1.00, 447.2, 396.9)">a</text><text xml:space="preserve" font-family="Monaco,Monaco" font-size="36.0" fill="#000000" transform="matrix(1.00, 0.00, -0.00, -1.00, 468.8, 396.9)">t</text><text xml:space="preserve" font-family="Monaco,Monaco" font-size="36.0" fill="#000000" transform="matrix(1.00, 0.00, -0.00, -1.00, 490.4, 396.9)">e</text><text xml:space="preserve" font-family="Monaco,Monaco" font-size="36.0" fill="#000000" transform="matrix(1.00, 0.00, -0.00, -1.00, 512.0, 396.9)">d</text><text xml:space="preserve" font-family="Monaco,Monaco" font-size="36.0" fill="#000000" transform="matrix(1.00, 0.00, -0.00, -1.00, 533.6, 396.9)">D</text><text xml:space="preserve" font-family="Monaco,Monaco" font-size="36.0" fill="#000000" transform="matrix(1.00, 0.00, -0.00, -1.00, 555.2, 396.9)">O</text><text xml:space="preserve" font-family="Monaco,Monaco" font-size="36.0" fill="#000000" transform="matrix(1.00, 0.00, -0.00, -1.00, 576.9, 396.9)">M</text><text xml:space="preserve" font-family="Monaco,Monaco" font-size="36.0" fill="#000000" transform="matrix(1.00, 0.00, -0.00, -1.00, 598.5, 396.9)">.</text><text xml:space="preserve" font-family="Monaco,Monaco" font-size="36.0" fill="#000000" transform="matrix(1.00, 0.00, -0.00, -1.00, 620.1, 396.9)">h</text><text xml:space="preserve" font-family="Monaco,Monaco" font-size="36.0" fill="#000000" transform="matrix(1.00, 0.00, -0.00, -1.00, 641.7, 396.9)">t</text><text xml:space="preserve" font-family="Monaco,Monaco" font-size="36.0" fill="#000000" transform="matrix(1.00, 0.00, -0.00, -1.00, 663.3, 396.9)">m</text><text xml:space="preserve" font-family="Monaco,Monaco" font-size="36.0" fill="#000000" transform="matrix(1.00, 0.00, -0.00, -1.00, 684.9, 396.9)">l</text><g><clipPath id="clip0x7fda309b26f0"><path d="M 316.6 393.2 L 706.4 393.2 L 706.4 398.0 L 316.6 398.0 Z M 316.6 393.2 "></path></clipPath><g clip-path="url(#clip0x7fda309b26f0)"><path d="M 250.4 89.3 L 639.2 89.3 " fill="none" stroke="#000000" stroke-width="2.72" transform="matrix(1.00, 0.00, 0.00, -1.00, 67.2, 484.9)"></path></g></g><text xml:space="preserve" font-family="Monaco,Monaco" font-size="36.0" fill="#000000" transform="matrix(1.00, 0.00, -0.00, -1.00, 69.1, 315.6)">h</text><text xml:space="preserve" font-family="Monaco,Monaco" font-size="36.0" fill="#000000" transform="matrix(1.00, 0.00, -0.00, -1.00, 90.7, 315.6)">t</text><text xml:space="preserve" font-family="Monaco,Monaco" font-size="36.0" fill="#000000" transform="matrix(1.00, 0.00, -0.00, -1.00, 112.3, 315.6)">t</text><text xml:space="preserve" font-family="Monaco,Monaco" font-size="36.0" fill="#000000" transform="matrix(1.00, 0.00, -0.00, -1.00, 133.9, 315.6)">p</text><text xml:space="preserve" font-family="Monaco,Monaco" font-size="36.0" fill="#000000" transform="matrix(1.00, 0.00, -0.00, -1.00, 155.6, 315.6)">:</text><text xml:space="preserve" font-family="Monaco,Monaco" font-size="36.0" fill="#000000" transform="matrix(1.00, 0.00, -0.00, -1.00, 177.2, 315.6)">/</text><text xml:space="preserve" font-family="Monaco,Monaco" font-size="36.0" fill="#000000" transform="matrix(1.00, 0.00, -0.00, -1.00, 198.8, 315.6)">/</text><text xml:space="preserve" font-family="Monaco,Monaco" font-size="36.0" fill="#000000" transform="matrix(1.00, 0.00, -0.00, -1.00, 220.4, 315.6)">r</text><text xml:space="preserve" font-family="Monaco,Monaco" font-size="36.0" fill="#000000" transform="matrix(1.00, 0.00, -0.00, -1.00, 242.0, 315.6)">a</text><text xml:space="preserve" font-family="Monaco,Monaco" font-size="36.0" fill="#000000" transform="matrix(1.00, 0.00, -0.00, -1.00, 263.6, 315.6)">d</text><text xml:space="preserve" font-family="Monaco,Monaco" font-size="36.0" fill="#000000" transform="matrix(1.00, 0.00, -0.00, -1.00, 285.2, 315.6)">a</text><text xml:space="preserve" font-family="Monaco,Monaco" font-size="36.0" fill="#000000" transform="matrix(1.00, 0.00, -0.00, -1.00, 306.8, 315.6)">r</text><text xml:space="preserve" font-family="Monaco,Monaco" font-size="36.0" fill="#000000" transform="matrix(1.00, 0.00, -0.00, -1.00, 328.4, 315.6)">.</text><text xml:space="preserve" font-family="Monaco,Monaco" font-size="36.0" fill="#000000" transform="matrix(1.00, 0.00, -0.00, -1.00, 350.0, 315.6)">o</text><text xml:space="preserve" font-family="Monaco,Monaco" font-size="36.0" fill="#000000" transform="matrix(1.00, 0.00, -0.00, -1.00, 371.6, 315.6)">r</text><text xml:space="preserve" font-family="Monaco,Monaco" font-size="36.0" fill="#000000" transform="matrix(1.00, 0.00, -0.00, -1.00, 393.2, 315.6)">e</text><text xml:space="preserve" font-family="Monaco,Monaco" font-size="36.0" fill="#000000" transform="matrix(1.00, 0.00, -0.00, -1.00, 414.8, 315.6)">i</text><text xml:space="preserve" font-family="Monaco,Monaco" font-size="36.0" fill="#000000" transform="matrix(1.00, 0.00, -0.00, -1.00, 436.4, 315.6)">l</text><text xml:space="preserve" font-family="Monaco,Monaco" font-size="36.0" fill="#000000" transform="matrix(1.00, 0.00, -0.00, -1.00, 458.1, 315.6)">l</text><text xml:space="preserve" font-family="Monaco,Monaco" font-size="36.0" fill="#000000" transform="matrix(1.00, 0.00, -0.00, -1.00, 479.7, 315.6)">y</text><text xml:space="preserve" font-family="Monaco,Monaco" font-size="36.0" fill="#000000" transform="matrix(1.00, 0.00, -0.00, -1.00, 501.3, 315.6)">.</text><text xml:space="preserve" font-family="Monaco,Monaco" font-size="36.0" fill="#000000" transform="matrix(1.00, 0.00, -0.00, -1.00, 522.9, 315.6)">c</text><text xml:space="preserve" font-family="Monaco,Monaco" font-size="36.0" fill="#000000" transform="matrix(1.00, 0.00, -0.00, -1.00, 544.5, 315.6)">o</text><text xml:space="preserve" font-family="Monaco,Monaco" font-size="36.0" fill="#000000" transform="matrix(1.00, 0.00, -0.00, -1.00, 566.1, 315.6)">m</text><text xml:space="preserve" font-family="Monaco,Monaco" font-size="36.0" fill="#000000" transform="matrix(1.00, 0.00, -0.00, -1.00, 587.7, 315.6)">/</text><text xml:space="preserve" font-family="Monaco,Monaco" font-size="36.0" fill="#000000" transform="matrix(1.00, 0.00, -0.00, -1.00, 609.3, 315.6)">2</text><text xml:space="preserve" font-family="Monaco,Monaco" font-size="36.0" fill="#000000" transform="matrix(1.00, 0.00, -0.00, -1.00, 630.9, 315.6)">0</text><text xml:space="preserve" font-family="Monaco,Monaco" font-size="36.0" fill="#000000" transform="matrix(1.00, 0.00, -0.00, -1.00, 652.5, 315.6)">1</text><text xml:space="preserve" font-family="Monaco,Monaco" font-size="36.0" fill="#000000" transform="matrix(1.00, 0.00, -0.00, -1.00, 674.1, 315.6)">4</text><text xml:space="preserve" font-family="Monaco,Monaco" font-size="36.0" fill="#000000" transform="matrix(1.00, 0.00, -0.00, -1.00, 695.7, 315.6)">/</text><text xml:space="preserve" font-family="Monaco,Monaco" font-size="36.0" fill="#000000" transform="matrix(1.00, 0.00, -0.00, -1.00, 717.3, 315.6)">0</text><text xml:space="preserve" font-family="Monaco,Monaco" font-size="36.0" fill="#000000" transform="matrix(1.00, 0.00, -0.00, -1.00, 738.9, 315.6)">1</text><text xml:space="preserve" font-family="Monaco,Monaco" font-size="36.0" fill="#000000" transform="matrix(1.00, 0.00, -0.00, -1.00, 760.6, 315.6)">/</text><text xml:space="preserve" font-family="Monaco,Monaco" font-size="36.0" fill="#000000" transform="matrix(1.00, 0.00, -0.00, -1.00, 782.2, 315.6)">k</text><text xml:space="preserve" font-family="Monaco,Monaco" font-size="36.0" fill="#000000" transform="matrix(1.00, 0.00, -0.00, -1.00, 803.8, 315.6)">e</text><text xml:space="preserve" font-family="Monaco,Monaco" font-size="36.0" fill="#000000" transform="matrix(1.00, 0.00, -0.00, -1.00, 825.4, 315.6)">e</text><text xml:space="preserve" font-family="Monaco,Monaco" font-size="36.0" fill="#000000" transform="matrix(1.00, 0.00, -0.00, -1.00, 847.0, 315.6)">p</text><text xml:space="preserve" font-family="Monaco,Monaco" font-size="36.0" fill="#000000" transform="matrix(1.00, 0.00, -0.00, -1.00, 868.6, 315.6)">i</text><text xml:space="preserve" font-family="Monaco,Monaco" font-size="36.0" fill="#000000" transform="matrix(1.00, 0.00, -0.00, -1.00, 890.2, 315.6)">n</text><text xml:space="preserve" font-family="Monaco,Monaco" font-size="36.0" fill="#000000" transform="matrix(1.00, 0.00, -0.00, -1.00, 911.8, 315.6)">g</text><text xml:space="preserve" font-family="Monaco,Monaco" font-size="36.0" fill="#000000" transform="matrix(1.00, 0.00, -0.00, -1.00, 933.4, 315.6)">-</text><g><clipPath id="clip0x7fda30a73b10"><path d="M 68.1 311.9 L 954.9 311.9 L 954.9 316.6 L 68.1 316.6 Z M 68.1 311.9 "></path></clipPath><g clip-path="url(#clip0x7fda30a73b10)"><path d="M 4.5 41.3 L 890.2 41.3 " fill="none" stroke="#000000" stroke-width="2.72" transform="matrix(1.00, 0.00, 0.00, -1.00, 64.6, 355.6)"></path></g></g><text xml:space="preserve" font-family="Monaco,Monaco" font-size="36.0" fill="#000000" transform="matrix(1.00, 0.00, -0.00, -1.00, 296.0, 267.6)">j</text><text xml:space="preserve" font-family="Monaco,Monaco" font-size="36.0" fill="#000000" transform="matrix(1.00, 0.00, -0.00, -1.00, 317.6, 267.6)">q</text><text xml:space="preserve" font-family="Monaco,Monaco" font-size="36.0" fill="#000000" transform="matrix(1.00, 0.00, -0.00, -1.00, 339.2, 267.6)">u</text><text xml:space="preserve" font-family="Monaco,Monaco" font-size="36.0" fill="#000000" transform="matrix(1.00, 0.00, -0.00, -1.00, 360.8, 267.6)">e</text><text xml:space="preserve" font-family="Monaco,Monaco" font-size="36.0" fill="#000000" transform="matrix(1.00, 0.00, -0.00, -1.00, 382.4, 267.6)">r</text><text xml:space="preserve" font-family="Monaco,Monaco" font-size="36.0" fill="#000000" transform="matrix(1.00, 0.00, -0.00, -1.00, 404.0, 267.6)">y</text><text xml:space="preserve" font-family="Monaco,Monaco" font-size="36.0" fill="#000000" transform="matrix(1.00, 0.00, -0.00, -1.00, 425.6, 267.6)">-</text><text xml:space="preserve" font-family="Monaco,Monaco" font-size="36.0" fill="#000000" transform="matrix(1.00, 0.00, -0.00, -1.00, 447.2, 267.6)">i</text><text xml:space="preserve" font-family="Monaco,Monaco" font-size="36.0" fill="#000000" transform="matrix(1.00, 0.00, -0.00, -1.00, 468.8, 267.6)">n</text><text xml:space="preserve" font-family="Monaco,Monaco" font-size="36.0" fill="#000000" transform="matrix(1.00, 0.00, -0.00, -1.00, 490.4, 267.6)">-</text><text xml:space="preserve" font-family="Monaco,Monaco" font-size="36.0" fill="#000000" transform="matrix(1.00, 0.00, -0.00, -1.00, 512.0, 267.6)">c</text><text xml:space="preserve" font-family="Monaco,Monaco" font-size="36.0" fill="#000000" transform="matrix(1.00, 0.00, -0.00, -1.00, 533.6, 267.6)">h</text><text xml:space="preserve" font-family="Monaco,Monaco" font-size="36.0" fill="#000000" transform="matrix(1.00, 0.00, -0.00, -1.00, 555.3, 267.6)">e</text><text xml:space="preserve" font-family="Monaco,Monaco" font-size="36.0" fill="#000000" transform="matrix(1.00, 0.00, -0.00, -1.00, 576.9, 267.6)">c</text><text xml:space="preserve" font-family="Monaco,Monaco" font-size="36.0" fill="#000000" transform="matrix(1.00, 0.00, -0.00, -1.00, 598.5, 267.6)">k</text><text xml:space="preserve" font-family="Monaco,Monaco" font-size="36.0" fill="#000000" transform="matrix(1.00, 0.00, -0.00, -1.00, 620.1, 267.6)">.</text><text xml:space="preserve" font-family="Monaco,Monaco" font-size="36.0" fill="#000000" transform="matrix(1.00, 0.00, -0.00, -1.00, 641.7, 267.6)">h</text><text xml:space="preserve" font-family="Monaco,Monaco" font-size="36.0" fill="#000000" transform="matrix(1.00, 0.00, -0.00, -1.00, 663.3, 267.6)">t</text><text xml:space="preserve" font-family="Monaco,Monaco" font-size="36.0" fill="#000000" transform="matrix(1.00, 0.00, -0.00, -1.00, 684.9, 267.6)">m</text><text xml:space="preserve" font-family="Monaco,Monaco" font-size="36.0" fill="#000000" transform="matrix(1.00, 0.00, -0.00, -1.00, 706.5, 267.6)">l</text><g><clipPath id="clip0x7fda30a7ca80"><path d="M 295.0 263.9 L 728.0 263.9 L 728.0 268.6 L 295.0 268.6 Z M 295.0 263.9 "></path></clipPath><g clip-path="url(#clip0x7fda30a7ca80)"><path d="M 231.3 89.3 L 663.4 89.3 " fill="none" stroke="#000000" stroke-width="2.72" transform="matrix(1.00, 0.00, 0.00, -1.00, 64.6, 355.6)"></path></g></g><text xml:space="preserve" font-family="Monaco,Monaco" font-size="36.0" fill="#000000" transform="matrix(1.00, 0.00, -0.00, -1.00, 155.5, 162.2)">h</text><text xml:space="preserve" font-family="Monaco,Monaco" font-size="36.0" fill="#000000" transform="matrix(1.00, 0.00, -0.00, -1.00, 177.1, 162.2)">t</text><text xml:space="preserve" font-family="Monaco,Monaco" font-size="36.0" fill="#000000" transform="matrix(1.00, 0.00, -0.00, -1.00, 198.8, 162.2)">t</text><text xml:space="preserve" font-family="Monaco,Monaco" font-size="36.0" fill="#000000" transform="matrix(1.00, 0.00, -0.00, -1.00, 220.4, 162.2)">p</text><text xml:space="preserve" font-family="Monaco,Monaco" font-size="36.0" fill="#000000" transform="matrix(1.00, 0.00, -0.00, -1.00, 242.0, 162.2)">:</text><text xml:space="preserve" font-family="Monaco,Monaco" font-size="36.0" fill="#000000" transform="matrix(1.00, 0.00, -0.00, -1.00, 263.6, 162.2)">/</text><text xml:space="preserve" font-family="Monaco,Monaco" font-size="36.0" fill="#000000" transform="matrix(1.00, 0.00, -0.00, -1.00, 285.2, 162.2)">/</text><text xml:space="preserve" font-family="Monaco,Monaco" font-size="36.0" fill="#000000" transform="matrix(1.00, 0.00, -0.00, -1.00, 306.8, 162.2)">l</text><text xml:space="preserve" font-family="Monaco,Monaco" font-size="36.0" fill="#000000" transform="matrix(1.00, 0.00, -0.00, -1.00, 328.4, 162.2)">u</text><text xml:space="preserve" font-family="Monaco,Monaco" font-size="36.0" fill="#000000" transform="matrix(1.00, 0.00, -0.00, -1.00, 350.0, 162.2)">c</text><text xml:space="preserve" font-family="Monaco,Monaco" font-size="36.0" fill="#000000" transform="matrix(1.00, 0.00, -0.00, -1.00, 371.6, 162.2)">i</text><text xml:space="preserve" font-family="Monaco,Monaco" font-size="36.0" fill="#000000" transform="matrix(1.00, 0.00, -0.00, -1.00, 393.2, 162.2)">a</text><text xml:space="preserve" font-family="Monaco,Monaco" font-size="36.0" fill="#000000" transform="matrix(1.00, 0.00, -0.00, -1.00, 414.8, 162.2)">n</text><text xml:space="preserve" font-family="Monaco,Monaco" font-size="36.0" fill="#000000" transform="matrix(1.00, 0.00, -0.00, -1.00, 436.4, 162.2)">o</text><text xml:space="preserve" font-family="Monaco,Monaco" font-size="36.0" fill="#000000" transform="matrix(1.00, 0.00, -0.00, -1.00, 458.0, 162.2)">r</text><text xml:space="preserve" font-family="Monaco,Monaco" font-size="36.0" fill="#000000" transform="matrix(1.00, 0.00, -0.00, -1.00, 479.6, 162.2)">a</text><text xml:space="preserve" font-family="Monaco,Monaco" font-size="36.0" fill="#000000" transform="matrix(1.00, 0.00, -0.00, -1.00, 501.3, 162.2)">t</text><text xml:space="preserve" font-family="Monaco,Monaco" font-size="36.0" fill="#000000" transform="matrix(1.00, 0.00, -0.00, -1.00, 522.9, 162.2)">a</text><text xml:space="preserve" font-family="Monaco,Monaco" font-size="36.0" fill="#000000" transform="matrix(1.00, 0.00, -0.00, -1.00, 544.5, 162.2)">m</text><text xml:space="preserve" font-family="Monaco,Monaco" font-size="36.0" fill="#000000" transform="matrix(1.00, 0.00, -0.00, -1.00, 566.1, 162.2)">e</text><text xml:space="preserve" font-family="Monaco,Monaco" font-size="36.0" fill="#000000" transform="matrix(1.00, 0.00, -0.00, -1.00, 587.7, 162.2)">r</text><text xml:space="preserve" font-family="Monaco,Monaco" font-size="36.0" fill="#000000" transform="matrix(1.00, 0.00, -0.00, -1.00, 609.3, 162.2)">o</text><text xml:space="preserve" font-family="Monaco,Monaco" font-size="36.0" fill="#000000" transform="matrix(1.00, 0.00, -0.00, -1.00, 630.9, 162.2)">.</text><text xml:space="preserve" font-family="Monaco,Monaco" font-size="36.0" fill="#000000" transform="matrix(1.00, 0.00, -0.00, -1.00, 652.5, 162.2)">g</text><text xml:space="preserve" font-family="Monaco,Monaco" font-size="36.0" fill="#000000" transform="matrix(1.00, 0.00, -0.00, -1.00, 674.1, 162.2)">i</text><text xml:space="preserve" font-family="Monaco,Monaco" font-size="36.0" fill="#000000" transform="matrix(1.00, 0.00, -0.00, -1.00, 695.7, 162.2)">t</text><text xml:space="preserve" font-family="Monaco,Monaco" font-size="36.0" fill="#000000" transform="matrix(1.00, 0.00, -0.00, -1.00, 717.3, 162.2)">h</text><text xml:space="preserve" font-family="Monaco,Monaco" font-size="36.0" fill="#000000" transform="matrix(1.00, 0.00, -0.00, -1.00, 738.9, 162.2)">u</text><text xml:space="preserve" font-family="Monaco,Monaco" font-size="36.0" fill="#000000" transform="matrix(1.00, 0.00, -0.00, -1.00, 760.5, 162.2)">b</text><text xml:space="preserve" font-family="Monaco,Monaco" font-size="36.0" fill="#000000" transform="matrix(1.00, 0.00, -0.00, -1.00, 782.1, 162.2)">.</text><text xml:space="preserve" font-family="Monaco,Monaco" font-size="36.0" fill="#000000" transform="matrix(1.00, 0.00, -0.00, -1.00, 803.8, 162.2)">i</text><text xml:space="preserve" font-family="Monaco,Monaco" font-size="36.0" fill="#000000" transform="matrix(1.00, 0.00, -0.00, -1.00, 825.4, 162.2)">o</text><text xml:space="preserve" font-family="Monaco,Monaco" font-size="36.0" fill="#000000" transform="matrix(1.00, 0.00, -0.00, -1.00, 847.0, 162.2)">/</text><g><clipPath id="clip0x7fda30a8a8f0"><path d="M 154.5 158.5 L 868.5 158.5 L 868.5 163.2 L 154.5 163.2 Z M 154.5 158.5 "></path></clipPath><g clip-path="url(#clip0x7fda30a8a8f0)"><path d="M 4.5 41.3 L 717.4 41.3 " fill="none" stroke="#000000" stroke-width="2.72" transform="matrix(1.00, 0.00, 0.00, -1.00, 151.0, 202.2)"></path></g></g></g></svg>