<?xml version="1.0" encoding="UTF-8" standalone="no"?><svg xmlns="http://www.w3.org/2000/svg" xmlns:xlink="http://www.w3.org/1999/xlink" clip-rule="evenodd" stroke-miterlimit="10" viewBox="0 0 1024 768"><desc>SVG generated by Keynote</desc><defs><pattern id="1D9725BA-3CE8-4B22-977C-F3C18E536FB9" patternUnits="userSpaceOnUse" width="256" height="256" viewBox="0 0 256 256"><image xlink:href="../../5867522E-6026-46E5-8AA5-52BA20D7C218/assets/AE076AE14B0AE672B700F7473AB7889A.png" width="256.00" height="256.00"></image></pattern><pattern id="AC97DAFA-127A-47DA-8624-19FB92DC1859" patternUnits="userSpaceOnUse" width="256" height="256" viewBox="0 0 256 256"><image xlink:href="../../5867522E-6026-46E5-8AA5-52BA20D7C218/assets/AE076AE14B0AE672B700F7473AB7889A.png" width="256.00" height="256.00"></image></pattern><pattern id="B5452096-88B1-4D37-A286-AD1B24B08774" patternUnits="userSpaceOnUse" width="256" height="256" viewBox="0 0 256 256"><image xlink:href="../../5867522E-6026-46E5-8AA5-52BA20D7C218/assets/AE076AE14B0AE672B700F7473AB7889A.png" width="256.00" height="256.00"></image></pattern></defs><g transform="matrix(1.00, 0.00, -0.00, -1.00, 0.0, 768.0)"><path d="M 0.0 768.0 L 1024.0 768.0 L 1024.0 0.0 L 0.0 0.0 Z M 0.0 768.0 " fill="#F4F4F4"></path><text xml:space="preserve" font-family="Monaco,Monaco" font-size="80.0" fill="#000000" transform="matrix(1.00, 0.00, -0.00, -1.00, 200.9, 632.7)">q</text><text xml:space="preserve" font-family="Monaco,Monaco" font-size="80.0" fill="#000000" transform="matrix(1.00, 0.00, -0.00, -1.00, 249.0, 632.7)">u</text><text xml:space="preserve" font-family="Monaco,Monaco" font-size="80.0" fill="#000000" transform="matrix(1.00, 0.00, -0.00, -1.00, 297.0, 632.7)">e</text><text xml:space="preserve" font-family="Monaco,Monaco" font-size="80.0" fill="#000000" transform="matrix(1.00, 0.00, -0.00, -1.00, 345.0, 632.7)"> </text><text xml:space="preserve" font-family="Monaco,Monaco" font-size="80.0" fill="#000000" transform="matrix(1.00, 0.00, -0.00, -1.00, 393.0, 632.7)">t</text><text xml:space="preserve" font-family="Monaco,Monaco" font-size="80.0" fill="#000000" transform="matrix(1.00, 0.00, -0.00, -1.00, 441.0, 632.7)">a</text><text xml:space="preserve" font-family="Monaco,Monaco" font-size="80.0" fill="#000000" transform="matrix(1.00, 0.00, -0.00, -1.00, 489.0, 632.7)">l</text><text xml:space="preserve" font-family="Monaco,Monaco" font-size="80.0" fill="#000000" transform="matrix(1.00, 0.00, -0.00, -1.00, 537.1, 632.7)"> </text><text xml:space="preserve" font-family="Monaco,Monaco" font-size="80.0" fill="#000000" transform="matrix(1.00, 0.00, -0.00, -1.00, 585.1, 632.7)">i</text><text xml:space="preserve" font-family="Monaco,Monaco" font-size="80.0" fill="#000000" transform="matrix(1.00, 0.00, -0.00, -1.00, 633.1, 632.7)">s</text><text xml:space="preserve" font-family="Monaco,Monaco" font-size="80.0" fill="#000000" transform="matrix(1.00, 0.00, -0.00, -1.00, 681.1, 632.7)">s</text><text xml:space="preserve" font-family="Monaco,Monaco" font-size="80.0" fill="#000000" transform="matrix(1.00, 0.00, -0.00, -1.00, 729.1, 632.7)">o</text><text xml:space="preserve" font-family="Monaco,Monaco" font-size="80.0" fill="#000000" transform="matrix(1.00, 0.00, -0.00, -1.00, 777.1, 632.7)">?</text><g><clipPath id="clip0x7fda2d5e3430"><path d="M 182.0 366.0 L 844.0 366.0 L 844.0 253.0 L 182.0 253.0 Z M 181.8 366.0 "></path></clipPath><g clip-path="url(#clip0x7fda2d5e3430)"><path d="M 182.0 253.0 L 844.0 253.0 L 844.0 366.0 L 182.0 366.0 Z M 182.0 253.0 " fill="url(#1D9725BA-3CE8-4B22-977C-F3C18E536FB9)"></path></g></g><g><clipPath id="clip0x7fda2d5e5470"><path d="M 183.0 160.0 L 845.0 160.0 L 845.0 60.0 L 183.0 60.0 Z M 182.8 160.0 "></path></clipPath><g clip-path="url(#clip0x7fda2d5e5470)"><path d="M 183.0 60.0 L 845.0 60.0 L 845.0 160.0 L 183.0 160.0 Z M 183.0 60.0 " fill="url(#AC97DAFA-127A-47DA-8624-19FB92DC1859)"></path></g></g><text xml:space="preserve" font-family="Monaco,Monaco" font-size="36.0" fill="#FEFFFF" transform="matrix(1.00, 0.00, -0.00, -1.00, 317.8, 296.0)">p</text><text xml:space="preserve" font-family="Monaco,Monaco" font-size="36.0" fill="#FEFFFF" transform="matrix(1.00, 0.00, -0.00, -1.00, 339.4, 296.0)">r</text><text xml:space="preserve" font-family="Monaco,Monaco" font-size="36.0" fill="#FEFFFF" transform="matrix(1.00, 0.00, -0.00, -1.00, 361.0, 296.0)">e</text><text xml:space="preserve" font-family="Monaco,Monaco" font-size="36.0" fill="#FEFFFF" transform="matrix(1.00, 0.00, -0.00, -1.00, 382.6, 296.0)">s</text><text xml:space="preserve" font-family="Monaco,Monaco" font-size="36.0" fill="#FEFFFF" transform="matrix(1.00, 0.00, -0.00, -1.00, 404.2, 296.0)">e</text><text xml:space="preserve" font-family="Monaco,Monaco" font-size="36.0" fill="#FEFFFF" transform="matrix(1.00, 0.00, -0.00, -1.00, 425.9, 296.0)">n</text><text xml:space="preserve" font-family="Monaco,Monaco" font-size="36.0" fill="#FEFFFF" transform="matrix(1.00, 0.00, -0.00, -1.00, 447.5, 296.0)">t</text><text xml:space="preserve" font-family="Monaco,Monaco" font-size="36.0" fill="#FEFFFF" transform="matrix(1.00, 0.00, -0.00, -1.00, 469.1, 296.0)">a</text><text xml:space="preserve" font-family="Monaco,Monaco" font-size="36.0" fill="#FEFFFF" transform="matrix(1.00, 0.00, -0.00, -1.00, 490.7, 296.0)">t</text><text xml:space="preserve" font-family="Monaco,Monaco" font-size="36.0" fill="#FEFFFF" transform="matrix(1.00, 0.00, -0.00, -1.00, 512.3, 296.0)">i</text><text xml:space="preserve" font-family="Monaco,Monaco" font-size="36.0" fill="#FEFFFF" transform="matrix(1.00, 0.00, -0.00, -1.00, 533.9, 296.0)">o</text><text xml:space="preserve" font-family="Monaco,Monaco" font-size="36.0" fill="#FEFFFF" transform="matrix(1.00, 0.00, -0.00, -1.00, 555.5, 296.0)">n</text><text xml:space="preserve" font-family="Monaco,Monaco" font-size="36.0" fill="#FEFFFF" transform="matrix(1.00, 0.00, -0.00, -1.00, 577.1, 296.0)"> </text><text xml:space="preserve" font-family="Monaco,Monaco" font-size="36.0" fill="#FEFFFF" transform="matrix(1.00, 0.00, -0.00, -1.00, 598.7, 296.0)">l</text><text xml:space="preserve" font-family="Monaco,Monaco" font-size="36.0" fill="#FEFFFF" transform="matrix(1.00, 0.00, -0.00, -1.00, 620.3, 296.0)">a</text><text xml:space="preserve" font-family="Monaco,Monaco" font-size="36.0" fill="#FEFFFF" transform="matrix(1.00, 0.00, -0.00, -1.00, 641.9, 296.0)">y</text><text xml:space="preserve" font-family="Monaco,Monaco" font-size="36.0" fill="#FEFFFF" transform="matrix(1.00, 0.00, -0.00, -1.00, 663.5, 296.0)">e</text><text xml:space="preserve" font-family="Monaco,Monaco" font-size="36.0" fill="#FEFFFF" transform="matrix(1.00, 0.00, -0.00, -1.00, 685.1, 296.0)">r</text><text xml:space="preserve" font-family="Monaco,Monaco" font-size="36.0" fill="#FEFFFF" transform="matrix(1.00, 0.00, -0.00, -1.00, 479.8, 97.5)">D</text><text xml:space="preserve" font-family="Monaco,Monaco" font-size="36.0" fill="#FEFFFF" transform="matrix(1.00, 0.00, -0.00, -1.00, 501.5, 97.5)">O</text><text xml:space="preserve" font-family="Monaco,Monaco" font-size="36.0" fill="#FEFFFF" transform="matrix(1.00, 0.00, -0.00, -1.00, 523.1, 97.5)">M</text><g><clipPath id="clip0x7fda2996f600"><path d="M 181.0 572.0 L 843.0 572.0 L 843.0 459.0 L 181.0 459.0 Z M 181.3 572.0 "></path></clipPath><g clip-path="url(#clip0x7fda2996f600)"><path d="M 181.0 459.0 L 843.0 459.0 L 843.0 572.0 L 181.0 572.0 Z M 181.0 459.0 " fill="url(#B5452096-88B1-4D37-A286-AD1B24B08774)"></path></g></g><text xml:space="preserve" font-family="Monaco,Monaco" font-size="36.0" fill="#FEFFFF" transform="matrix(1.00, 0.00, -0.00, -1.00, 306.5, 502.0)">c</text><text xml:space="preserve" font-family="Monaco,Monaco" font-size="36.0" fill="#FEFFFF" transform="matrix(1.00, 0.00, -0.00, -1.00, 328.1, 502.0)">ó</text><text xml:space="preserve" font-family="Monaco,Monaco" font-size="36.0" fill="#FEFFFF" transform="matrix(1.00, 0.00, -0.00, -1.00, 349.7, 502.0)">d</text><text xml:space="preserve" font-family="Monaco,Monaco" font-size="36.0" fill="#FEFFFF" transform="matrix(1.00, 0.00, -0.00, -1.00, 371.3, 502.0)">i</text><text xml:space="preserve" font-family="Monaco,Monaco" font-size="36.0" fill="#FEFFFF" transform="matrix(1.00, 0.00, -0.00, -1.00, 392.9, 502.0)">g</text><text xml:space="preserve" font-family="Monaco,Monaco" font-size="36.0" fill="#FEFFFF" transform="matrix(1.00, 0.00, -0.00, -1.00, 414.6, 502.0)">o</text><text xml:space="preserve" font-family="Monaco,Monaco" font-size="36.0" fill="#FEFFFF" transform="matrix(1.00, 0.00, -0.00, -1.00, 436.2, 502.0)"> </text><text xml:space="preserve" font-family="Monaco,Monaco" font-size="36.0" fill="#FEFFFF" transform="matrix(1.00, 0.00, -0.00, -1.00, 457.8, 502.0)">d</text><text xml:space="preserve" font-family="Monaco,Monaco" font-size="36.0" fill="#FEFFFF" transform="matrix(1.00, 0.00, -0.00, -1.00, 479.4, 502.0)">a</text><text xml:space="preserve" font-family="Monaco,Monaco" font-size="36.0" fill="#FEFFFF" transform="matrix(1.00, 0.00, -0.00, -1.00, 501.0, 502.0)"> </text><text xml:space="preserve" font-family="Monaco,Monaco" font-size="36.0" fill="#FEFFFF" transform="matrix(1.00, 0.00, -0.00, -1.00, 522.6, 502.0)">a</text><text xml:space="preserve" font-family="Monaco,Monaco" font-size="36.0" fill="#FEFFFF" transform="matrix(1.00, 0.00, -0.00, -1.00, 544.2, 502.0)">p</text><text xml:space="preserve" font-family="Monaco,Monaco" font-size="36.0" fill="#FEFFFF" transform="matrix(1.00, 0.00, -0.00, -1.00, 565.8, 502.0)">l</text><text xml:space="preserve" font-family="Monaco,Monaco" font-size="36.0" fill="#FEFFFF" transform="matrix(1.00, 0.00, -0.00, -1.00, 587.4, 502.0)">i</text><text xml:space="preserve" font-family="Monaco,Monaco" font-size="36.0" fill="#FEFFFF" transform="matrix(1.00, 0.00, -0.00, -1.00, 609.0, 502.0)">c</text><text xml:space="preserve" font-family="Monaco,Monaco" font-size="36.0" fill="#FEFFFF" transform="matrix(1.00, 0.00, -0.00, -1.00, 630.6, 502.0)">a</text><text xml:space="preserve" font-family="Monaco,Monaco" font-size="36.0" fill="#FEFFFF" transform="matrix(1.00, 0.00, -0.00, -1.00, 652.2, 502.0)">ç</text><text xml:space="preserve" font-family="Monaco,Monaco" font-size="36.0" fill="#FEFFFF" transform="matrix(1.00, 0.00, -0.00, -1.00, 673.8, 502.0)">ã</text><text xml:space="preserve" font-family="Monaco,Monaco" font-size="36.0" fill="#FEFFFF" transform="matrix(1.00, 0.00, -0.00, -1.00, 695.4, 502.0)">o</text><path d="M -0.0 0.2 L 43.4 0.2 L 44.0 0.2 " fill="none" stroke="#E7A432" stroke-width="2.00" transform="matrix(0.00, -1.00, -1.00, 0.00, 361.2, 439.0)"></path><path d="M 356.2 396.0 L 361.0 386.4 L 365.8 396.0 Z M 356.2 396.0 " fill="#E7A432"></path><path d="M 0.0 -0.3 L 41.4 -0.3 L 42.0 -0.3 " fill="none" stroke="#E7A432" stroke-width="2.00" transform="matrix(0.00, 1.00, 1.00, 0.00, 666.2, 387.0)"></path><path d="M 670.8 428.0 L 666.0 437.6 L 661.2 428.0 Z M 670.8 428.0 " fill="#E7A432"></path><path d="M -0.0 -0.5 L 43.4 -0.5 L 44.0 -0.5 " fill="none" stroke="#E7A432" stroke-width="2.00" transform="matrix(0.00, -1.00, -1.00, 0.00, 359.5, 233.0)"></path><path d="M 355.2 190.0 L 360.0 180.4 L 364.8 190.0 Z M 355.2 190.0 " fill="#E7A432"></path><path d="M 0.0 -0.3 L 41.4 -0.3 L 42.0 -0.3 " fill="none" stroke="#E7A432" stroke-width="2.00" transform="matrix(0.00, 1.00, 1.00, 0.00, 666.2, 182.0)"></path><path d="M 670.8 223.0 L 666.0 232.6 L 661.2 223.0 Z M 670.8 223.0 " fill="#E7A432"></path><text xml:space="preserve" font-family="Monaco,Monaco" font-size="24.0" fill="#000000" transform="matrix(1.00, 0.00, -0.00, -1.00, 213.4, 403.5)">i</text><text xml:space="preserve" font-family="Monaco,Monaco" font-size="24.0" fill="#000000" transform="matrix(1.00, 0.00, -0.00, -1.00, 227.8, 403.5)">n</text><text xml:space="preserve" font-family="Monaco,Monaco" font-size="24.0" fill="#000000" transform="matrix(1.00, 0.00, -0.00, -1.00, 242.2, 403.5)">t</text><text xml:space="preserve" font-family="Monaco,Monaco" font-size="24.0" fill="#000000" transform="matrix(1.00, 0.00, -0.00, -1.00, 256.6, 403.5)">e</text><text xml:space="preserve" font-family="Monaco,Monaco" font-size="24.0" fill="#000000" transform="matrix(1.00, 0.00, -0.00, -1.00, 271.0, 403.5)">n</text><text xml:space="preserve" font-family="Monaco,Monaco" font-size="24.0" fill="#000000" transform="matrix(1.00, 0.00, -0.00, -1.00, 285.4, 403.5)">ç</text><text xml:space="preserve" font-family="Monaco,Monaco" font-size="24.0" fill="#000000" transform="matrix(1.00, 0.00, -0.00, -1.00, 299.8, 403.5)">ã</text><text xml:space="preserve" font-family="Monaco,Monaco" font-size="24.0" fill="#000000" transform="matrix(1.00, 0.00, -0.00, -1.00, 314.2, 403.5)">o</text><text xml:space="preserve" font-family="Monaco,Monaco" font-size="24.0" fill="#000000" transform="matrix(1.00, 0.00, -0.00, -1.00, 191.8, 197.5)">m</text><text xml:space="preserve" font-family="Monaco,Monaco" font-size="24.0" fill="#000000" transform="matrix(1.00, 0.00, -0.00, -1.00, 206.2, 197.5)">a</text><text xml:space="preserve" font-family="Monaco,Monaco" font-size="24.0" fill="#000000" transform="matrix(1.00, 0.00, -0.00, -1.00, 220.6, 197.5)">n</text><text xml:space="preserve" font-family="Monaco,Monaco" font-size="24.0" fill="#000000" transform="matrix(1.00, 0.00, -0.00, -1.00, 235.0, 197.5)">i</text><text xml:space="preserve" font-family="Monaco,Monaco" font-size="24.0" fill="#000000" transform="matrix(1.00, 0.00, -0.00, -1.00, 249.4, 197.5)">p</text><text xml:space="preserve" font-family="Monaco,Monaco" font-size="24.0" fill="#000000" transform="matrix(1.00, 0.00, -0.00, -1.00, 263.8, 197.5)">u</text><text xml:space="preserve" font-family="Monaco,Monaco" font-size="24.0" fill="#000000" transform="matrix(1.00, 0.00, -0.00, -1.00, 278.2, 197.5)">l</text><text xml:space="preserve" font-family="Monaco,Monaco" font-size="24.0" fill="#000000" transform="matrix(1.00, 0.00, -0.00, -1.00, 292.6, 197.5)">a</text><text xml:space="preserve" font-family="Monaco,Monaco" font-size="24.0" fill="#000000" transform="matrix(1.00, 0.00, -0.00, -1.00, 307.0, 197.5)">ç</text><text xml:space="preserve" font-family="Monaco,Monaco" font-size="24.0" fill="#000000" transform="matrix(1.00, 0.00, -0.00, -1.00, 321.4, 197.5)">ã</text><text xml:space="preserve" font-family="Monaco,Monaco" font-size="24.0" fill="#000000" transform="matrix(1.00, 0.00, -0.00, -1.00, 335.8, 197.5)">o</text><text xml:space="preserve" font-family="Monaco,Monaco" font-size="24.0" fill="#000000" transform="matrix(1.00, 0.00, -0.00, -1.00, 702.6, 213.5)">e</text><text xml:space="preserve" font-family="Monaco,Monaco" font-size="24.0" fill="#000000" transform="matrix(1.00, 0.00, -0.00, -1.00, 717.0, 213.5)">v</text><text xml:space="preserve" font-family="Monaco,Monaco" font-size="24.0" fill="#000000" transform="matrix(1.00, 0.00, -0.00, -1.00, 731.4, 213.5)">e</text><text xml:space="preserve" font-family="Monaco,Monaco" font-size="24.0" fill="#000000" transform="matrix(1.00, 0.00, -0.00, -1.00, 745.8, 213.5)">n</text><text xml:space="preserve" font-family="Monaco,Monaco" font-size="24.0" fill="#000000" transform="matrix(1.00, 0.00, -0.00, -1.00, 760.2, 213.5)">t</text><text xml:space="preserve" font-family="Monaco,Monaco" font-size="24.0" fill="#000000" transform="matrix(1.00, 0.00, -0.00, -1.00, 774.6, 213.5)">o</text><text xml:space="preserve" font-family="Monaco,Monaco" font-size="24.0" fill="#000000" transform="matrix(1.00, 0.00, -0.00, -1.00, 789.0, 213.5)">s</text><text xml:space="preserve" font-family="Monaco,Monaco" font-size="24.0" fill="#000000" transform="matrix(1.00, 0.00, -0.00, -1.00, 803.4, 213.5)"> </text><text xml:space="preserve" font-family="Monaco,Monaco" font-size="24.0" fill="#000000" transform="matrix(1.00, 0.00, -0.00, -1.00, 709.8, 181.5)">d</text><text xml:space="preserve" font-family="Monaco,Monaco" font-size="24.0" fill="#000000" transform="matrix(1.00, 0.00, -0.00, -1.00, 724.2, 181.5)">o</text><text xml:space="preserve" font-family="Monaco,Monaco" font-size="24.0" fill="#000000" transform="matrix(1.00, 0.00, -0.00, -1.00, 738.6, 181.5)"> </text><text xml:space="preserve" font-family="Monaco,Monaco" font-size="24.0" fill="#000000" transform="matrix(1.00, 0.00, -0.00, -1.00, 753.0, 181.5)">D</text><text xml:space="preserve" font-family="Monaco,Monaco" font-size="24.0" fill="#000000" transform="matrix(1.00, 0.00, -0.00, -1.00, 767.4, 181.5)">O</text><text xml:space="preserve" font-family="Monaco,Monaco" font-size="24.0" fill="#000000" transform="matrix(1.00, 0.00, -0.00, -1.00, 781.8, 181.5)">M</text><text xml:space="preserve" font-family="Monaco,Monaco" font-size="24.0" fill="#000000" transform="matrix(1.00, 0.00, -0.00, -1.00, 702.6, 419.5)">e</text><text xml:space="preserve" font-family="Monaco,Monaco" font-size="24.0" fill="#000000" transform="matrix(1.00, 0.00, -0.00, -1.00, 717.0, 419.5)">v</text><text xml:space="preserve" font-family="Monaco,Monaco" font-size="24.0" fill="#000000" transform="matrix(1.00, 0.00, -0.00, -1.00, 731.4, 419.5)">e</text><text xml:space="preserve" font-family="Monaco,Monaco" font-size="24.0" fill="#000000" transform="matrix(1.00, 0.00, -0.00, -1.00, 745.8, 419.5)">n</text><text xml:space="preserve" font-family="Monaco,Monaco" font-size="24.0" fill="#000000" transform="matrix(1.00, 0.00, -0.00, -1.00, 760.2, 419.5)">t</text><text xml:space="preserve" font-family="Monaco,Monaco" font-size="24.0" fill="#000000" transform="matrix(1.00, 0.00, -0.00, -1.00, 774.6, 419.5)">o</text><text xml:space="preserve" font-family="Monaco,Monaco" font-size="24.0" fill="#000000" transform="matrix(1.00, 0.00, -0.00, -1.00, 789.0, 419.5)">s</text><text xml:space="preserve" font-family="Monaco,Monaco" font-size="24.0" fill="#000000" transform="matrix(1.00, 0.00, -0.00, -1.00, 803.4, 419.5)"> </text><text xml:space="preserve" font-family="Monaco,Monaco" font-size="24.0" fill="#000000" transform="matrix(1.00, 0.00, -0.00, -1.00, 681.0, 387.5)">d</text><text xml:space="preserve" font-family="Monaco,Monaco" font-size="24.0" fill="#000000" transform="matrix(1.00, 0.00, -0.00, -1.00, 695.4, 387.5)">o</text><text xml:space="preserve" font-family="Monaco,Monaco" font-size="24.0" fill="#000000" transform="matrix(1.00, 0.00, -0.00, -1.00, 709.8, 387.5)"> </text><text xml:space="preserve" font-family="Monaco,Monaco" font-size="24.0" fill="#000000" transform="matrix(1.00, 0.00, -0.00, -1.00, 724.2, 387.5)">d</text><text xml:space="preserve" font-family="Monaco,Monaco" font-size="24.0" fill="#000000" transform="matrix(1.00, 0.00, -0.00, -1.00, 738.6, 387.5)">o</text><text xml:space="preserve" font-family="Monaco,Monaco" font-size="24.0" fill="#000000" transform="matrix(1.00, 0.00, -0.00, -1.00, 753.0, 387.5)">m</text><text xml:space="preserve" font-family="Monaco,Monaco" font-size="24.0" fill="#000000" transform="matrix(1.00, 0.00, -0.00, -1.00, 767.4, 387.5)">í</text><text xml:space="preserve" font-family="Monaco,Monaco" font-size="24.0" fill="#000000" transform="matrix(1.00, 0.00, -0.00, -1.00, 781.8, 387.5)">n</text><text xml:space="preserve" font-family="Monaco,Monaco" font-size="24.0" fill="#000000" transform="matrix(1.00, 0.00, -0.00, -1.00, 796.2, 387.5)">i</text><text xml:space="preserve" font-family="Monaco,Monaco" font-size="24.0" fill="#000000" transform="matrix(1.00, 0.00, -0.00, -1.00, 810.6, 387.5)">o</text></g></svg>