<?xml version="1.0" encoding="UTF-8" standalone="no"?><svg xmlns="http://www.w3.org/2000/svg" xmlns:xlink="http://www.w3.org/1999/xlink" clip-rule="evenodd" stroke-miterlimit="10" viewBox="0 0 1024 768"><desc>SVG generated by Keynote</desc><defs></defs><g transform="matrix(1.00, 0.00, -0.00, -1.00, 0.0, 768.0)"><path d="M 0.0 768.0 L 1024.0 768.0 L 1024.0 0.0 L 0.0 0.0 Z M 0.0 768.0 " fill="#F4F4F4"></path><text xml:space="preserve" font-family="Monaco,Monaco" font-size="64.0" fill="#000000" transform="matrix(1.00, 0.00, -0.00, -1.00, 358.4, 586.2)">j</text><text xml:space="preserve" font-family="Monaco,Monaco" font-size="64.0" fill="#000000" transform="matrix(1.00, 0.00, -0.00, -1.00, 396.8, 586.2)">s</text><text xml:space="preserve" font-family="Monaco,Monaco" font-size="64.0" fill="#000000" transform="matrix(1.00, 0.00, -0.00, -1.00, 435.2, 586.2)"> </text><text xml:space="preserve" font-family="Monaco,Monaco" font-size="64.0" fill="#000000" transform="matrix(1.00, 0.00, -0.00, -1.00, 473.6, 586.2)">l</text><text xml:space="preserve" font-family="Monaco,Monaco" font-size="64.0" fill="#000000" transform="matrix(1.00, 0.00, -0.00, -1.00, 512.0, 586.2)">i</text><text xml:space="preserve" font-family="Monaco,Monaco" font-size="64.0" fill="#000000" transform="matrix(1.00, 0.00, -0.00, -1.00, 550.4, 586.2)">m</text><text xml:space="preserve" font-family="Monaco,Monaco" font-size="64.0" fill="#000000" transform="matrix(1.00, 0.00, -0.00, -1.00, 588.9, 586.2)">p</text><text xml:space="preserve" font-family="Monaco,Monaco" font-size="64.0" fill="#000000" transform="matrix(1.00, 0.00, -0.00, -1.00, 627.3, 586.2)">o</text><text xml:space="preserve" font-family="Monaco,Monaco" font-size="64.0" fill="#000000" transform="matrix(1.00, 0.00, -0.00, -1.00, 665.7, 586.2)"> </text><text xml:space="preserve" font-family="Monaco,Monaco" font-size="64.0" fill="#000000" transform="matrix(1.00, 0.00, -0.00, -1.00, 243.2, 501.2)">e</text><text xml:space="preserve" font-family="Monaco,Monaco" font-size="64.0" fill="#000000" transform="matrix(1.00, 0.00, -0.00, -1.00, 281.6, 501.2)"> </text><text xml:space="preserve" font-family="Monaco,Monaco" font-size="64.0" fill="#000000" transform="matrix(1.00, 0.00, -0.00, -1.00, 320.0, 501.2)">t</text><text xml:space="preserve" font-family="Monaco,Monaco" font-size="64.0" fill="#000000" transform="matrix(1.00, 0.00, -0.00, -1.00, 358.4, 501.2)">e</text><text xml:space="preserve" font-family="Monaco,Monaco" font-size="64.0" fill="#000000" transform="matrix(1.00, 0.00, -0.00, -1.00, 396.8, 501.2)">s</text><text xml:space="preserve" font-family="Monaco,Monaco" font-size="64.0" fill="#000000" transform="matrix(1.00, 0.00, -0.00, -1.00, 435.2, 501.2)">t</text><text xml:space="preserve" font-family="Monaco,Monaco" font-size="64.0" fill="#000000" transform="matrix(1.00, 0.00, -0.00, -1.00, 473.6, 501.2)">รก</text><text xml:space="preserve" font-family="Monaco,Monaco" font-size="64.0" fill="#000000" transform="matrix(1.00, 0.00, -0.00, -1.00, 512.0, 501.2)">v</text><text xml:space="preserve" font-family="Monaco,Monaco" font-size="64.0" fill="#000000" transform="matrix(1.00, 0.00, -0.00, -1.00, 550.5, 501.2)">e</text><text xml:space="preserve" font-family="Monaco,Monaco" font-size="64.0" fill="#000000" transform="matrix(1.00, 0.00, -0.00, -1.00, 588.9, 501.2)">l</text><text xml:space="preserve" font-family="Monaco,Monaco" font-size="64.0" fill="#000000" transform="matrix(1.00, 0.00, -0.00, -1.00, 627.3, 501.2)"> </text><text xml:space="preserve" font-family="Monaco,Monaco" font-size="64.0" fill="#000000" transform="matrix(1.00, 0.00, -0.00, -1.00, 665.7, 501.2)">c</text><text xml:space="preserve" font-family="Monaco,Monaco" font-size="64.0" fill="#000000" transform="matrix(1.00, 0.00, -0.00, -1.00, 704.1, 501.2)">o</text><text xml:space="preserve" font-family="Monaco,Monaco" font-size="64.0" fill="#000000" transform="matrix(1.00, 0.00, -0.00, -1.00, 742.5, 501.2)">m</text><text xml:space="preserve" font-family="Monaco,Monaco" font-size="64.0" fill="#000000" transform="matrix(1.00, 0.00, -0.00, -1.00, 780.9, 501.2)"> </text><text xml:space="preserve" font-family="Monaco,Monaco" font-size="64.0" fill="#000000" transform="matrix(1.00, 0.00, -0.00, -1.00, 243.2, 416.2)">s</text><text xml:space="preserve" font-family="Monaco,Monaco" font-size="64.0" fill="#000000" transform="matrix(1.00, 0.00, -0.00, -1.00, 281.6, 416.2)">e</text><text xml:space="preserve" font-family="Monaco,Monaco" font-size="64.0" fill="#000000" transform="matrix(1.00, 0.00, -0.00, -1.00, 320.0, 416.2)">g</text><text xml:space="preserve" font-family="Monaco,Monaco" font-size="64.0" fill="#000000" transform="matrix(1.00, 0.00, -0.00, -1.00, 358.4, 416.2)">r</text><text xml:space="preserve" font-family="Monaco,Monaco" font-size="64.0" fill="#000000" transform="matrix(1.00, 0.00, -0.00, -1.00, 396.8, 416.2)">e</text><text xml:space="preserve" font-family="Monaco,Monaco" font-size="64.0" fill="#000000" transform="matrix(1.00, 0.00, -0.00, -1.00, 435.2, 416.2)">g</text><text xml:space="preserve" font-family="Monaco,Monaco" font-size="64.0" fill="#000000" transform="matrix(1.00, 0.00, -0.00, -1.00, 473.6, 416.2)">a</text><text xml:space="preserve" font-family="Monaco,Monaco" font-size="64.0" fill="#000000" transform="matrix(1.00, 0.00, -0.00, -1.00, 512.0, 416.2)">t</text><text xml:space="preserve" font-family="Monaco,Monaco" font-size="64.0" fill="#000000" transform="matrix(1.00, 0.00, -0.00, -1.00, 550.5, 416.2)">e</text><text xml:space="preserve" font-family="Monaco,Monaco" font-size="64.0" fill="#000000" transform="matrix(1.00, 0.00, -0.00, -1.00, 588.9, 416.2)">d</text><text xml:space="preserve" font-family="Monaco,Monaco" font-size="64.0" fill="#000000" transform="matrix(1.00, 0.00, -0.00, -1.00, 627.3, 416.2)"> </text><text xml:space="preserve" font-family="Monaco,Monaco" font-size="64.0" fill="#000000" transform="matrix(1.00, 0.00, -0.00, -1.00, 665.7, 416.2)">D</text><text xml:space="preserve" font-family="Monaco,Monaco" font-size="64.0" fill="#000000" transform="matrix(1.00, 0.00, -0.00, -1.00, 704.1, 416.2)">O</text><text xml:space="preserve" font-family="Monaco,Monaco" font-size="64.0" fill="#000000" transform="matrix(1.00, 0.00, -0.00, -1.00, 742.5, 416.2)">M</text><text xml:space="preserve" font-family="Monaco,Monaco" font-size="30.4" fill="#000000" transform="matrix(1.00, 0.00, -0.00, -1.00, 366.1, 318.5)">L</text><text xml:space="preserve" font-family="Monaco,Monaco" font-size="30.4" fill="#000000" transform="matrix(1.00, 0.00, -0.00, -1.00, 384.3, 318.5)">u</text><text xml:space="preserve" font-family="Monaco,Monaco" font-size="30.4" fill="#000000" transform="matrix(1.00, 0.00, -0.00, -1.00, 402.5, 318.5)">c</text><text xml:space="preserve" font-family="Monaco,Monaco" font-size="30.4" fill="#000000" transform="matrix(1.00, 0.00, -0.00, -1.00, 420.8, 318.5)">i</text><text xml:space="preserve" font-family="Monaco,Monaco" font-size="30.4" fill="#000000" transform="matrix(1.00, 0.00, -0.00, -1.00, 439.0, 318.5)">a</text><text xml:space="preserve" font-family="Monaco,Monaco" font-size="30.4" fill="#000000" transform="matrix(1.00, 0.00, -0.00, -1.00, 457.3, 318.5)">n</text><text xml:space="preserve" font-family="Monaco,Monaco" font-size="30.4" fill="#000000" transform="matrix(1.00, 0.00, -0.00, -1.00, 475.5, 318.5)">o</text><text xml:space="preserve" font-family="Monaco,Monaco" font-size="30.4" fill="#000000" transform="matrix(1.00, 0.00, -0.00, -1.00, 493.8, 318.5)"> </text><text xml:space="preserve" font-family="Monaco,Monaco" font-size="30.4" fill="#000000" transform="matrix(1.00, 0.00, -0.00, -1.00, 512.0, 318.5)">R</text><text xml:space="preserve" font-family="Monaco,Monaco" font-size="30.4" fill="#000000" transform="matrix(1.00, 0.00, -0.00, -1.00, 530.3, 318.5)">a</text><text xml:space="preserve" font-family="Monaco,Monaco" font-size="30.4" fill="#000000" transform="matrix(1.00, 0.00, -0.00, -1.00, 548.5, 318.5)">t</text><text xml:space="preserve" font-family="Monaco,Monaco" font-size="30.4" fill="#000000" transform="matrix(1.00, 0.00, -0.00, -1.00, 566.8, 318.5)">a</text><text xml:space="preserve" font-family="Monaco,Monaco" font-size="30.4" fill="#000000" transform="matrix(1.00, 0.00, -0.00, -1.00, 585.0, 318.5)">m</text><text xml:space="preserve" font-family="Monaco,Monaco" font-size="30.4" fill="#000000" transform="matrix(1.00, 0.00, -0.00, -1.00, 603.3, 318.5)">e</text><text xml:space="preserve" font-family="Monaco,Monaco" font-size="30.4" fill="#000000" transform="matrix(1.00, 0.00, -0.00, -1.00, 621.5, 318.5)">r</text><text xml:space="preserve" font-family="Monaco,Monaco" font-size="30.4" fill="#000000" transform="matrix(1.00, 0.00, -0.00, -1.00, 639.7, 318.5)">o</text><text xml:space="preserve" font-family="Monaco,Monaco" font-size="30.4" fill="#000000" transform="matrix(1.00, 0.00, -0.00, -1.00, 347.8, 277.5)">T</text><text xml:space="preserve" font-family="Monaco,Monaco" font-size="30.4" fill="#000000" transform="matrix(1.00, 0.00, -0.00, -1.00, 366.1, 277.5)">D</text><text xml:space="preserve" font-family="Monaco,Monaco" font-size="30.4" fill="#000000" transform="matrix(1.00, 0.00, -0.00, -1.00, 384.3, 277.5)">C</text><text xml:space="preserve" font-family="Monaco,Monaco" font-size="30.4" fill="#000000" transform="matrix(1.00, 0.00, -0.00, -1.00, 402.6, 277.5)"> </text><text xml:space="preserve" font-family="Monaco,Monaco" font-size="30.4" fill="#000000" transform="matrix(1.00, 0.00, -0.00, -1.00, 420.8, 277.5)">-</text><text xml:space="preserve" font-family="Monaco,Monaco" font-size="30.4" fill="#000000" transform="matrix(1.00, 0.00, -0.00, -1.00, 439.0, 277.5)"> </text><text xml:space="preserve" font-family="Monaco,Monaco" font-size="30.4" fill="#000000" transform="matrix(1.00, 0.00, -0.00, -1.00, 457.3, 277.5)">P</text><text xml:space="preserve" font-family="Monaco,Monaco" font-size="30.4" fill="#000000" transform="matrix(1.00, 0.00, -0.00, -1.00, 475.5, 277.5)">o</text><text xml:space="preserve" font-family="Monaco,Monaco" font-size="30.4" fill="#000000" transform="matrix(1.00, 0.00, -0.00, -1.00, 493.8, 277.5)">r</text><text xml:space="preserve" font-family="Monaco,Monaco" font-size="30.4" fill="#000000" transform="matrix(1.00, 0.00, -0.00, -1.00, 512.0, 277.5)">t</text><text xml:space="preserve" font-family="Monaco,Monaco" font-size="30.4" fill="#000000" transform="matrix(1.00, 0.00, -0.00, -1.00, 530.3, 277.5)">o</text><text xml:space="preserve" font-family="Monaco,Monaco" font-size="30.4" fill="#000000" transform="matrix(1.00, 0.00, -0.00, -1.00, 548.5, 277.5)"> </text><text xml:space="preserve" font-family="Monaco,Monaco" font-size="30.4" fill="#000000" transform="matrix(1.00, 0.00, -0.00, -1.00, 566.8, 277.5)">A</text><text xml:space="preserve" font-family="Monaco,Monaco" font-size="30.4" fill="#000000" transform="matrix(1.00, 0.00, -0.00, -1.00, 585.0, 277.5)">l</text><text xml:space="preserve" font-family="Monaco,Monaco" font-size="30.4" fill="#000000" transform="matrix(1.00, 0.00, -0.00, -1.00, 603.3, 277.5)">e</text><text xml:space="preserve" font-family="Monaco,Monaco" font-size="30.4" fill="#000000" transform="matrix(1.00, 0.00, -0.00, -1.00, 621.5, 277.5)">g</text><text xml:space="preserve" font-family="Monaco,Monaco" font-size="30.4" fill="#000000" transform="matrix(1.00, 0.00, -0.00, -1.00, 639.7, 277.5)">r</text><text xml:space="preserve" font-family="Monaco,Monaco" font-size="30.4" fill="#000000" transform="matrix(1.00, 0.00, -0.00, -1.00, 658.0, 277.5)">e</text><text xml:space="preserve" font-family="Monaco,Monaco" font-size="30.4" fill="#000000" transform="matrix(1.00, 0.00, -0.00, -1.00, 375.2, 236.5)">s</text><text xml:space="preserve" font-family="Monaco,Monaco" font-size="30.4" fill="#000000" transform="matrix(1.00, 0.00, -0.00, -1.00, 393.4, 236.5)">e</text><text xml:space="preserve" font-family="Monaco,Monaco" font-size="30.4" fill="#000000" transform="matrix(1.00, 0.00, -0.00, -1.00, 411.7, 236.5)">t</text><text xml:space="preserve" font-family="Monaco,Monaco" font-size="30.4" fill="#000000" transform="matrix(1.00, 0.00, -0.00, -1.00, 429.9, 236.5)">e</text><text xml:space="preserve" font-family="Monaco,Monaco" font-size="30.4" fill="#000000" transform="matrix(1.00, 0.00, -0.00, -1.00, 448.2, 236.5)">m</text><text xml:space="preserve" font-family="Monaco,Monaco" font-size="30.4" fill="#000000" transform="matrix(1.00, 0.00, -0.00, -1.00, 466.4, 236.5)">b</text><text xml:space="preserve" font-family="Monaco,Monaco" font-size="30.4" fill="#000000" transform="matrix(1.00, 0.00, -0.00, -1.00, 484.7, 236.5)">r</text><text xml:space="preserve" font-family="Monaco,Monaco" font-size="30.4" fill="#000000" transform="matrix(1.00, 0.00, -0.00, -1.00, 502.9, 236.5)">o</text><text xml:space="preserve" font-family="Monaco,Monaco" font-size="30.4" fill="#000000" transform="matrix(1.00, 0.00, -0.00, -1.00, 521.1, 236.5)"> </text><text xml:space="preserve" font-family="Monaco,Monaco" font-size="30.4" fill="#000000" transform="matrix(1.00, 0.00, -0.00, -1.00, 539.4, 236.5)">-</text><text xml:space="preserve" font-family="Monaco,Monaco" font-size="30.4" fill="#000000" transform="matrix(1.00, 0.00, -0.00, -1.00, 557.6, 236.5)"> </text><text xml:space="preserve" font-family="Monaco,Monaco" font-size="30.4" fill="#000000" transform="matrix(1.00, 0.00, -0.00, -1.00, 575.9, 236.5)">2</text><text xml:space="preserve" font-family="Monaco,Monaco" font-size="30.4" fill="#000000" transform="matrix(1.00, 0.00, -0.00, -1.00, 594.1, 236.5)">0</text><text xml:space="preserve" font-family="Monaco,Monaco" font-size="30.4" fill="#000000" transform="matrix(1.00, 0.00, -0.00, -1.00, 612.4, 236.5)">1</text><text xml:space="preserve" font-family="Monaco,Monaco" font-size="30.4" fill="#000000" transform="matrix(1.00, 0.00, -0.00, -1.00, 630.6, 236.5)">5</text><image xlink:href="6B6A3207FF625922FB1BACF4B22FB15F.png" width="460.00" height="154.00" transform="matrix(0.72, 0.00, -0.00, -0.72, 347.0, 181.0)"></image></g></svg>