<?xml version="1.0" encoding="UTF-8" standalone="no"?><svg xmlns="http://www.w3.org/2000/svg" xmlns:xlink="http://www.w3.org/1999/xlink" clip-rule="evenodd" stroke-miterlimit="10" viewBox="0 0 1024 768"><desc>SVG generated by Keynote</desc><defs></defs><g transform="matrix(1.00, 0.00, -0.00, -1.00, 0.0, 768.0)"><path d="M 0.0 768.0 L 1024.0 768.0 L 1024.0 0.0 L 0.0 0.0 Z M 0.0 768.0 " fill="#F4F4F4"></path><g><clipPath id="clip0x7fda2a87b580"><path d="M 0.0 768.0 L 1024.0 768.0 L 1024.0 0.0 L 0.0 0.0 Z M 0.0 768.0 "></path></clipPath><g clip-path="url(#clip0x7fda2a87b580)"><image xlink:href="../../9749128A-D4AC-4EC5-BEF7-F1460E012272/assets/AE44E954C082238280392B6FBE9CC7F1.jpeg" width="4096.00" height="3072.00" transform="matrix(0.25, 0.00, -0.00, -0.25, 0.0, 768.0)"></image></g></g><text xml:space="preserve" font-family="Helvetica-Bold,Helvetica" font-weight="bold" font-size="259.0" fill="#FEFFFF" transform="matrix(1.00, 0.00, -0.00, -1.00, 15.6, 288.1)">B</text><text xml:space="preserve" font-family="Helvetica-Bold,Helvetica" font-weight="bold" font-size="259.0" fill="#FEFFFF" transform="matrix(1.00, 0.00, -0.00, -1.00, 202.7, 288.1)">R</text><text xml:space="preserve" font-family="Helvetica-Bold,Helvetica" font-weight="bold" font-size="259.0" fill="#FEFFFF" transform="matrix(1.00, 0.00, -0.00, -1.00, 389.7, 288.1)">I</text><text xml:space="preserve" font-family="Helvetica-Bold,Helvetica" font-weight="bold" font-size="259.0" fill="#FEFFFF" transform="matrix(1.00, 0.00, -0.00, -1.00, 461.8, 288.1)">N</text><text xml:space="preserve" font-family="Helvetica-Bold,Helvetica" font-weight="bold" font-size="259.0" fill="#FEFFFF" transform="matrix(1.00, 0.00, -0.00, -1.00, 648.9, 288.1)">K</text><text xml:space="preserve" font-family="Helvetica-Bold,Helvetica" font-weight="bold" font-size="259.0" fill="#FEFFFF" transform="matrix(1.00, 0.00, -0.00, -1.00, 835.9, 288.1)">S</text></g></svg>