<?xml version="1.0" encoding="UTF-8" standalone="no"?><svg xmlns="http://www.w3.org/2000/svg" xmlns:xlink="http://www.w3.org/1999/xlink" clip-rule="evenodd" stroke-miterlimit="10" viewBox="0 0 1024 768"><desc>SVG generated by Keynote</desc><defs></defs><g transform="matrix(1.00, 0.00, -0.00, -1.00, 0.0, 768.0)"><path d="M 0.0 768.0 L 1024.0 768.0 L 1024.0 0.0 L 0.0 0.0 Z M 0.0 768.0 " fill="#F4F4F4"></path><text xml:space="preserve" font-family="Monaco,Monaco" font-size="48.8" fill="#000000" transform="matrix(1.00, 0.00, -0.00, -1.00, 277.7, 685.3)">j</text><text xml:space="preserve" font-family="Monaco,Monaco" font-size="48.8" fill="#000000" transform="matrix(1.00, 0.00, -0.00, -1.00, 307.0, 685.3)">s</text><text xml:space="preserve" font-family="Monaco,Monaco" font-size="48.8" fill="#000000" transform="matrix(1.00, 0.00, -0.00, -1.00, 336.3, 685.3)"> </text><text xml:space="preserve" font-family="Monaco,Monaco" font-size="48.8" fill="#000000" transform="matrix(1.00, 0.00, -0.00, -1.00, 365.6, 685.3)">é</text><text xml:space="preserve" font-family="Monaco,Monaco" font-size="48.8" fill="#000000" transform="matrix(1.00, 0.00, -0.00, -1.00, 394.9, 685.3)"> </text><text xml:space="preserve" font-family="Monaco,Monaco" font-size="48.8" fill="#000000" transform="matrix(1.00, 0.00, -0.00, -1.00, 424.2, 685.3)">f</text><text xml:space="preserve" font-family="Monaco,Monaco" font-size="48.8" fill="#000000" transform="matrix(1.00, 0.00, -0.00, -1.00, 453.5, 685.3)">e</text><text xml:space="preserve" font-family="Monaco,Monaco" font-size="48.8" fill="#000000" transform="matrix(1.00, 0.00, -0.00, -1.00, 482.7, 685.3)">i</text><text xml:space="preserve" font-family="Monaco,Monaco" font-size="48.8" fill="#000000" transform="matrix(1.00, 0.00, -0.00, -1.00, 512.0, 685.3)">o</text><text xml:space="preserve" font-family="Monaco,Monaco" font-size="48.8" fill="#000000" transform="matrix(1.00, 0.00, -0.00, -1.00, 541.3, 685.3)"> </text><text xml:space="preserve" font-family="Monaco,Monaco" font-size="48.8" fill="#000000" transform="matrix(1.00, 0.00, -0.00, -1.00, 570.6, 685.3)">e</text><text xml:space="preserve" font-family="Monaco,Monaco" font-size="48.8" fill="#000000" transform="matrix(1.00, 0.00, -0.00, -1.00, 599.9, 685.3)"> </text><text xml:space="preserve" font-family="Monaco,Monaco" font-size="48.8" fill="#000000" transform="matrix(1.00, 0.00, -0.00, -1.00, 629.2, 685.3)">b</text><text xml:space="preserve" font-family="Monaco,Monaco" font-size="48.8" fill="#000000" transform="matrix(1.00, 0.00, -0.00, -1.00, 658.5, 685.3)">o</text><text xml:space="preserve" font-family="Monaco,Monaco" font-size="48.8" fill="#000000" transform="matrix(1.00, 0.00, -0.00, -1.00, 687.8, 685.3)">b</text><text xml:space="preserve" font-family="Monaco,Monaco" font-size="48.8" fill="#000000" transform="matrix(1.00, 0.00, -0.00, -1.00, 717.1, 685.3)">o</text><image xlink:href="../../C48B36DA-12CA-4111-906D-E606D6CF8912/assets/48A7859A47CB3AEF366D5F9E47D45F17.png" width="1323.00" height="928.00" transform="matrix(0.55, 0.00, -0.00, -0.55, 150.0, 643.0)"></image><text xml:space="preserve" font-family="Monaco,Monaco" font-size="27.0" fill="#000000" transform="matrix(1.00, 0.00, -0.00, -1.00, 131.2, 77.6)">*</text><text xml:space="preserve" font-family="Monaco,Monaco" font-size="27.0" fill="#000000" transform="matrix(1.00, 0.00, -0.00, -1.00, 147.4, 77.6)">c</text><text xml:space="preserve" font-family="Monaco,Monaco" font-size="27.0" fill="#000000" transform="matrix(1.00, 0.00, -0.00, -1.00, 163.6, 77.6)">ó</text><text xml:space="preserve" font-family="Monaco,Monaco" font-size="27.0" fill="#000000" transform="matrix(1.00, 0.00, -0.00, -1.00, 179.9, 77.6)">d</text><text xml:space="preserve" font-family="Monaco,Monaco" font-size="27.0" fill="#000000" transform="matrix(1.00, 0.00, -0.00, -1.00, 196.1, 77.6)">i</text><text xml:space="preserve" font-family="Monaco,Monaco" font-size="27.0" fill="#000000" transform="matrix(1.00, 0.00, -0.00, -1.00, 212.3, 77.6)">g</text><text xml:space="preserve" font-family="Monaco,Monaco" font-size="27.0" fill="#000000" transform="matrix(1.00, 0.00, -0.00, -1.00, 228.5, 77.6)">o</text><text xml:space="preserve" font-family="Monaco,Monaco" font-size="27.0" fill="#000000" transform="matrix(1.00, 0.00, -0.00, -1.00, 244.7, 77.6)"> </text><text xml:space="preserve" font-family="Monaco,Monaco" font-size="27.0" fill="#000000" transform="matrix(1.00, 0.00, -0.00, -1.00, 260.9, 77.6)">d</text><text xml:space="preserve" font-family="Monaco,Monaco" font-size="27.0" fill="#000000" transform="matrix(1.00, 0.00, -0.00, -1.00, 277.1, 77.6)">e</text><text xml:space="preserve" font-family="Monaco,Monaco" font-size="27.0" fill="#000000" transform="matrix(1.00, 0.00, -0.00, -1.00, 293.3, 77.6)"> </text><text xml:space="preserve" font-family="Monaco,Monaco" font-size="27.0" fill="#000000" transform="matrix(1.00, 0.00, -0.00, -1.00, 309.5, 77.6)">v</text><text xml:space="preserve" font-family="Monaco,Monaco" font-size="27.0" fill="#000000" transform="matrix(1.00, 0.00, -0.00, -1.00, 325.7, 77.6)">e</text><text xml:space="preserve" font-family="Monaco,Monaco" font-size="27.0" fill="#000000" transform="matrix(1.00, 0.00, -0.00, -1.00, 341.9, 77.6)">r</text><text xml:space="preserve" font-family="Monaco,Monaco" font-size="27.0" fill="#000000" transform="matrix(1.00, 0.00, -0.00, -1.00, 358.1, 77.6)">d</text><text xml:space="preserve" font-family="Monaco,Monaco" font-size="27.0" fill="#000000" transform="matrix(1.00, 0.00, -0.00, -1.00, 374.3, 77.6)">a</text><text xml:space="preserve" font-family="Monaco,Monaco" font-size="27.0" fill="#000000" transform="matrix(1.00, 0.00, -0.00, -1.00, 390.5, 77.6)">d</text><text xml:space="preserve" font-family="Monaco,Monaco" font-size="27.0" fill="#000000" transform="matrix(1.00, 0.00, -0.00, -1.00, 406.7, 77.6)">e</text><text xml:space="preserve" font-family="Monaco,Monaco" font-size="27.0" fill="#000000" transform="matrix(1.00, 0.00, -0.00, -1.00, 422.9, 77.6)">,</text><text xml:space="preserve" font-family="Monaco,Monaco" font-size="27.0" fill="#000000" transform="matrix(1.00, 0.00, -0.00, -1.00, 439.1, 77.6)"> </text><text xml:space="preserve" font-family="Monaco,Monaco" font-size="27.0" fill="#000000" transform="matrix(1.00, 0.00, -0.00, -1.00, 455.3, 77.6)">e</text><text xml:space="preserve" font-family="Monaco,Monaco" font-size="27.0" fill="#000000" transform="matrix(1.00, 0.00, -0.00, -1.00, 471.6, 77.6)">m</text><text xml:space="preserve" font-family="Monaco,Monaco" font-size="27.0" fill="#000000" transform="matrix(1.00, 0.00, -0.00, -1.00, 487.8, 77.6)"> </text><text xml:space="preserve" font-family="Monaco,Monaco" font-size="27.0" fill="#000000" transform="matrix(1.00, 0.00, -0.00, -1.00, 504.0, 77.6)">p</text><text xml:space="preserve" font-family="Monaco,Monaco" font-size="27.0" fill="#000000" transform="matrix(1.00, 0.00, -0.00, -1.00, 520.2, 77.6)">r</text><text xml:space="preserve" font-family="Monaco,Monaco" font-size="27.0" fill="#000000" transform="matrix(1.00, 0.00, -0.00, -1.00, 536.4, 77.6)">o</text><text xml:space="preserve" font-family="Monaco,Monaco" font-size="27.0" fill="#000000" transform="matrix(1.00, 0.00, -0.00, -1.00, 552.6, 77.6)">d</text><text xml:space="preserve" font-family="Monaco,Monaco" font-size="27.0" fill="#000000" transform="matrix(1.00, 0.00, -0.00, -1.00, 568.8, 77.6)">u</text><text xml:space="preserve" font-family="Monaco,Monaco" font-size="27.0" fill="#000000" transform="matrix(1.00, 0.00, -0.00, -1.00, 585.0, 77.6)">ç</text><text xml:space="preserve" font-family="Monaco,Monaco" font-size="27.0" fill="#000000" transform="matrix(1.00, 0.00, -0.00, -1.00, 601.2, 77.6)">ã</text><text xml:space="preserve" font-family="Monaco,Monaco" font-size="27.0" fill="#000000" transform="matrix(1.00, 0.00, -0.00, -1.00, 617.4, 77.6)">o</text><text xml:space="preserve" font-family="Monaco,Monaco" font-size="27.0" fill="#000000" transform="matrix(1.00, 0.00, -0.00, -1.00, 633.6, 77.6)">,</text><text xml:space="preserve" font-family="Monaco,Monaco" font-size="27.0" fill="#000000" transform="matrix(1.00, 0.00, -0.00, -1.00, 649.8, 77.6)"> </text><text xml:space="preserve" font-family="Monaco,Monaco" font-size="27.0" fill="#000000" transform="matrix(1.00, 0.00, -0.00, -1.00, 666.0, 77.6)">d</text><text xml:space="preserve" font-family="Monaco,Monaco" font-size="27.0" fill="#000000" transform="matrix(1.00, 0.00, -0.00, -1.00, 682.2, 77.6)">o</text><text xml:space="preserve" font-family="Monaco,Monaco" font-size="27.0" fill="#000000" transform="matrix(1.00, 0.00, -0.00, -1.00, 698.4, 77.6)"> </text><text xml:space="preserve" font-family="Monaco,Monaco" font-size="27.0" fill="#000000" transform="matrix(1.00, 0.00, -0.00, -1.00, 714.6, 77.6)">p</text><text xml:space="preserve" font-family="Monaco,Monaco" font-size="27.0" fill="#000000" transform="matrix(1.00, 0.00, -0.00, -1.00, 730.8, 77.6)">r</text><text xml:space="preserve" font-family="Monaco,Monaco" font-size="27.0" fill="#000000" transform="matrix(1.00, 0.00, -0.00, -1.00, 747.0, 77.6)">o</text><text xml:space="preserve" font-family="Monaco,Monaco" font-size="27.0" fill="#000000" transform="matrix(1.00, 0.00, -0.00, -1.00, 763.2, 77.6)">j</text><text xml:space="preserve" font-family="Monaco,Monaco" font-size="27.0" fill="#000000" transform="matrix(1.00, 0.00, -0.00, -1.00, 779.5, 77.6)">e</text><text xml:space="preserve" font-family="Monaco,Monaco" font-size="27.0" fill="#000000" transform="matrix(1.00, 0.00, -0.00, -1.00, 795.7, 77.6)">t</text><text xml:space="preserve" font-family="Monaco,Monaco" font-size="27.0" fill="#000000" transform="matrix(1.00, 0.00, -0.00, -1.00, 811.9, 77.6)">o</text><text xml:space="preserve" font-family="Monaco,Monaco" font-size="27.0" fill="#000000" transform="matrix(1.00, 0.00, -0.00, -1.00, 828.1, 77.6)"> </text><text xml:space="preserve" font-family="Monaco,Monaco" font-size="27.0" fill="#000000" transform="matrix(1.00, 0.00, -0.00, -1.00, 844.3, 77.6)">q</text><text xml:space="preserve" font-family="Monaco,Monaco" font-size="27.0" fill="#000000" transform="matrix(1.00, 0.00, -0.00, -1.00, 860.5, 77.6)">u</text><text xml:space="preserve" font-family="Monaco,Monaco" font-size="27.0" fill="#000000" transform="matrix(1.00, 0.00, -0.00, -1.00, 876.7, 77.6)">e</text><text xml:space="preserve" font-family="Monaco,Monaco" font-size="27.0" fill="#000000" transform="matrix(1.00, 0.00, -0.00, -1.00, 892.9, 77.6)"> </text><text xml:space="preserve" font-family="Monaco,Monaco" font-size="27.0" fill="#000000" transform="matrix(1.00, 0.00, -0.00, -1.00, 220.4, 41.6)">p</text><text xml:space="preserve" font-family="Monaco,Monaco" font-size="27.0" fill="#000000" transform="matrix(1.00, 0.00, -0.00, -1.00, 236.6, 41.6)">e</text><text xml:space="preserve" font-family="Monaco,Monaco" font-size="27.0" fill="#000000" transform="matrix(1.00, 0.00, -0.00, -1.00, 252.8, 41.6)">g</text><text xml:space="preserve" font-family="Monaco,Monaco" font-size="27.0" fill="#000000" transform="matrix(1.00, 0.00, -0.00, -1.00, 269.0, 41.6)">u</text><text xml:space="preserve" font-family="Monaco,Monaco" font-size="27.0" fill="#000000" transform="matrix(1.00, 0.00, -0.00, -1.00, 285.2, 41.6)">e</text><text xml:space="preserve" font-family="Monaco,Monaco" font-size="27.0" fill="#000000" transform="matrix(1.00, 0.00, -0.00, -1.00, 301.4, 41.6)">i</text><text xml:space="preserve" font-family="Monaco,Monaco" font-size="27.0" fill="#000000" transform="matrix(1.00, 0.00, -0.00, -1.00, 317.6, 41.6)"> </text><text xml:space="preserve" font-family="Monaco,Monaco" font-size="27.0" fill="#000000" transform="matrix(1.00, 0.00, -0.00, -1.00, 333.8, 41.6)">p</text><text xml:space="preserve" font-family="Monaco,Monaco" font-size="27.0" fill="#000000" transform="matrix(1.00, 0.00, -0.00, -1.00, 350.0, 41.6)">r</text><text xml:space="preserve" font-family="Monaco,Monaco" font-size="27.0" fill="#000000" transform="matrix(1.00, 0.00, -0.00, -1.00, 366.2, 41.6)">a</text><text xml:space="preserve" font-family="Monaco,Monaco" font-size="27.0" fill="#000000" transform="matrix(1.00, 0.00, -0.00, -1.00, 382.4, 41.6)"> </text><text xml:space="preserve" font-family="Monaco,Monaco" font-size="27.0" fill="#000000" transform="matrix(1.00, 0.00, -0.00, -1.00, 398.6, 41.6)">a</text><text xml:space="preserve" font-family="Monaco,Monaco" font-size="27.0" fill="#000000" transform="matrix(1.00, 0.00, -0.00, -1.00, 414.8, 41.6)">p</text><text xml:space="preserve" font-family="Monaco,Monaco" font-size="27.0" fill="#000000" transform="matrix(1.00, 0.00, -0.00, -1.00, 431.0, 41.6)">r</text><text xml:space="preserve" font-family="Monaco,Monaco" font-size="27.0" fill="#000000" transform="matrix(1.00, 0.00, -0.00, -1.00, 447.2, 41.6)">e</text><text xml:space="preserve" font-family="Monaco,Monaco" font-size="27.0" fill="#000000" transform="matrix(1.00, 0.00, -0.00, -1.00, 463.4, 41.6)">n</text><text xml:space="preserve" font-family="Monaco,Monaco" font-size="27.0" fill="#000000" transform="matrix(1.00, 0.00, -0.00, -1.00, 479.6, 41.6)">d</text><text xml:space="preserve" font-family="Monaco,Monaco" font-size="27.0" fill="#000000" transform="matrix(1.00, 0.00, -0.00, -1.00, 495.8, 41.6)">e</text><text xml:space="preserve" font-family="Monaco,Monaco" font-size="27.0" fill="#000000" transform="matrix(1.00, 0.00, -0.00, -1.00, 512.0, 41.6)">r</text><text xml:space="preserve" font-family="Monaco,Monaco" font-size="27.0" fill="#000000" transform="matrix(1.00, 0.00, -0.00, -1.00, 528.3, 41.6)"> </text><text xml:space="preserve" font-family="Monaco,Monaco" font-size="27.0" fill="#000000" transform="matrix(1.00, 0.00, -0.00, -1.00, 544.5, 41.6)">j</text><text xml:space="preserve" font-family="Monaco,Monaco" font-size="27.0" fill="#000000" transform="matrix(1.00, 0.00, -0.00, -1.00, 560.7, 41.6)">s</text><text xml:space="preserve" font-family="Monaco,Monaco" font-size="27.0" fill="#000000" transform="matrix(1.00, 0.00, -0.00, -1.00, 576.9, 41.6)">,</text><text xml:space="preserve" font-family="Monaco,Monaco" font-size="27.0" fill="#000000" transform="matrix(1.00, 0.00, -0.00, -1.00, 593.1, 41.6)"> </text><text xml:space="preserve" font-family="Monaco,Monaco" font-size="27.0" fill="#000000" transform="matrix(1.00, 0.00, -0.00, -1.00, 609.3, 41.6)">4</text><text xml:space="preserve" font-family="Monaco,Monaco" font-size="27.0" fill="#000000" transform="matrix(1.00, 0.00, -0.00, -1.00, 625.5, 41.6)"> </text><text xml:space="preserve" font-family="Monaco,Monaco" font-size="27.0" fill="#000000" transform="matrix(1.00, 0.00, -0.00, -1.00, 641.7, 41.6)">a</text><text xml:space="preserve" font-family="Monaco,Monaco" font-size="27.0" fill="#000000" transform="matrix(1.00, 0.00, -0.00, -1.00, 657.9, 41.6)">n</text><text xml:space="preserve" font-family="Monaco,Monaco" font-size="27.0" fill="#000000" transform="matrix(1.00, 0.00, -0.00, -1.00, 674.1, 41.6)">o</text><text xml:space="preserve" font-family="Monaco,Monaco" font-size="27.0" fill="#000000" transform="matrix(1.00, 0.00, -0.00, -1.00, 690.3, 41.6)">s</text><text xml:space="preserve" font-family="Monaco,Monaco" font-size="27.0" fill="#000000" transform="matrix(1.00, 0.00, -0.00, -1.00, 706.5, 41.6)"> </text><text xml:space="preserve" font-family="Monaco,Monaco" font-size="27.0" fill="#000000" transform="matrix(1.00, 0.00, -0.00, -1.00, 722.7, 41.6)">a</text><text xml:space="preserve" font-family="Monaco,Monaco" font-size="27.0" fill="#000000" transform="matrix(1.00, 0.00, -0.00, -1.00, 738.9, 41.6)">t</text><text xml:space="preserve" font-family="Monaco,Monaco" font-size="27.0" fill="#000000" transform="matrix(1.00, 0.00, -0.00, -1.00, 755.1, 41.6)">r</text><text xml:space="preserve" font-family="Monaco,Monaco" font-size="27.0" fill="#000000" transform="matrix(1.00, 0.00, -0.00, -1.00, 771.3, 41.6)">á</text><text xml:space="preserve" font-family="Monaco,Monaco" font-size="27.0" fill="#000000" transform="matrix(1.00, 0.00, -0.00, -1.00, 787.5, 41.6)">s</text></g></svg>