<?xml version="1.0" encoding="UTF-8" standalone="no"?><svg xmlns="http://www.w3.org/2000/svg" xmlns:xlink="http://www.w3.org/1999/xlink" clip-rule="evenodd" stroke-miterlimit="10" viewBox="0 0 1024 768"><desc>SVG generated by Keynote</desc><defs></defs><g transform="matrix(1.00, 0.00, -0.00, -1.00, 0.0, 768.0)"><path d="M 0.0 768.0 L 1024.0 768.0 L 1024.0 0.0 L 0.0 0.0 Z M 0.0 768.0 " fill="#F4F4F4"></path><text xml:space="preserve" font-family="Monaco,Monaco" font-size="50.0" fill="#000000" transform="matrix(1.00, 0.00, -0.00, -1.00, 151.9, 431.8)">p</text><text xml:space="preserve" font-family="Monaco,Monaco" font-size="50.0" fill="#000000" transform="matrix(1.00, 0.00, -0.00, -1.00, 182.0, 431.8)">r</text><text xml:space="preserve" font-family="Monaco,Monaco" font-size="50.0" fill="#000000" transform="matrix(1.00, 0.00, -0.00, -1.00, 212.0, 431.8)">i</text><text xml:space="preserve" font-family="Monaco,Monaco" font-size="50.0" fill="#000000" transform="matrix(1.00, 0.00, -0.00, -1.00, 242.0, 431.8)">m</text><text xml:space="preserve" font-family="Monaco,Monaco" font-size="50.0" fill="#000000" transform="matrix(1.00, 0.00, -0.00, -1.00, 272.0, 431.8)">e</text><text xml:space="preserve" font-family="Monaco,Monaco" font-size="50.0" fill="#000000" transform="matrix(1.00, 0.00, -0.00, -1.00, 302.0, 431.8)">i</text><text xml:space="preserve" font-family="Monaco,Monaco" font-size="50.0" fill="#000000" transform="matrix(1.00, 0.00, -0.00, -1.00, 332.0, 431.8)">r</text><text xml:space="preserve" font-family="Monaco,Monaco" font-size="50.0" fill="#000000" transform="matrix(1.00, 0.00, -0.00, -1.00, 362.0, 431.8)">a</text><text xml:space="preserve" font-family="Monaco,Monaco" font-size="50.0" fill="#000000" transform="matrix(1.00, 0.00, -0.00, -1.00, 392.0, 431.8)"> </text><text xml:space="preserve" font-family="Monaco,Monaco" font-size="50.0" fill="#000000" transform="matrix(1.00, 0.00, -0.00, -1.00, 422.0, 431.8)">p</text><text xml:space="preserve" font-family="Monaco,Monaco" font-size="50.0" fill="#000000" transform="matrix(1.00, 0.00, -0.00, -1.00, 452.0, 431.8)">a</text><text xml:space="preserve" font-family="Monaco,Monaco" font-size="50.0" fill="#000000" transform="matrix(1.00, 0.00, -0.00, -1.00, 482.1, 431.8)">l</text><text xml:space="preserve" font-family="Monaco,Monaco" font-size="50.0" fill="#000000" transform="matrix(1.00, 0.00, -0.00, -1.00, 512.1, 431.8)">e</text><text xml:space="preserve" font-family="Monaco,Monaco" font-size="50.0" fill="#000000" transform="matrix(1.00, 0.00, -0.00, -1.00, 542.1, 431.8)">s</text><text xml:space="preserve" font-family="Monaco,Monaco" font-size="50.0" fill="#000000" transform="matrix(1.00, 0.00, -0.00, -1.00, 572.1, 431.8)">t</text><text xml:space="preserve" font-family="Monaco,Monaco" font-size="50.0" fill="#000000" transform="matrix(1.00, 0.00, -0.00, -1.00, 602.1, 431.8)">r</text><text xml:space="preserve" font-family="Monaco,Monaco" font-size="50.0" fill="#000000" transform="matrix(1.00, 0.00, -0.00, -1.00, 632.1, 431.8)">a</text><text xml:space="preserve" font-family="Monaco,Monaco" font-size="50.0" fill="#000000" transform="matrix(1.00, 0.00, -0.00, -1.00, 662.1, 431.8)"> </text><text xml:space="preserve" font-family="Monaco,Monaco" font-size="50.0" fill="#000000" transform="matrix(1.00, 0.00, -0.00, -1.00, 692.1, 431.8)">g</text><text xml:space="preserve" font-family="Monaco,Monaco" font-size="50.0" fill="#000000" transform="matrix(1.00, 0.00, -0.00, -1.00, 722.1, 431.8)">r</text><text xml:space="preserve" font-family="Monaco,Monaco" font-size="50.0" fill="#000000" transform="matrix(1.00, 0.00, -0.00, -1.00, 752.1, 431.8)">a</text><text xml:space="preserve" font-family="Monaco,Monaco" font-size="50.0" fill="#000000" transform="matrix(1.00, 0.00, -0.00, -1.00, 782.1, 431.8)">n</text><text xml:space="preserve" font-family="Monaco,Monaco" font-size="50.0" fill="#000000" transform="matrix(1.00, 0.00, -0.00, -1.00, 812.2, 431.8)">d</text><text xml:space="preserve" font-family="Monaco,Monaco" font-size="50.0" fill="#000000" transform="matrix(1.00, 0.00, -0.00, -1.00, 842.2, 431.8)">e</text><text xml:space="preserve" font-family="Monaco,Monaco" font-size="50.0" fill="#000000" transform="matrix(1.00, 0.00, -0.00, -1.00, 467.0, 364.8)">=</text><text xml:space="preserve" font-family="Monaco,Monaco" font-size="50.0" fill="#000000" transform="matrix(1.00, 0.00, -0.00, -1.00, 497.0, 364.8)">=</text><text xml:space="preserve" font-family="Monaco,Monaco" font-size="50.0" fill="#000000" transform="matrix(1.00, 0.00, -0.00, -1.00, 527.0, 364.8)">=</text><text xml:space="preserve" font-family="Monaco,Monaco" font-size="50.0" fill="#000000" transform="matrix(1.00, 0.00, -0.00, -1.00, 166.9, 297.8)">c</text><text xml:space="preserve" font-family="Monaco,Monaco" font-size="50.0" fill="#000000" transform="matrix(1.00, 0.00, -0.00, -1.00, 197.0, 297.8)">o</text><text xml:space="preserve" font-family="Monaco,Monaco" font-size="50.0" fill="#000000" transform="matrix(1.00, 0.00, -0.00, -1.00, 227.0, 297.8)">n</text><text xml:space="preserve" font-family="Monaco,Monaco" font-size="50.0" fill="#000000" transform="matrix(1.00, 0.00, -0.00, -1.00, 257.0, 297.8)">t</text><text xml:space="preserve" font-family="Monaco,Monaco" font-size="50.0" fill="#000000" transform="matrix(1.00, 0.00, -0.00, -1.00, 287.0, 297.8)">a</text><text xml:space="preserve" font-family="Monaco,Monaco" font-size="50.0" fill="#000000" transform="matrix(1.00, 0.00, -0.00, -1.00, 317.0, 297.8)">r</text><text xml:space="preserve" font-family="Monaco,Monaco" font-size="50.0" fill="#000000" transform="matrix(1.00, 0.00, -0.00, -1.00, 347.0, 297.8)"> </text><text xml:space="preserve" font-family="Monaco,Monaco" font-size="50.0" fill="#000000" transform="matrix(1.00, 0.00, -0.00, -1.00, 377.0, 297.8)">h</text><text xml:space="preserve" font-family="Monaco,Monaco" font-size="50.0" fill="#000000" transform="matrix(1.00, 0.00, -0.00, -1.00, 407.0, 297.8)">i</text><text xml:space="preserve" font-family="Monaco,Monaco" font-size="50.0" fill="#000000" transform="matrix(1.00, 0.00, -0.00, -1.00, 437.0, 297.8)">s</text><text xml:space="preserve" font-family="Monaco,Monaco" font-size="50.0" fill="#000000" transform="matrix(1.00, 0.00, -0.00, -1.00, 467.0, 297.8)">t</text><text xml:space="preserve" font-family="Monaco,Monaco" font-size="50.0" fill="#000000" transform="matrix(1.00, 0.00, -0.00, -1.00, 497.1, 297.8)">รณ</text><text xml:space="preserve" font-family="Monaco,Monaco" font-size="50.0" fill="#000000" transform="matrix(1.00, 0.00, -0.00, -1.00, 527.1, 297.8)">r</text><text xml:space="preserve" font-family="Monaco,Monaco" font-size="50.0" fill="#000000" transform="matrix(1.00, 0.00, -0.00, -1.00, 557.1, 297.8)">i</text><text xml:space="preserve" font-family="Monaco,Monaco" font-size="50.0" fill="#000000" transform="matrix(1.00, 0.00, -0.00, -1.00, 587.1, 297.8)">a</text><text xml:space="preserve" font-family="Monaco,Monaco" font-size="50.0" fill="#000000" transform="matrix(1.00, 0.00, -0.00, -1.00, 617.1, 297.8)"> </text><text xml:space="preserve" font-family="Monaco,Monaco" font-size="50.0" fill="#000000" transform="matrix(1.00, 0.00, -0.00, -1.00, 647.1, 297.8)">d</text><text xml:space="preserve" font-family="Monaco,Monaco" font-size="50.0" fill="#000000" transform="matrix(1.00, 0.00, -0.00, -1.00, 677.1, 297.8)">a</text><text xml:space="preserve" font-family="Monaco,Monaco" font-size="50.0" fill="#000000" transform="matrix(1.00, 0.00, -0.00, -1.00, 707.1, 297.8)"> </text><text xml:space="preserve" font-family="Monaco,Monaco" font-size="50.0" fill="#000000" transform="matrix(1.00, 0.00, -0.00, -1.00, 737.1, 297.8)">v</text><text xml:space="preserve" font-family="Monaco,Monaco" font-size="50.0" fill="#000000" transform="matrix(1.00, 0.00, -0.00, -1.00, 767.1, 297.8)">i</text><text xml:space="preserve" font-family="Monaco,Monaco" font-size="50.0" fill="#000000" transform="matrix(1.00, 0.00, -0.00, -1.00, 797.2, 297.8)">d</text><text xml:space="preserve" font-family="Monaco,Monaco" font-size="50.0" fill="#000000" transform="matrix(1.00, 0.00, -0.00, -1.00, 827.2, 297.8)">a</text><text xml:space="preserve" font-family="UbuntuMono-Regular,Ubuntu Mono" font-size="36.0" fill="#000000" transform="matrix(1.00, 0.00, -0.00, -1.00, 431.0, 248.1)">(</text><text xml:space="preserve" font-family="UbuntuMono-Regular,Ubuntu Mono" font-size="36.0" fill="#000000" transform="matrix(1.00, 0.00, -0.00, -1.00, 449.0, 248.1)">e</text><text xml:space="preserve" font-family="UbuntuMono-Regular,Ubuntu Mono" font-size="36.0" fill="#000000" transform="matrix(1.00, 0.00, -0.00, -1.00, 467.0, 248.1)">g</text><text xml:space="preserve" font-family="UbuntuMono-Regular,Ubuntu Mono" font-size="36.0" fill="#000000" transform="matrix(1.00, 0.00, -0.00, -1.00, 485.0, 248.1)">o</text><text xml:space="preserve" font-family="UbuntuMono-Regular,Ubuntu Mono" font-size="36.0" fill="#000000" transform="matrix(1.00, 0.00, -0.00, -1.00, 503.0, 248.1)">t</text><text xml:space="preserve" font-family="UbuntuMono-Regular,Ubuntu Mono" font-size="36.0" fill="#000000" transform="matrix(1.00, 0.00, -0.00, -1.00, 521.0, 248.1)">r</text><text xml:space="preserve" font-family="UbuntuMono-Regular,Ubuntu Mono" font-size="36.0" fill="#000000" transform="matrix(1.00, 0.00, -0.00, -1.00, 539.0, 248.1)">i</text><text xml:space="preserve" font-family="UbuntuMono-Regular,Ubuntu Mono" font-size="36.0" fill="#000000" transform="matrix(1.00, 0.00, -0.00, -1.00, 557.0, 248.1)">p</text><text xml:space="preserve" font-family="UbuntuMono-Regular,Ubuntu Mono" font-size="36.0" fill="#000000" transform="matrix(1.00, 0.00, -0.00, -1.00, 575.0, 248.1)">)</text></g></svg>