<?xml version="1.0" encoding="UTF-8" standalone="no"?><svg xmlns="http://www.w3.org/2000/svg" xmlns:xlink="http://www.w3.org/1999/xlink" clip-rule="evenodd" stroke-miterlimit="10" viewBox="0 0 1024 768"><desc>SVG generated by Keynote</desc><defs></defs><g transform="matrix(1.00, 0.00, -0.00, -1.00, 0.0, 768.0)"><path d="M 0.0 768.0 L 1024.0 768.0 L 1024.0 0.0 L 0.0 0.0 Z M 0.0 768.0 " fill="#F4F4F4"></path><text xml:space="preserve" font-family="Monaco,Monaco" font-size="80.0" fill="#000000" transform="matrix(1.00, 0.00, -0.00, -1.00, 320.0, 460.8)">c</text><text xml:space="preserve" font-family="Monaco,Monaco" font-size="80.0" fill="#000000" transform="matrix(1.00, 0.00, -0.00, -1.00, 368.0, 460.8)">o</text><text xml:space="preserve" font-family="Monaco,Monaco" font-size="80.0" fill="#000000" transform="matrix(1.00, 0.00, -0.00, -1.00, 416.0, 460.8)">m</text><text xml:space="preserve" font-family="Monaco,Monaco" font-size="80.0" fill="#000000" transform="matrix(1.00, 0.00, -0.00, -1.00, 464.0, 460.8)"> </text><text xml:space="preserve" font-family="Monaco,Monaco" font-size="80.0" fill="#000000" transform="matrix(1.00, 0.00, -0.00, -1.00, 512.0, 460.8)">e</text><text xml:space="preserve" font-family="Monaco,Monaco" font-size="80.0" fill="#000000" transform="matrix(1.00, 0.00, -0.00, -1.00, 560.0, 460.8)">s</text><text xml:space="preserve" font-family="Monaco,Monaco" font-size="80.0" fill="#000000" transform="matrix(1.00, 0.00, -0.00, -1.00, 608.1, 460.8)">s</text><text xml:space="preserve" font-family="Monaco,Monaco" font-size="80.0" fill="#000000" transform="matrix(1.00, 0.00, -0.00, -1.00, 656.1, 460.8)">a</text><text xml:space="preserve" font-family="Monaco,Monaco" font-size="80.0" fill="#000000" transform="matrix(1.00, 0.00, -0.00, -1.00, 704.1, 460.8)"> </text><text xml:space="preserve" font-family="Monaco,Monaco" font-size="80.0" fill="#000000" transform="matrix(1.00, 0.00, -0.00, -1.00, 199.9, 353.8)">s</text><text xml:space="preserve" font-family="Monaco,Monaco" font-size="80.0" fill="#000000" transform="matrix(1.00, 0.00, -0.00, -1.00, 248.0, 353.8)">i</text><text xml:space="preserve" font-family="Monaco,Monaco" font-size="80.0" fill="#000000" transform="matrix(1.00, 0.00, -0.00, -1.00, 296.0, 353.8)">m</text><text xml:space="preserve" font-family="Monaco,Monaco" font-size="80.0" fill="#000000" transform="matrix(1.00, 0.00, -0.00, -1.00, 344.0, 353.8)">p</text><text xml:space="preserve" font-family="Monaco,Monaco" font-size="80.0" fill="#000000" transform="matrix(1.00, 0.00, -0.00, -1.00, 392.0, 353.8)">l</text><text xml:space="preserve" font-family="Monaco,Monaco" font-size="80.0" fill="#000000" transform="matrix(1.00, 0.00, -0.00, -1.00, 440.0, 353.8)">i</text><text xml:space="preserve" font-family="Monaco,Monaco" font-size="80.0" fill="#000000" transform="matrix(1.00, 0.00, -0.00, -1.00, 488.0, 353.8)">f</text><text xml:space="preserve" font-family="Monaco,Monaco" font-size="80.0" fill="#000000" transform="matrix(1.00, 0.00, -0.00, -1.00, 536.1, 353.8)">i</text><text xml:space="preserve" font-family="Monaco,Monaco" font-size="80.0" fill="#000000" transform="matrix(1.00, 0.00, -0.00, -1.00, 584.1, 353.8)">c</text><text xml:space="preserve" font-family="Monaco,Monaco" font-size="80.0" fill="#000000" transform="matrix(1.00, 0.00, -0.00, -1.00, 632.1, 353.8)">a</text><text xml:space="preserve" font-family="Monaco,Monaco" font-size="80.0" fill="#000000" transform="matrix(1.00, 0.00, -0.00, -1.00, 680.1, 353.8)">ç</text><text xml:space="preserve" font-family="Monaco,Monaco" font-size="80.0" fill="#000000" transform="matrix(1.00, 0.00, -0.00, -1.00, 728.1, 353.8)">ã</text><text xml:space="preserve" font-family="Monaco,Monaco" font-size="80.0" fill="#000000" transform="matrix(1.00, 0.00, -0.00, -1.00, 776.1, 353.8)">o</text><text xml:space="preserve" font-family="Monaco,Monaco" font-size="80.0" fill="#000000" transform="matrix(1.00, 0.00, -0.00, -1.00, 824.2, 353.8)"> </text><text xml:space="preserve" font-family="Monaco,Monaco" font-size="80.0" fill="#000000" transform="matrix(1.00, 0.00, -0.00, -1.00, 224.0, 246.8)">f</text><text xml:space="preserve" font-family="Monaco,Monaco" font-size="80.0" fill="#000000" transform="matrix(1.00, 0.00, -0.00, -1.00, 272.0, 246.8)">i</text><text xml:space="preserve" font-family="Monaco,Monaco" font-size="80.0" fill="#000000" transform="matrix(1.00, 0.00, -0.00, -1.00, 320.0, 246.8)">c</text><text xml:space="preserve" font-family="Monaco,Monaco" font-size="80.0" fill="#000000" transform="matrix(1.00, 0.00, -0.00, -1.00, 368.0, 246.8)">o</text><text xml:space="preserve" font-family="Monaco,Monaco" font-size="80.0" fill="#000000" transform="matrix(1.00, 0.00, -0.00, -1.00, 416.0, 246.8)">u</text><text xml:space="preserve" font-family="Monaco,Monaco" font-size="80.0" fill="#000000" transform="matrix(1.00, 0.00, -0.00, -1.00, 464.0, 246.8)"> </text><text xml:space="preserve" font-family="Monaco,Monaco" font-size="80.0" fill="#000000" transform="matrix(1.00, 0.00, -0.00, -1.00, 512.0, 246.8)">f</text><text xml:space="preserve" font-family="Monaco,Monaco" font-size="80.0" fill="#000000" transform="matrix(1.00, 0.00, -0.00, -1.00, 560.1, 246.8)">á</text><text xml:space="preserve" font-family="Monaco,Monaco" font-size="80.0" fill="#000000" transform="matrix(1.00, 0.00, -0.00, -1.00, 608.1, 246.8)">c</text><text xml:space="preserve" font-family="Monaco,Monaco" font-size="80.0" fill="#000000" transform="matrix(1.00, 0.00, -0.00, -1.00, 656.1, 246.8)">i</text><text xml:space="preserve" font-family="Monaco,Monaco" font-size="80.0" fill="#000000" transform="matrix(1.00, 0.00, -0.00, -1.00, 704.1, 246.8)">l</text><text xml:space="preserve" font-family="Monaco,Monaco" font-size="80.0" fill="#000000" transform="matrix(1.00, 0.00, -0.00, -1.00, 752.1, 246.8)">…</text></g></svg>