<?xml version="1.0" encoding="UTF-8" standalone="no"?><svg xmlns="http://www.w3.org/2000/svg" xmlns:xlink="http://www.w3.org/1999/xlink" clip-rule="evenodd" stroke-miterlimit="10" viewBox="0 0 1024 768"><desc>SVG generated by Keynote</desc><defs></defs><g transform="matrix(1.00, 0.00, -0.00, -1.00, 0.0, 768.0)"><path d="M 0.0 768.0 L 1024.0 768.0 L 1024.0 0.0 L 0.0 0.0 Z M 0.0 768.0 " fill="#000000"></path><text xml:space="preserve" font-family="UbuntuMono-Regular,Ubuntu Mono" font-size="60.0" fill="#FEFFFF" transform="matrix(1.00, 0.00, -0.00, -1.00, 37.8, 590.6)">c</text><text xml:space="preserve" font-family="UbuntuMono-Regular,Ubuntu Mono" font-size="60.0" fill="#FEFFFF" transform="matrix(1.00, 0.00, -0.00, -1.00, 67.8, 590.6)">o</text><text xml:space="preserve" font-family="UbuntuMono-Regular,Ubuntu Mono" font-size="60.0" fill="#FEFFFF" transform="matrix(1.00, 0.00, -0.00, -1.00, 97.8, 590.6)">n</text><text xml:space="preserve" font-family="UbuntuMono-Regular,Ubuntu Mono" font-size="60.0" fill="#FEFFFF" transform="matrix(1.00, 0.00, -0.00, -1.00, 127.8, 590.6)">t</text><text xml:space="preserve" font-family="UbuntuMono-Regular,Ubuntu Mono" font-size="60.0" fill="#FEFFFF" transform="matrix(1.00, 0.00, -0.00, -1.00, 157.8, 590.6)">a</text><text xml:space="preserve" font-family="UbuntuMono-Regular,Ubuntu Mono" font-size="60.0" fill="#FEFFFF" transform="matrix(1.00, 0.00, -0.00, -1.00, 187.8, 590.6)">c</text><text xml:space="preserve" font-family="UbuntuMono-Regular,Ubuntu Mono" font-size="60.0" fill="#FEFFFF" transform="matrix(1.00, 0.00, -0.00, -1.00, 217.8, 590.6)">t</text><text xml:space="preserve" font-family="UbuntuMono-Regular,Ubuntu Mono" font-size="60.0" fill="#FEFFFF" transform="matrix(1.00, 0.00, -0.00, -1.00, 247.8, 590.6)">F</text><text xml:space="preserve" font-family="UbuntuMono-Regular,Ubuntu Mono" font-size="60.0" fill="#FEFFFF" transform="matrix(1.00, 0.00, -0.00, -1.00, 277.8, 590.6)">o</text><text xml:space="preserve" font-family="UbuntuMono-Regular,Ubuntu Mono" font-size="60.0" fill="#FEFFFF" transform="matrix(1.00, 0.00, -0.00, -1.00, 307.8, 590.6)">r</text><text xml:space="preserve" font-family="UbuntuMono-Regular,Ubuntu Mono" font-size="60.0" fill="#FEFFFF" transform="matrix(1.00, 0.00, -0.00, -1.00, 337.8, 590.6)">m</text><text xml:space="preserve" font-family="UbuntuMono-Regular,Ubuntu Mono" font-size="60.0" fill="#FEFFFF" transform="matrix(1.00, 0.00, -0.00, -1.00, 367.8, 590.6)">.</text><text xml:space="preserve" font-family="UbuntuMono-Regular,Ubuntu Mono" font-size="60.0" fill="#FEFFFF" transform="matrix(1.00, 0.00, -0.00, -1.00, 397.8, 590.6)">j</text><text xml:space="preserve" font-family="UbuntuMono-Regular,Ubuntu Mono" font-size="60.0" fill="#FEFFFF" transform="matrix(1.00, 0.00, -0.00, -1.00, 427.8, 590.6)">s</text><g><clipPath id="clip0x7fda2bee6ab0"><path d="M -68.0 529.0 L 470.0 529.0 L 470.0 124.0 L -68.0 124.0 Z M -68.0 529.5 "></path></clipPath><g clip-path="url(#clip0x7fda2bee6ab0)"><image xlink:href="../../5D526BBA-C9C5-4244-BC1F-EF83F1929C43/assets/DAFA0E4DBC15D26F7766DE3F214BE5F1.png" width="874.00" height="660.00" transform="matrix(0.62, 0.00, -0.00, -0.61, 26.0, 529.0)"></image></g></g><g><clipPath id="clip0x7fda274b7640"><path d="M 507.0 311.0 L 507.0 276.5 L 571.0 326.5 L 507.0 376.5 L 507.0 343.0 L 471.0 343.0 L 471.0 311.0 Z M 507.0 310.5 "></path></clipPath><g clip-path="url(#clip0x7fda274b7640)"><image xlink:href="../../5867522E-6026-46E5-8AA5-52BA20D7C218/assets/AE076AE14B0AE672B700F7473AB7889A.png" width="256.00" height="256.00" transform="matrix(0.50, 0.00, -0.00, -0.50, 471.0, 376.5)"></image></g></g><text xml:space="preserve" font-family="UbuntuMono-Regular,Ubuntu Mono" font-size="60.0" fill="#FEFFFF" transform="matrix(1.00, 0.00, -0.00, -1.00, 605.8, 590.6)">s</text><text xml:space="preserve" font-family="UbuntuMono-Regular,Ubuntu Mono" font-size="60.0" fill="#FEFFFF" transform="matrix(1.00, 0.00, -0.00, -1.00, 635.8, 590.6)">e</text><text xml:space="preserve" font-family="UbuntuMono-Regular,Ubuntu Mono" font-size="60.0" fill="#FEFFFF" transform="matrix(1.00, 0.00, -0.00, -1.00, 665.8, 590.6)">r</text><text xml:space="preserve" font-family="UbuntuMono-Regular,Ubuntu Mono" font-size="60.0" fill="#FEFFFF" transform="matrix(1.00, 0.00, -0.00, -1.00, 695.8, 590.6)">v</text><text xml:space="preserve" font-family="UbuntuMono-Regular,Ubuntu Mono" font-size="60.0" fill="#FEFFFF" transform="matrix(1.00, 0.00, -0.00, -1.00, 725.8, 590.6)">i</text><text xml:space="preserve" font-family="UbuntuMono-Regular,Ubuntu Mono" font-size="60.0" fill="#FEFFFF" transform="matrix(1.00, 0.00, -0.00, -1.00, 755.8, 590.6)">c</text><text xml:space="preserve" font-family="UbuntuMono-Regular,Ubuntu Mono" font-size="60.0" fill="#FEFFFF" transform="matrix(1.00, 0.00, -0.00, -1.00, 785.8, 590.6)">e</text><text xml:space="preserve" font-family="UbuntuMono-Regular,Ubuntu Mono" font-size="60.0" fill="#FEFFFF" transform="matrix(1.00, 0.00, -0.00, -1.00, 815.8, 590.6)">s</text><text xml:space="preserve" font-family="UbuntuMono-Regular,Ubuntu Mono" font-size="60.0" fill="#FEFFFF" transform="matrix(1.00, 0.00, -0.00, -1.00, 845.8, 590.6)">.</text><text xml:space="preserve" font-family="UbuntuMono-Regular,Ubuntu Mono" font-size="60.0" fill="#FEFFFF" transform="matrix(1.00, 0.00, -0.00, -1.00, 875.8, 590.6)">j</text><text xml:space="preserve" font-family="UbuntuMono-Regular,Ubuntu Mono" font-size="60.0" fill="#FEFFFF" transform="matrix(1.00, 0.00, -0.00, -1.00, 905.8, 590.6)">s</text><image xlink:href="../../5D526BBA-C9C5-4244-BC1F-EF83F1929C43/assets/3CD3EDC2EA8875F8A62371CF3F6F179C.png" width="576.00" height="734.00" transform="matrix(0.61, 0.00, -0.00, -0.61, 595.0, 551.0)"></image></g></svg>