<?xml version="1.0" encoding="UTF-8" standalone="no"?><svg xmlns="http://www.w3.org/2000/svg" xmlns:xlink="http://www.w3.org/1999/xlink" clip-rule="evenodd" stroke-miterlimit="10" viewBox="0 0 1024 768"><desc>SVG generated by Keynote</desc><defs></defs><g transform="matrix(1.00, 0.00, -0.00, -1.00, 0.0, 768.0)"><path d="M 0.0 768.0 L 1024.0 768.0 L 1024.0 0.0 L 0.0 0.0 Z M 0.0 768.0 " fill="#F4F4F4"></path><text xml:space="preserve" font-family="Monaco,Monaco" font-size="79.2" fill="#000000" transform="matrix(1.00, 0.00, -0.00, -1.00, 155.5, 566.6)">o</text><text xml:space="preserve" font-family="Monaco,Monaco" font-size="79.2" fill="#000000" transform="matrix(1.00, 0.00, -0.00, -1.00, 203.1, 566.6)"> </text><text xml:space="preserve" font-family="Monaco,Monaco" font-size="79.2" fill="#000000" transform="matrix(1.00, 0.00, -0.00, -1.00, 250.6, 566.6)">q</text><text xml:space="preserve" font-family="Monaco,Monaco" font-size="79.2" fill="#000000" transform="matrix(1.00, 0.00, -0.00, -1.00, 298.1, 566.6)">u</text><text xml:space="preserve" font-family="Monaco,Monaco" font-size="79.2" fill="#000000" transform="matrix(1.00, 0.00, -0.00, -1.00, 345.7, 566.6)">e</text><text xml:space="preserve" font-family="Monaco,Monaco" font-size="79.2" fill="#000000" transform="matrix(1.00, 0.00, -0.00, -1.00, 393.2, 566.6)"> </text><text xml:space="preserve" font-family="Monaco,Monaco" font-size="79.2" fill="#000000" transform="matrix(1.00, 0.00, -0.00, -1.00, 440.8, 566.6)">i</text><text xml:space="preserve" font-family="Monaco,Monaco" font-size="79.2" fill="#000000" transform="matrix(1.00, 0.00, -0.00, -1.00, 488.3, 566.6)">m</text><text xml:space="preserve" font-family="Monaco,Monaco" font-size="79.2" fill="#000000" transform="matrix(1.00, 0.00, -0.00, -1.00, 535.8, 566.6)">p</text><text xml:space="preserve" font-family="Monaco,Monaco" font-size="79.2" fill="#000000" transform="matrix(1.00, 0.00, -0.00, -1.00, 583.4, 566.6)">o</text><text xml:space="preserve" font-family="Monaco,Monaco" font-size="79.2" fill="#000000" transform="matrix(1.00, 0.00, -0.00, -1.00, 630.9, 566.6)">r</text><text xml:space="preserve" font-family="Monaco,Monaco" font-size="79.2" fill="#000000" transform="matrix(1.00, 0.00, -0.00, -1.00, 678.4, 566.6)">t</text><text xml:space="preserve" font-family="Monaco,Monaco" font-size="79.2" fill="#000000" transform="matrix(1.00, 0.00, -0.00, -1.00, 726.0, 566.6)">a</text><text xml:space="preserve" font-family="Monaco,Monaco" font-size="79.2" fill="#000000" transform="matrix(1.00, 0.00, -0.00, -1.00, 773.5, 566.6)"> </text><text xml:space="preserve" font-family="Monaco,Monaco" font-size="79.2" fill="#000000" transform="matrix(1.00, 0.00, -0.00, -1.00, 821.0, 566.6)">é</text><text xml:space="preserve" font-family="Monaco,Monaco" font-size="79.2" fill="#000000" transform="matrix(1.00, 0.00, -0.00, -1.00, 868.6, 566.6)"> </text><text xml:space="preserve" font-family="Monaco,Monaco" font-size="79.2" fill="#000000" transform="matrix(1.00, 0.00, -0.00, -1.00, 179.3, 460.6)">q</text><text xml:space="preserve" font-family="Monaco,Monaco" font-size="79.2" fill="#000000" transform="matrix(1.00, 0.00, -0.00, -1.00, 226.8, 460.6)">u</text><text xml:space="preserve" font-family="Monaco,Monaco" font-size="79.2" fill="#000000" transform="matrix(1.00, 0.00, -0.00, -1.00, 274.4, 460.6)">e</text><text xml:space="preserve" font-family="Monaco,Monaco" font-size="79.2" fill="#000000" transform="matrix(1.00, 0.00, -0.00, -1.00, 321.9, 460.6)"> </text><text xml:space="preserve" font-family="Monaco,Monaco" font-size="79.2" fill="#000000" transform="matrix(1.00, 0.00, -0.00, -1.00, 369.4, 460.6)">o</text><text xml:space="preserve" font-family="Monaco,Monaco" font-size="79.2" fill="#000000" transform="matrix(1.00, 0.00, -0.00, -1.00, 417.0, 460.6)"> </text><text xml:space="preserve" font-family="Monaco,Monaco" font-size="79.2" fill="#000000" transform="matrix(1.00, 0.00, -0.00, -1.00, 464.5, 460.6)">e</text><text xml:space="preserve" font-family="Monaco,Monaco" font-size="79.2" fill="#000000" transform="matrix(1.00, 0.00, -0.00, -1.00, 512.1, 460.6)">l</text><text xml:space="preserve" font-family="Monaco,Monaco" font-size="79.2" fill="#000000" transform="matrix(1.00, 0.00, -0.00, -1.00, 559.6, 460.6)">e</text><text xml:space="preserve" font-family="Monaco,Monaco" font-size="79.2" fill="#000000" transform="matrix(1.00, 0.00, -0.00, -1.00, 607.1, 460.6)">m</text><text xml:space="preserve" font-family="Monaco,Monaco" font-size="79.2" fill="#000000" transform="matrix(1.00, 0.00, -0.00, -1.00, 654.7, 460.6)">e</text><text xml:space="preserve" font-family="Monaco,Monaco" font-size="79.2" fill="#000000" transform="matrix(1.00, 0.00, -0.00, -1.00, 702.2, 460.6)">n</text><text xml:space="preserve" font-family="Monaco,Monaco" font-size="79.2" fill="#000000" transform="matrix(1.00, 0.00, -0.00, -1.00, 749.7, 460.6)">t</text><text xml:space="preserve" font-family="Monaco,Monaco" font-size="79.2" fill="#000000" transform="matrix(1.00, 0.00, -0.00, -1.00, 797.3, 460.6)">o</text><text xml:space="preserve" font-family="Monaco,Monaco" font-size="79.2" fill="#000000" transform="matrix(1.00, 0.00, -0.00, -1.00, 844.8, 460.6)"> </text><text xml:space="preserve" font-family="Monaco,Monaco" font-size="79.2" fill="#000000" transform="matrix(1.00, 0.00, -0.00, -1.00, 155.5, 354.6)">t</text><text xml:space="preserve" font-family="Monaco,Monaco" font-size="79.2" fill="#000000" transform="matrix(1.00, 0.00, -0.00, -1.00, 203.1, 354.6)">e</text><text xml:space="preserve" font-family="Monaco,Monaco" font-size="79.2" fill="#000000" transform="matrix(1.00, 0.00, -0.00, -1.00, 250.6, 354.6)">n</text><text xml:space="preserve" font-family="Monaco,Monaco" font-size="79.2" fill="#000000" transform="matrix(1.00, 0.00, -0.00, -1.00, 298.1, 354.6)">h</text><text xml:space="preserve" font-family="Monaco,Monaco" font-size="79.2" fill="#000000" transform="matrix(1.00, 0.00, -0.00, -1.00, 345.7, 354.6)">a</text><text xml:space="preserve" font-family="Monaco,Monaco" font-size="79.2" fill="#000000" transform="matrix(1.00, 0.00, -0.00, -1.00, 393.2, 354.6)"> </text><text xml:space="preserve" font-family="Monaco,Monaco" font-size="79.2" fill="#000000" transform="matrix(1.00, 0.00, -0.00, -1.00, 440.8, 354.6)">u</text><text xml:space="preserve" font-family="Monaco,Monaco" font-size="79.2" fill="#000000" transform="matrix(1.00, 0.00, -0.00, -1.00, 488.3, 354.6)">m</text><text xml:space="preserve" font-family="Monaco,Monaco" font-size="79.2" fill="#000000" transform="matrix(1.00, 0.00, -0.00, -1.00, 535.8, 354.6)"> </text><text xml:space="preserve" font-family="Monaco,Monaco" font-size="79.2" fill="#000000" transform="matrix(1.00, 0.00, -0.00, -1.00, 583.4, 354.6)">m</text><text xml:space="preserve" font-family="Monaco,Monaco" font-size="79.2" fill="#000000" transform="matrix(1.00, 0.00, -0.00, -1.00, 630.9, 354.6)">é</text><text xml:space="preserve" font-family="Monaco,Monaco" font-size="79.2" fill="#000000" transform="matrix(1.00, 0.00, -0.00, -1.00, 678.4, 354.6)">t</text><text xml:space="preserve" font-family="Monaco,Monaco" font-size="79.2" fill="#000000" transform="matrix(1.00, 0.00, -0.00, -1.00, 726.0, 354.6)">o</text><text xml:space="preserve" font-family="Monaco,Monaco" font-size="79.2" fill="#000000" transform="matrix(1.00, 0.00, -0.00, -1.00, 773.5, 354.6)">d</text><text xml:space="preserve" font-family="Monaco,Monaco" font-size="79.2" fill="#000000" transform="matrix(1.00, 0.00, -0.00, -1.00, 821.0, 354.6)">o</text><text xml:space="preserve" font-family="Monaco,Monaco" font-size="79.2" fill="#000000" transform="matrix(1.00, 0.00, -0.00, -1.00, 868.6, 354.6)"> </text><text xml:space="preserve" font-family="Monaco,Monaco" font-size="79.2" fill="#000000" transform="matrix(1.00, 0.00, -0.00, -1.00, 108.0, 248.6)">a</text><text xml:space="preserve" font-family="Monaco,Monaco" font-size="79.2" fill="#000000" transform="matrix(1.00, 0.00, -0.00, -1.00, 155.5, 248.6)">p</text><text xml:space="preserve" font-family="Monaco,Monaco" font-size="79.2" fill="#000000" transform="matrix(1.00, 0.00, -0.00, -1.00, 203.1, 248.6)">p</text><text xml:space="preserve" font-family="Monaco,Monaco" font-size="79.2" fill="#000000" transform="matrix(1.00, 0.00, -0.00, -1.00, 250.6, 248.6)">e</text><text xml:space="preserve" font-family="Monaco,Monaco" font-size="79.2" fill="#000000" transform="matrix(1.00, 0.00, -0.00, -1.00, 298.2, 248.6)">n</text><text xml:space="preserve" font-family="Monaco,Monaco" font-size="79.2" fill="#000000" transform="matrix(1.00, 0.00, -0.00, -1.00, 345.7, 248.6)">d</text><text xml:space="preserve" font-family="Monaco,Monaco" font-size="79.2" fill="#000000" transform="matrix(1.00, 0.00, -0.00, -1.00, 393.2, 248.6)"> </text><text xml:space="preserve" font-family="Monaco,Monaco" font-size="79.2" fill="#000000" transform="matrix(1.00, 0.00, -0.00, -1.00, 440.8, 248.6)">q</text><text xml:space="preserve" font-family="Monaco,Monaco" font-size="79.2" fill="#000000" transform="matrix(1.00, 0.00, -0.00, -1.00, 488.3, 248.6)">u</text><text xml:space="preserve" font-family="Monaco,Monaco" font-size="79.2" fill="#000000" transform="matrix(1.00, 0.00, -0.00, -1.00, 535.8, 248.6)">e</text><text xml:space="preserve" font-family="Monaco,Monaco" font-size="79.2" fill="#000000" transform="matrix(1.00, 0.00, -0.00, -1.00, 583.4, 248.6)"> </text><text xml:space="preserve" font-family="Monaco,Monaco" font-size="79.2" fill="#000000" transform="matrix(1.00, 0.00, -0.00, -1.00, 630.9, 248.6)">c</text><text xml:space="preserve" font-family="Monaco,Monaco" font-size="79.2" fill="#000000" transform="matrix(1.00, 0.00, -0.00, -1.00, 678.4, 248.6)">u</text><text xml:space="preserve" font-family="Monaco,Monaco" font-size="79.2" fill="#000000" transform="matrix(1.00, 0.00, -0.00, -1.00, 726.0, 248.6)">m</text><text xml:space="preserve" font-family="Monaco,Monaco" font-size="79.2" fill="#000000" transform="matrix(1.00, 0.00, -0.00, -1.00, 773.5, 248.6)">p</text><text xml:space="preserve" font-family="Monaco,Monaco" font-size="79.2" fill="#000000" transform="matrix(1.00, 0.00, -0.00, -1.00, 821.0, 248.6)">r</text><text xml:space="preserve" font-family="Monaco,Monaco" font-size="79.2" fill="#000000" transform="matrix(1.00, 0.00, -0.00, -1.00, 868.6, 248.6)">e</text><text xml:space="preserve" font-family="Monaco,Monaco" font-size="79.2" fill="#000000" transform="matrix(1.00, 0.00, -0.00, -1.00, 916.1, 248.6)"> </text><text xml:space="preserve" font-family="Monaco,Monaco" font-size="79.2" fill="#000000" transform="matrix(1.00, 0.00, -0.00, -1.00, 274.4, 142.6)">s</text><text xml:space="preserve" font-family="Monaco,Monaco" font-size="79.2" fill="#000000" transform="matrix(1.00, 0.00, -0.00, -1.00, 321.9, 142.6)">e</text><text xml:space="preserve" font-family="Monaco,Monaco" font-size="79.2" fill="#000000" transform="matrix(1.00, 0.00, -0.00, -1.00, 369.4, 142.6)">u</text><text xml:space="preserve" font-family="Monaco,Monaco" font-size="79.2" fill="#000000" transform="matrix(1.00, 0.00, -0.00, -1.00, 417.0, 142.6)"> </text><text xml:space="preserve" font-family="Monaco,Monaco" font-size="79.2" fill="#000000" transform="matrix(1.00, 0.00, -0.00, -1.00, 464.5, 142.6)">p</text><text xml:space="preserve" font-family="Monaco,Monaco" font-size="79.2" fill="#000000" transform="matrix(1.00, 0.00, -0.00, -1.00, 512.0, 142.6)">a</text><text xml:space="preserve" font-family="Monaco,Monaco" font-size="79.2" fill="#000000" transform="matrix(1.00, 0.00, -0.00, -1.00, 559.6, 142.6)">p</text><text xml:space="preserve" font-family="Monaco,Monaco" font-size="79.2" fill="#000000" transform="matrix(1.00, 0.00, -0.00, -1.00, 607.1, 142.6)">e</text><text xml:space="preserve" font-family="Monaco,Monaco" font-size="79.2" fill="#000000" transform="matrix(1.00, 0.00, -0.00, -1.00, 654.6, 142.6)">l</text><text xml:space="preserve" font-family="Monaco,Monaco" font-size="79.2" fill="#000000" transform="matrix(1.00, 0.00, -0.00, -1.00, 702.2, 142.6)">…</text></g></svg>