<?xml version="1.0" encoding="UTF-8" standalone="no"?><svg xmlns="http://www.w3.org/2000/svg" xmlns:xlink="http://www.w3.org/1999/xlink" clip-rule="evenodd" stroke-miterlimit="10" viewBox="0 0 1024 768"><desc>SVG generated by Keynote</desc><defs></defs><g transform="matrix(1.00, 0.00, -0.00, -1.00, 0.0, 768.0)"><path d="M 0.0 768.0 L 1024.0 768.0 L 1024.0 0.0 L 0.0 0.0 Z M 0.0 768.0 " fill="#000000"></path><text xml:space="preserve" font-family="UbuntuMono-Regular,Ubuntu Mono" font-size="60.0" fill="#FEFFFF" transform="matrix(1.00, 0.00, -0.00, -1.00, 422.0, 444.5)">a</text><text xml:space="preserve" font-family="UbuntuMono-Regular,Ubuntu Mono" font-size="60.0" fill="#FEFFFF" transform="matrix(1.00, 0.00, -0.00, -1.00, 452.0, 444.5)">p</text><text xml:space="preserve" font-family="UbuntuMono-Regular,Ubuntu Mono" font-size="60.0" fill="#FEFFFF" transform="matrix(1.00, 0.00, -0.00, -1.00, 482.0, 444.5)">p</text><text xml:space="preserve" font-family="UbuntuMono-Regular,Ubuntu Mono" font-size="60.0" fill="#FEFFFF" transform="matrix(1.00, 0.00, -0.00, -1.00, 512.0, 444.5)">.</text><text xml:space="preserve" font-family="UbuntuMono-Regular,Ubuntu Mono" font-size="60.0" fill="#FEFFFF" transform="matrix(1.00, 0.00, -0.00, -1.00, 542.0, 444.5)">j</text><text xml:space="preserve" font-family="UbuntuMono-Regular,Ubuntu Mono" font-size="60.0" fill="#FEFFFF" transform="matrix(1.00, 0.00, -0.00, -1.00, 572.0, 444.5)">s</text><image xlink:href="../../68B36675-D9DE-43B1-B799-75F89AFED1B2/assets/D720FBB0B97864BB598B4AED0034DB7E.png" width="1532.00" height="128.00" transform="matrix(0.67, 0.00, -0.00, -0.66, 0.0, 355.0)"></image><path d="M 0.0 0.0 L -98.4 -655.8 " fill="none" stroke="#FE0E01" stroke-width="7.00" stroke-linecap="round" stroke-linejoin="round" transform="matrix(-0.71, -0.71, -0.11, 0.11, 24.5, 304.0)"></path></g></svg>