<?xml version="1.0" encoding="UTF-8" standalone="no"?><svg xmlns="http://www.w3.org/2000/svg" xmlns:xlink="http://www.w3.org/1999/xlink" clip-rule="evenodd" stroke-miterlimit="10" viewBox="0 0 1024 768"><desc>SVG generated by Keynote</desc><defs></defs><g transform="matrix(1.00, 0.00, -0.00, -1.00, 0.0, 768.0)"><path d="M 0.0 768.0 L 1024.0 768.0 L 1024.0 0.0 L 0.0 0.0 Z M 0.0 768.0 " fill="#F4F4F4"></path><image xlink:href="../../B165C8D7-C430-4BAE-874B-F7EB7E8E5A1D/assets/475B5BA431313809F85A3E469E436D9E.jpeg" width="4096.00" height="3072.00" transform="matrix(0.25, 0.00, -0.00, -0.25, 0.0, 768.0)"></image><text xml:space="preserve" font-family="UbuntuMono-Bold,Ubuntu Mono" font-weight="bold" font-size="54.0" fill="#000000" transform="matrix(1.00, 0.00, -0.00, -1.00, 90.0, 556.2)">1</text><text xml:space="preserve" font-family="UbuntuMono-Bold,Ubuntu Mono" font-weight="bold" font-size="54.0" fill="#000000" transform="matrix(1.00, 0.00, -0.00, -1.00, 117.0, 556.2)">7</text><text xml:space="preserve" font-family="UbuntuMono-Bold,Ubuntu Mono" font-weight="bold" font-size="54.0" fill="#000000" transform="matrix(1.00, 0.00, -0.00, -1.00, 523.0, 556.2)">1</text><text xml:space="preserve" font-family="UbuntuMono-Bold,Ubuntu Mono" font-weight="bold" font-size="54.0" fill="#000000" transform="matrix(1.00, 0.00, -0.00, -1.00, 550.0, 556.2)">9</text><text xml:space="preserve" font-family="UbuntuMono-Bold,Ubuntu Mono" font-weight="bold" font-size="54.0" fill="#000000" transform="matrix(1.00, 0.00, -0.00, -1.00, 882.0, 556.2)">2</text><text xml:space="preserve" font-family="UbuntuMono-Bold,Ubuntu Mono" font-weight="bold" font-size="54.0" fill="#000000" transform="matrix(1.00, 0.00, -0.00, -1.00, 909.0, 556.2)">1</text></g></svg>