<?xml version="1.0" encoding="UTF-8" standalone="no"?><svg xmlns="http://www.w3.org/2000/svg" xmlns:xlink="http://www.w3.org/1999/xlink" clip-rule="evenodd" stroke-miterlimit="10" viewBox="0 0 1024 768"><desc>SVG generated by Keynote</desc><defs></defs><g transform="matrix(1.00, 0.00, -0.00, -1.00, 0.0, 768.0)"><path d="M 0.0 768.0 L 1024.0 768.0 L 1024.0 0.0 L 0.0 0.0 Z M 0.0 768.0 " fill="#F4F4F4"></path><text xml:space="preserve" font-family="Monaco,Monaco" font-size="80.0" fill="#000000" transform="matrix(1.00, 0.00, -0.00, -1.00, 139.9, 532.6)">a</text><text xml:space="preserve" font-family="Monaco,Monaco" font-size="80.0" fill="#000000" transform="matrix(1.00, 0.00, -0.00, -1.00, 188.0, 532.6)">d</text><text xml:space="preserve" font-family="Monaco,Monaco" font-size="80.0" fill="#000000" transform="matrix(1.00, 0.00, -0.00, -1.00, 236.0, 532.6)">e</text><text xml:space="preserve" font-family="Monaco,Monaco" font-size="80.0" fill="#000000" transform="matrix(1.00, 0.00, -0.00, -1.00, 284.0, 532.6)">u</text><text xml:space="preserve" font-family="Monaco,Monaco" font-size="80.0" fill="#000000" transform="matrix(1.00, 0.00, -0.00, -1.00, 332.0, 532.6)">s</text><text xml:space="preserve" font-family="Monaco,Monaco" font-size="80.0" fill="#000000" transform="matrix(1.00, 0.00, -0.00, -1.00, 380.0, 532.6)"> </text><text xml:space="preserve" font-family="Monaco,Monaco" font-size="80.0" fill="#000000" transform="matrix(1.00, 0.00, -0.00, -1.00, 428.0, 532.6)">a</text><text xml:space="preserve" font-family="Monaco,Monaco" font-size="80.0" fill="#000000" transform="matrix(1.00, 0.00, -0.00, -1.00, 476.1, 532.6)">o</text><text xml:space="preserve" font-family="Monaco,Monaco" font-size="80.0" fill="#000000" transform="matrix(1.00, 0.00, -0.00, -1.00, 524.1, 532.6)"> </text><text xml:space="preserve" font-family="Monaco,Monaco" font-size="80.0" fill="#000000" transform="matrix(1.00, 0.00, -0.00, -1.00, 572.1, 532.6)">c</text><text xml:space="preserve" font-family="Monaco,Monaco" font-size="80.0" fill="#000000" transform="matrix(1.00, 0.00, -0.00, -1.00, 620.1, 532.6)">ó</text><text xml:space="preserve" font-family="Monaco,Monaco" font-size="80.0" fill="#000000" transform="matrix(1.00, 0.00, -0.00, -1.00, 668.1, 532.6)">d</text><text xml:space="preserve" font-family="Monaco,Monaco" font-size="80.0" fill="#000000" transform="matrix(1.00, 0.00, -0.00, -1.00, 716.1, 532.6)">i</text><text xml:space="preserve" font-family="Monaco,Monaco" font-size="80.0" fill="#000000" transform="matrix(1.00, 0.00, -0.00, -1.00, 764.1, 532.6)">g</text><text xml:space="preserve" font-family="Monaco,Monaco" font-size="80.0" fill="#000000" transform="matrix(1.00, 0.00, -0.00, -1.00, 812.2, 532.6)">o</text><text xml:space="preserve" font-family="Monaco,Monaco" font-size="80.0" fill="#000000" transform="matrix(1.00, 0.00, -0.00, -1.00, 860.2, 532.6)"> </text><text xml:space="preserve" font-family="Monaco,Monaco" font-size="80.0" fill="#000000" transform="matrix(1.00, 0.00, -0.00, -1.00, 236.0, 425.6)">m</text><text xml:space="preserve" font-family="Monaco,Monaco" font-size="80.0" fill="#000000" transform="matrix(1.00, 0.00, -0.00, -1.00, 284.0, 425.6)">a</text><text xml:space="preserve" font-family="Monaco,Monaco" font-size="80.0" fill="#000000" transform="matrix(1.00, 0.00, -0.00, -1.00, 332.0, 425.6)">c</text><text xml:space="preserve" font-family="Monaco,Monaco" font-size="80.0" fill="#000000" transform="matrix(1.00, 0.00, -0.00, -1.00, 380.0, 425.6)">a</text><text xml:space="preserve" font-family="Monaco,Monaco" font-size="80.0" fill="#000000" transform="matrix(1.00, 0.00, -0.00, -1.00, 428.0, 425.6)">r</text><text xml:space="preserve" font-family="Monaco,Monaco" font-size="80.0" fill="#000000" transform="matrix(1.00, 0.00, -0.00, -1.00, 476.0, 425.6)">r</text><text xml:space="preserve" font-family="Monaco,Monaco" font-size="80.0" fill="#000000" transform="matrix(1.00, 0.00, -0.00, -1.00, 524.1, 425.6)">ô</text><text xml:space="preserve" font-family="Monaco,Monaco" font-size="80.0" fill="#000000" transform="matrix(1.00, 0.00, -0.00, -1.00, 572.1, 425.6)">n</text><text xml:space="preserve" font-family="Monaco,Monaco" font-size="80.0" fill="#000000" transform="matrix(1.00, 0.00, -0.00, -1.00, 620.1, 425.6)">i</text><text xml:space="preserve" font-family="Monaco,Monaco" font-size="80.0" fill="#000000" transform="matrix(1.00, 0.00, -0.00, -1.00, 668.1, 425.6)">c</text><text xml:space="preserve" font-family="Monaco,Monaco" font-size="80.0" fill="#000000" transform="matrix(1.00, 0.00, -0.00, -1.00, 716.1, 425.6)">o</text><image xlink:href="../../09683647-E8CD-4DCC-901D-C05B061699D0/assets/8DED2E605327089E10AE3897DFBBAC4D.png" width="260.00" height="215.00" transform="matrix(1.00, 0.00, -0.00, -1.00, 370.0, 353.0)"></image></g></svg>